<svg width="20" height="20" viewBox="0 0 20 20" fill="none" xmlns="http://www.w3.org/2000/svg">
<path d="M7.08268 2.70898C5.12667 2.70898 3.54102 4.29464 3.54102 6.25065C3.54102 8.20666 5.12667 9.79232 7.08268 9.79232C9.03869 9.79232 10.6243 8.20666 10.6243 6.25065C10.6243 4.29464 9.03869 2.70898 7.08268 2.70898Z" fill="white"/>
<path d="M5.53506 11.0423C3.10111 11.0423 1.04102 12.875 1.04102 15.2387C1.04102 16.4191 2.06177 17.2923 3.21363 17.2923H8.45196C9.63047 17.2923 10.2197 17.2923 10.5858 16.9262C10.952 16.5601 10.952 15.9708 10.952 14.7923V13.1071C10.952 12.3636 10.952 11.9919 10.6701 11.6468C10.3882 11.3017 10.1216 11.2473 9.58827 11.1386C9.27853 11.0755 8.95791 11.0423 8.63053 11.0423H5.53506Z" fill="white"/>
<path d="M15.6243 10.6257C16.0846 10.6257 16.4577 10.9987 16.4577 11.459V13.1257H18.1243C18.5846 13.1257 18.9577 13.4987 18.9577 13.959C18.9577 14.4192 18.5846 14.7923 18.1243 14.7923H16.4577V16.459C16.4577 16.9192 16.0846 17.2923 15.6243 17.2923C15.1641 17.2923 14.791 16.9192 14.791 16.459V14.7923H13.1243C12.6641 14.7923 12.291 14.4192 12.291 13.959C12.291 13.4987 12.6641 13.1257 13.1243 13.1257H14.791V11.459C14.791 10.9987 15.1641 10.6257 15.6243 10.6257Z" fill="white"/>
<path d="M11.2492 9.79232C10.9619 9.79232 10.6827 9.75811 10.4152 9.69355C11.3149 8.82247 11.8742 7.60188 11.8742 6.25065C11.8742 4.89943 11.3149 3.67883 10.4152 2.80775C10.6827 2.74319 10.9619 2.70898 11.2492 2.70898C13.2052 2.70898 14.7909 4.29464 14.7909 6.25065C14.7909 8.20666 13.2052 9.79232 11.2492 9.79232Z" fill="white"/>
</svg>
