<svg width="24" height="24" viewBox="0 0 24 24" fill="none" xmlns="http://www.w3.org/2000/svg">
<path fill-rule="evenodd" clip-rule="evenodd" d="M4.00391 20.25C4.00391 19.6977 4.45163 19.25 5.00391 19.25H19.0039C19.5562 19.25 20.0039 19.6977 20.0039 20.25C20.0039 20.8023 19.5562 21.25 19.0039 21.25H5.00391C4.45163 21.25 4.00391 20.8023 4.00391 20.25Z" fill="#F02731"/>
<path d="M12.002 2.75C12.2861 2.75 12.5458 2.9105 12.6729 3.16459L15.4011 8.62098C15.5573 8.93353 15.477 9.3126 15.2075 9.53496C14.9281 9.76542 14.752 10.1118 14.752 10.5C14.752 11.1904 15.3117 11.75 16.002 11.75C16.6924 11.75 17.252 11.1904 17.252 10.5C17.252 10.3788 17.235 10.2628 17.2036 10.1537C17.1098 9.82711 17.2472 9.47824 17.5386 9.30342L21.6162 6.85688C21.8817 6.69754 22.2179 6.71782 22.4624 6.90793C22.7069 7.09804 22.8094 7.41887 22.7204 7.71551L19.7204 17.7155C19.6252 18.0327 19.3332 18.25 19.002 18.25H5.00199C4.67078 18.25 4.37879 18.0327 4.28362 17.7155L1.28362 7.71551C1.19463 7.41887 1.29712 7.09804 1.54161 6.90793C1.7861 6.71782 2.12229 6.69754 2.38786 6.85688L6.46543 9.30342C6.7568 9.47824 6.89423 9.82711 6.80038 10.1537C6.76903 10.2628 6.75199 10.3788 6.75199 10.5C6.75199 11.1904 7.31163 11.75 8.00199 11.75C8.69235 11.75 9.25199 11.1904 9.25199 10.5C9.25199 10.1118 9.07595 9.76542 8.79656 9.53496C8.52698 9.3126 8.4467 8.93353 8.60297 8.62098L11.3312 3.16459C11.4583 2.9105 11.718 2.75 12.002 2.75Z" fill="#F02731"/>
</svg>
