<svg width="60" height="60" viewBox="0 0 60 60" fill="none" xmlns="http://www.w3.org/2000/svg">
<path d="M34.9953 54.375C40.6328 54.375 45.083 54.375 48.3791 53.8842C51.726 53.3857 54.4411 52.3043 55.9401 49.6582L56.1991 49.1603C57.3773 46.6528 56.8951 43.9285 55.6911 40.9863C54.7321 38.6423 53.1928 35.8707 51.2478 32.5487L49.1726 29.0405L44.3605 20.9277L44.2458 20.7324C41.4891 16.0845 39.3076 12.4082 37.2781 9.9121C35.2073 7.36537 32.9613 5.625 30.0003 5.625C27.0391 5.6251 24.7931 7.36537 22.7224 9.9121C21.1792 11.8102 19.547 14.3902 17.6418 17.561L15.6399 20.9277L10.8279 29.0405L10.7082 29.2407C7.8366 34.082 5.5707 37.9035 4.3093 40.9863C3.0253 44.1245 2.5629 47.0145 4.06028 49.6582L4.35568 50.1368C5.9014 52.4373 8.48378 53.417 11.6213 53.8842C14.9174 54.375 19.3677 54.375 25.0051 54.375H34.9953ZM30.0003 24.9951C28.6196 24.9949 27.5003 23.8757 27.5003 22.4951V22.4707C27.5003 21.0901 28.6196 19.9709 30.0003 19.9707C31.3808 19.9707 32.5003 21.09 32.5003 22.4707V22.4951C32.5003 23.8758 31.3808 24.9951 30.0003 24.9951ZM30.0003 45C28.6196 44.9997 27.5003 43.8805 27.5003 42.5V31.25C27.5003 29.8695 28.6196 28.7502 30.0003 28.75C31.3808 28.75 32.5003 29.8692 32.5003 31.25V42.5C32.5003 43.8807 31.3808 45 30.0003 45Z" fill="#F02731"/>
</svg>
