<svg width="38" height="38" viewBox="0 0 38 38" fill="none" xmlns="http://www.w3.org/2000/svg">
<g clip-path="url(#clip0_4070_1258)">
<path d="M35.1516 27.9197L22.1707 5.3765C21.8464 4.8242 21.3833 4.36627 20.8274 4.04808C20.2715 3.72989 19.6421 3.5625 19.0016 3.5625C18.3611 3.5625 17.7317 3.72989 17.1758 4.04808C16.6199 4.36627 16.1568 4.8242 15.8325 5.3765L2.85159 27.9197C2.53948 28.4539 2.375 29.0615 2.375 29.6802C2.375 30.2989 2.53948 30.9064 2.85159 31.4406C3.17182 31.9963 3.63411 32.4567 4.19103 32.7747C4.74796 33.0927 5.37946 33.2568 6.02073 33.2501H31.9824C32.6232 33.2562 33.2541 33.0919 33.8105 32.7739C34.3668 32.456 34.8286 31.9958 35.1486 31.4406C35.4612 30.9067 35.6262 30.2993 35.6267 29.6806C35.6272 29.0619 35.4632 28.4542 35.1516 27.9197ZM17.8141 15.4376C17.8141 15.1227 17.9392 14.8206 18.1619 14.5979C18.3846 14.3752 18.6866 14.2501 19.0016 14.2501C19.3165 14.2501 19.6186 14.3752 19.8413 14.5979C20.064 14.8206 20.1891 15.1227 20.1891 15.4376V21.3751C20.1891 21.69 20.064 21.9921 19.8413 22.2148C19.6186 22.4375 19.3165 22.5626 19.0016 22.5626C18.6866 22.5626 18.3846 22.4375 18.1619 22.2148C17.9392 21.9921 17.8141 21.69 17.8141 21.3751V15.4376ZM19.0016 28.5001C18.6493 28.5001 18.3049 28.3956 18.012 28.1999C17.7191 28.0042 17.4907 27.726 17.3559 27.4005C17.2211 27.075 17.1858 26.7169 17.2546 26.3713C17.3233 26.0258 17.4929 25.7084 17.7421 25.4593C17.9912 25.2102 18.3086 25.0406 18.6541 24.9718C18.9996 24.9031 19.3578 24.9384 19.6832 25.0732C20.0087 25.208 20.2869 25.4363 20.4826 25.7292C20.6784 26.0222 20.7828 26.3665 20.7828 26.7188C20.7828 27.1913 20.5952 27.6443 20.2611 27.9784C19.9271 28.3124 19.474 28.5001 19.0016 28.5001Z" fill="white" fill-opacity="0.7"/>
</g>
<defs>
<clipPath id="clip0_4070_1258">
<rect width="38" height="38" fill="white"/>
</clipPath>
</defs>
</svg>
