<svg width="16" height="16" viewBox="0 0 16 16" fill="none" xmlns="http://www.w3.org/2000/svg">
<path fill-rule="evenodd" clip-rule="evenodd" d="M11.5407 1.28739C10.6451 1.16698 9.49795 1.16699 8.03748 1.16699H7.96122C6.50076 1.16699 5.35364 1.16698 4.45803 1.28739C3.54026 1.41078 2.81209 1.66881 2.23996 2.24093C1.66783 2.81307 1.4098 3.54124 1.28641 4.45901C1.166 5.35462 1.16601 6.50174 1.16602 7.96219V8.03846C1.16601 9.49893 1.166 10.6461 1.28641 11.5417C1.4098 12.4594 1.66783 13.1876 2.23996 13.7597C2.81209 14.3319 3.54026 14.5899 4.45803 14.7133C5.35364 14.8337 6.50075 14.8337 7.96122 14.8337H8.03748C9.49795 14.8337 10.6451 14.8337 11.5407 14.7133C12.4584 14.5899 13.1866 14.3319 13.7587 13.7597C14.3309 13.1876 14.5889 12.4594 14.7123 11.5417C14.8327 10.6461 14.8327 9.49893 14.8327 8.03846V7.96219C14.8327 6.50173 14.8327 5.35462 14.7123 4.45901C14.5889 3.54124 14.3309 2.81307 13.7587 2.24093C13.1866 1.66881 12.4584 1.41078 11.5407 1.28739ZM5.16602 8.66699C5.16602 8.39086 4.94216 8.16699 4.66602 8.16699C4.38988 8.16699 4.16602 8.39086 4.16602 8.66699V11.3337C4.16602 11.6098 4.38988 11.8337 4.66602 11.8337C4.94216 11.8337 5.16602 11.6098 5.16602 11.3337V8.66699ZM7.99935 4.16699C8.27548 4.16699 8.49935 4.39085 8.49935 4.66699V11.3337C8.49935 11.6098 8.27548 11.8337 7.99935 11.8337C7.72322 11.8337 7.49935 11.6098 7.49935 11.3337V4.66699C7.49935 4.39085 7.72322 4.16699 7.99935 4.16699ZM11.8327 7.33366C11.8327 7.05753 11.6088 6.83366 11.3327 6.83366C11.0565 6.83366 10.8327 7.05753 10.8327 7.33366V11.3337C10.8327 11.6098 11.0565 11.8337 11.3327 11.8337C11.6088 11.8337 11.8327 11.6098 11.8327 11.3337V7.33366Z" fill="white"/>
</svg>
