<svg width="20" height="20" viewBox="0 0 20 20" fill="none" xmlns="http://www.w3.org/2000/svg">
<path d="M17.5002 10C17.5002 9.6307 17.3379 9.30162 17.2016 9.0755C17.0514 8.82649 16.8527 8.57436 16.6404 8.33398C16.2139 7.85133 15.6612 7.33695 15.1299 6.8757C14.5945 6.41086 14.0616 5.98335 13.664 5.67306C13.4667 5.51909 13.1181 5.25577 12.9977 5.1649L12.9944 5.16239C12.6238 4.88947 12.1022 4.96863 11.8292 5.33922C11.5563 5.70978 11.6355 6.2314 12.006 6.50434C12.117 6.58814 12.4472 6.83763 12.6386 6.98698C13.0222 7.28637 13.531 7.69464 14.0372 8.13421C14.436 8.48045 14.8217 8.83614 15.1405 9.16667L3.33356 9.16667C2.87333 9.16667 2.50023 9.53976 2.50023 10C2.50023 10.4602 2.87333 10.8333 3.33356 10.8333L15.1405 10.8333C14.8217 11.1639 14.436 11.5196 14.0372 11.8658C13.531 12.3054 13.0222 12.7136 12.6386 13.013C12.4472 13.1624 12.117 13.4119 12.006 13.4957C11.6355 13.7686 11.5563 14.2902 11.8292 14.6608C12.1022 15.0314 12.6238 15.1105 12.9944 14.8376L12.9975 14.8353C13.1178 14.7444 13.4667 14.4809 13.664 14.3269C14.0616 14.0167 14.5945 13.5891 15.1299 13.1243C15.6612 12.663 16.2139 12.1487 16.6404 11.666C16.8527 11.4256 17.0514 11.1735 17.2016 10.9245C17.3379 10.6984 17.5002 10.3693 17.5002 10C17.5002 9.99999 17.5002 10 17.5002 10Z" fill="white"/>
</svg>
