<svg width="16" height="16" viewBox="0 0 16 16" fill="none" xmlns="http://www.w3.org/2000/svg">
<path fill-rule="evenodd" clip-rule="evenodd" d="M5.4 0.833252C5.75899 0.833252 6.05 1.12495 6.05 1.48477V2.14181C6.43527 2.13627 6.85227 2.13627 7.30247 2.13628H8.69753C9.14773 2.13627 9.56473 2.13627 9.95 2.14181V1.48477C9.95 1.12495 10.241 0.833252 10.6 0.833252C10.959 0.833252 11.25 1.12495 11.25 1.48477V2.19957C11.3675 2.21029 11.4807 2.22283 11.5895 2.23751C12.3696 2.34263 13.0265 2.56753 13.5481 3.0904C14.0697 3.61328 14.2941 4.27164 14.399 5.05355C14.5 5.80668 14.5 6.76425 14.5 7.95225V9.35058C14.5 10.5386 14.5 11.4962 14.399 12.2493C14.2941 13.0313 14.0697 13.6896 13.5481 14.2125C13.0265 14.7353 12.3696 14.9603 11.5895 15.0654C10.8381 15.1666 9.8828 15.1666 8.69753 15.1666H7.30247C6.11721 15.1666 5.16186 15.1666 4.41049 15.0654C3.63039 14.9603 2.97357 14.7353 2.45191 14.2125C1.93025 13.6896 1.70587 13.0313 1.60099 12.2493C1.49997 11.4962 1.49999 10.5387 1.5 9.35065V7.95225C1.49999 6.76425 1.49997 5.80666 1.60099 5.05355C1.70587 4.27164 1.93025 3.61328 2.45191 3.0904C2.97357 2.56753 3.63039 2.34263 4.41049 2.23751C4.51935 2.22283 4.63249 2.21029 4.75 2.19957V1.48477C4.75 1.12495 5.04101 0.833252 5.4 0.833252ZM2.80924 6.49992C2.8003 6.93045 2.80001 7.42512 2.80001 7.99992V9.30292C2.80001 10.5499 2.80139 11.4195 2.8894 12.0757C2.9749 12.7131 3.13129 13.0507 3.37115 13.2911C3.61101 13.5315 3.94777 13.6883 4.58371 13.774C5.23835 13.8622 6.10598 13.8636 7.35 13.8636H8.65C9.89407 13.8636 10.7617 13.8622 11.4163 13.774C12.0523 13.6883 12.389 13.5315 12.6289 13.2911C12.8687 13.0507 13.0251 12.7131 13.1106 12.0757C13.1986 11.4195 13.2 10.5499 13.2 9.30292V7.99992C13.2 7.42512 13.1997 6.93045 13.1908 6.49992H2.80924Z" fill="white"/>
</svg>
