<svg width="32" height="32" viewBox="0 0 32 32" fill="none" xmlns="http://www.w3.org/2000/svg">
<path fill-rule="evenodd" clip-rule="evenodd" d="M9.33398 2.83333C9.33398 2.09695 8.73703 1.5 8.00065 1.5C7.26427 1.5 6.66732 2.09695 6.66732 2.83333V3.78225C5.73877 4.09147 4.94335 4.56387 4.26938 5.29248C3.23216 6.4138 2.77112 7.83056 2.55032 9.60601C2.33396 11.3457 2.33397 13.5753 2.33398 16.42V17.2466C2.33397 20.0914 2.33396 22.3209 2.55032 24.0607C2.77112 25.8361 3.23216 27.2529 4.26938 28.3742C5.31684 29.5066 6.65767 30.0201 8.3357 30.264C9.95974 30.5 12.0347 30.5 14.653 30.5H17.3483C19.9666 30.5 22.0416 30.5 23.6656 30.264C25.3436 30.0201 26.6845 29.5066 27.7319 28.3742C28.7691 27.2529 29.2302 25.8361 29.451 24.0607C29.6673 22.3209 29.6673 20.0914 29.6673 17.2466V16.4201C29.6673 13.5753 29.6673 11.3457 29.451 9.60601C29.2302 7.83056 28.7691 6.4138 27.7319 5.29248C27.058 4.56387 26.2625 4.09147 25.334 3.78225V2.83333C25.334 2.09695 24.737 1.5 24.0007 1.5C23.2643 1.5 22.6673 2.09695 22.6673 2.83333V3.2901C21.2148 3.16663 19.4579 3.16665 17.3483 3.16667H14.653C12.5434 3.16665 10.7865 3.16663 9.33398 3.2901V2.83333ZM14.6673 18.0333C14.6673 17.0024 13.8316 16.1667 12.8006 16.1667L12.0006 16.1667C11.2643 16.1667 10.6673 16.7636 10.6673 17.5C10.6673 18.2364 11.2643 18.8333 12.0006 18.8333L12.0007 22.8333C12.0007 23.5697 12.5976 24.1667 13.334 24.1667C14.0704 24.1667 14.6673 23.5697 14.6673 22.8333L14.6673 18.0333ZM17.334 16.1667C16.5976 16.1667 16.0007 16.7636 16.0007 17.5C16.0007 18.2364 16.5976 18.8333 17.334 18.8333H18.2354L16.9235 22.3695C16.6673 23.0599 17.0193 23.8273 17.7097 24.0834C18.4001 24.3396 19.1674 23.9875 19.4236 23.2971L21.2296 18.4293C21.6786 17.2194 20.6913 16.1667 19.6282 16.1667H17.334ZM6.66732 10.8333C6.66732 10.097 7.26427 9.5 8.00065 9.5H24.0007C24.737 9.5 25.334 10.097 25.334 10.8333C25.334 11.5697 24.737 12.1667 24.0007 12.1667H8.00065C7.26427 12.1667 6.66732 11.5697 6.66732 10.8333Z" fill="white"/>
</svg>
