<svg width="16" height="16" viewBox="0 0 16 16" fill="none" xmlns="http://www.w3.org/2000/svg">
<path d="M7.9987 11.334C6.88296 11.334 5.91184 12.1773 5.41047 13.4215C5.171 14.0157 5.51462 14.6673 5.97121 14.6673H10.0262C10.4828 14.6673 10.8264 14.0157 10.5869 13.4215C10.0856 12.1773 9.11443 11.334 7.9987 11.334Z" stroke="white" stroke-linecap="round"/>
<path d="M12.3346 3.33398H13.1361C13.9367 3.33398 14.337 3.33398 14.5458 3.58556C14.7546 3.83713 14.6678 4.21474 14.4942 4.96995L14.2336 6.1027C13.8419 7.80638 12.4086 9.07318 10.668 9.33398" stroke="white" stroke-linecap="round" stroke-linejoin="round"/>
<path d="M3.66537 3.33398H2.86389C2.06331 3.33398 1.66303 3.33398 1.45419 3.58556C1.24536 3.83713 1.33219 4.21474 1.50587 4.96995L1.76635 6.1027C2.15813 7.80638 3.59145 9.07318 5.33203 9.33398" stroke="white" stroke-linecap="round" stroke-linejoin="round"/>
<path d="M8.0013 11.334C10.0152 11.334 11.7113 8.22592 12.2211 3.99458C12.3621 2.82437 12.4326 2.23927 12.0592 1.78662C11.6858 1.33398 11.0828 1.33398 9.8769 1.33398H6.12569C4.9198 1.33398 4.31686 1.33398 3.94342 1.78662C3.56998 2.23927 3.64047 2.82437 3.78147 3.99458C4.2913 8.22592 5.98746 11.334 8.0013 11.334Z" stroke="white" stroke-linecap="round"/>
</svg>
