<svg width="22" height="22" viewBox="0 0 22 22" fill="none" xmlns="http://www.w3.org/2000/svg">
<path d="M11 1.60417C16.1892 1.60417 20.3959 5.81082 20.3959 11C20.3959 16.1892 16.1892 20.3958 11 20.3958C9.39109 20.3958 7.87461 19.991 6.54917 19.2769C5.85304 18.9018 5.30044 18.8936 4.79999 18.9877C4.53255 19.0381 4.27839 19.1176 3.99522 19.207L3.9791 19.2124C3.7159 19.2955 3.40672 19.3928 3.09646 19.4397C2.70928 19.4983 2.34137 19.3551 2.08938 19.1031C1.69411 18.7076 1.65188 18.139 1.83604 17.705L1.90318 17.5375C2.23314 16.6571 2.48378 15.1741 2.08221 13.9666C1.77185 13.0333 1.60419 12.0355 1.60419 11C1.60419 5.81082 5.81084 1.60417 11 1.60417ZM7.34141 10.0833C6.83526 10.0834 6.42474 10.4938 6.42474 11C6.42474 11.5062 6.83526 11.9166 7.34141 11.9167H7.34947L7.44346 11.9122C7.90565 11.8652 8.26614 11.4746 8.26614 11C8.26614 10.5254 7.90565 10.1348 7.44346 10.0878L7.34947 10.0833H7.34141ZM11.0036 10.0833C10.4976 10.0836 10.0869 10.4939 10.0869 11C10.0869 11.5061 10.4976 11.9164 11.0036 11.9167H11.0126C11.5187 11.9165 11.9292 11.5061 11.9292 11C11.9292 10.4939 11.5187 10.0835 11.0126 10.0833H11.0036ZM14.6667 10.0833C14.1605 10.0834 13.75 10.4938 13.75 11C13.75 11.5062 14.1605 11.9166 14.6667 11.9167H14.6748C15.181 11.9167 15.5914 11.5063 15.5914 11C15.5914 10.4937 15.181 10.0833 14.6748 10.0833H14.6667Z" fill="#F4F4F4"/>
</svg>
