<svg width="32" height="32" viewBox="0 0 32 32" fill="none" xmlns="http://www.w3.org/2000/svg">
<path fill-rule="evenodd" clip-rule="evenodd" d="M1.66797 16.0013C1.66797 23.9173 8.0853 30.3346 16.0013 30.3346C23.9173 30.3346 30.3346 23.9173 30.3346 16.0013C30.3346 8.0853 23.9173 1.66797 16.0013 1.66797C8.0853 1.66797 1.66797 8.0853 1.66797 16.0013ZM22.236 11.0186C22.7786 11.516 22.8146 12.3599 22.3173 12.9026L14.984 20.9026C14.7387 21.1706 14.3933 21.3266 14.0306 21.3346C13.6666 21.3426 13.316 21.2013 13.0586 20.944L9.72529 17.6107C9.20396 17.0907 9.20396 16.2453 9.72529 15.7253C10.2453 15.2039 11.0906 15.2039 11.6106 15.7253L13.96 18.0733L20.352 11.1C20.8493 10.5573 21.6933 10.5213 22.236 11.0186Z" fill="white"/>
</svg>
