<svg width="30" height="30" viewBox="0 0 30 30" fill="none" xmlns="http://www.w3.org/2000/svg">
<path fill-rule="evenodd" clip-rule="evenodd" d="M28.4375 15C28.4375 7.57868 22.4214 1.5625 15 1.5625C7.57868 1.5625 1.5625 7.57868 1.5625 15C1.5625 22.4213 7.57868 28.4375 15 28.4375C22.4214 28.4375 28.4375 22.4213 28.4375 15ZM14.4253 15.0783C14.411 15.0466 14.4002 15.0206 14.3924 15C14.4002 14.9794 14.411 14.9535 14.4253 14.9219C14.4904 14.7779 14.5981 14.5872 14.753 14.3534C15.0621 13.8869 15.4919 13.3489 15.946 12.823C16.3958 12.3024 16.8485 11.8179 17.1904 11.4621L17.7509 10.8919C18.2432 10.4082 18.2506 9.61671 17.767 9.12418C17.2832 8.63161 16.4919 8.62442 15.9993 9.10812L15.3879 9.72983C15.0267 10.1056 14.5419 10.6242 14.0541 11.1888C13.5709 11.7483 13.063 12.3779 12.6691 12.9724C12.4724 13.2691 12.2872 13.5823 12.1473 13.8919C12.0172 14.1795 11.8751 14.573 11.8751 15.0002C11.8751 15.4271 12.0172 15.8207 12.1473 16.1082C12.2872 16.4178 12.4724 16.7309 12.6691 17.0276C13.063 17.6223 13.5709 18.2518 14.0541 18.8113C14.5419 19.376 15.0267 19.8945 15.3879 20.2703L15.9993 20.892C16.4919 21.3756 17.2832 21.3685 17.767 20.8759C18.2506 20.3834 18.2432 19.5919 17.7509 19.1082L17.1904 18.538C16.8485 18.1821 16.3958 17.6978 15.946 17.1772C15.4919 16.6513 15.0621 16.1132 14.753 15.6467C14.5981 15.4129 14.4904 15.2223 14.4253 15.0783Z" fill="#F02731"/>
</svg>
