<svg width="20" height="20" viewBox="0 0 20 20" fill="none" xmlns="http://www.w3.org/2000/svg">
<path d="M10.6243 6.66797C10.6243 6.32279 10.3445 6.04297 9.99935 6.04297C9.65417 6.04297 9.37435 6.32279 9.37435 6.66797V10.0013C9.37435 10.1671 9.4402 10.326 9.55741 10.4432L11.2241 12.1099C11.4682 12.354 11.8639 12.354 12.108 12.1099C12.352 11.8658 12.352 11.4701 12.108 11.226L10.6243 9.74242V6.66797Z" fill="#DA232D"/>
<path fill-rule="evenodd" clip-rule="evenodd" d="M9.99935 1.04297C5.0518 1.04297 1.04102 5.05375 1.04102 10.0013C1.04102 14.9489 5.0518 18.9596 9.99935 18.9596C14.9469 18.9596 18.9577 14.9489 18.9577 10.0013C18.9577 5.05375 14.9469 1.04297 9.99935 1.04297ZM2.29102 10.0013C2.29102 5.74411 5.74215 2.29297 9.99935 2.29297C14.2565 2.29297 17.7077 5.74411 17.7077 10.0013C17.7077 14.2585 14.2565 17.7096 9.99935 17.7096C5.74215 17.7096 2.29102 14.2585 2.29102 10.0013Z" fill="#DA232D"/>
</svg>
