<svg width="18" height="18" viewBox="0 0 18 18" fill="none" xmlns="http://www.w3.org/2000/svg">
<path fill-rule="evenodd" clip-rule="evenodd" d="M3.9375 7.5C3.9375 3.87563 6.87563 0.9375 10.5 0.9375C14.1244 0.9375 17.0625 3.87563 17.0625 7.5C17.0625 11.1244 14.1244 14.0625 10.5 14.0625C6.87563 14.0625 3.9375 11.1244 3.9375 7.5ZM9.9375 4.75019C9.62687 4.82107 9.3407 4.95036 9.10184 5.12951C8.72384 5.413 8.4375 5.84759 8.4375 6.375C8.4375 6.90241 8.72384 7.337 9.10184 7.6205C9.47966 7.90386 9.97585 8.0625 10.5 8.0625C10.8043 8.0625 11.0581 8.1557 11.2232 8.27951C11.3881 8.40318 11.4375 8.53109 11.4375 8.625C11.4375 8.71891 11.3881 8.84682 11.2232 8.9705C11.0581 9.0943 10.8043 9.1875 10.5 9.1875C9.99871 9.1875 9.6821 8.94677 9.59418 8.76021L8.57652 9.23979C8.82394 9.7648 9.346 10.1136 9.9375 10.2491V10.875H11.0625V10.2498C11.3731 10.1789 11.6593 10.0496 11.8982 9.8705C12.2762 9.587 12.5625 9.15241 12.5625 8.625C12.5625 8.09759 12.2762 7.663 11.8982 7.37951C11.5203 7.09614 11.0242 6.9375 10.5 6.9375C10.1957 6.9375 9.94191 6.8443 9.77684 6.7205C9.61195 6.59682 9.5625 6.46891 9.5625 6.375C9.5625 6.28109 9.61195 6.15318 9.77684 6.02951C9.94191 5.9057 10.1957 5.8125 10.5 5.8125C11.0013 5.8125 11.3179 6.05323 11.4058 6.23979L12.4235 5.76021C12.1761 5.2352 11.654 4.88637 11.0625 4.75088V4.125H9.9375V4.75019Z" fill="white"/>
<path d="M2.8125 7.49985C2.8125 6.88019 2.88582 6.27765 3.02425 5.70044C1.74029 6.89833 0.9375 8.60534 0.9375 10.4999C0.9375 14.1242 3.87563 17.0624 7.5 17.0624C9.39451 17.0624 11.1015 16.2596 12.2994 14.9756C11.7222 15.114 11.1197 15.1874 10.5 15.1874C6.25431 15.1874 2.8125 11.7455 2.8125 7.49985Z" fill="white"/>
</svg>
