<svg width="20" height="20" viewBox="0 0 20 20" fill="none" xmlns="http://www.w3.org/2000/svg">
<path d="M9.16667 18.3341C8.24619 18.3341 7.5 17.5879 7.5 16.6674V9.16861C7.5 8.24769 8.24691 7.5013 9.16783 7.50195L16.6678 7.50725C17.5878 7.5079 18.3333 8.2539 18.3333 9.17395V16.6674C18.3333 17.5879 17.5872 18.3341 16.6667 18.3341H9.16667Z" stroke="white" stroke-width="1.25" stroke-linecap="round" stroke-linejoin="round"/>
<path d="M14.1667 7.02382V3.34091C14.1667 2.42088 13.4212 1.67488 12.5012 1.67424L3.33458 1.66785C2.41365 1.66721 1.66675 2.41358 1.66675 3.33451V12.5C1.66675 13.4205 2.41294 14.1667 3.33341 14.1667H7.02389" stroke="white" stroke-width="1.25" stroke-linejoin="round"/>
<path opacity="0.4" d="M1.66675 12.5V3.33451C1.66675 2.41358 2.41365 1.66721 3.33458 1.66785L12.5012 1.67424C13.4212 1.67488 14.1667 2.42089 14.1667 3.34091V7.50001H9.16675C8.24627 7.50001 7.50008 8.24621 7.50008 9.16668V14.1667H3.33341C2.41294 14.1667 1.66675 13.4205 1.66675 12.5Z" fill="white"/>
</svg>
