<svg width="16" height="16" viewBox="0 0 16 16" fill="none" xmlns="http://www.w3.org/2000/svg">
<path opacity="0.4" d="M10.7033 5.5C11.615 5.49999 12.3499 5.49997 12.9279 5.57768C13.5279 5.65836 14.0331 5.83095 14.4345 6.23223C14.8357 6.63351 15.0083 7.13873 15.089 7.73887C15.1667 8.3168 15.1667 9.05167 15.1667 9.9634V10.7033C15.1667 11.615 15.1667 12.3499 15.089 12.9279C15.0083 13.5279 14.8357 14.0331 14.4345 14.4345C14.0331 14.8357 13.5279 15.0083 12.9279 15.089C12.3499 15.1667 11.615 15.1667 10.7033 15.1667H9.9634C9.05167 15.1667 8.3168 15.1667 7.7388 15.089C7.13873 15.0083 6.63351 14.8357 6.23223 14.4344C5.83095 14.0331 5.65836 13.5279 5.57768 12.9279C5.49997 12.3499 5.49999 11.615 5.5 10.7033V9.9634C5.49999 9.05167 5.49997 8.3168 5.57768 7.7388C5.65836 7.13873 5.83095 6.63351 6.23223 6.23223C6.63351 5.83095 7.13873 5.65836 7.73887 5.57768C8.3168 5.49997 9.05167 5.49999 9.9634 5.5H10.7033Z" fill="#F02731"/>
<path d="M4.4987 9.90525C4.49864 9.04245 4.49858 8.25118 4.5853 7.60625C4.68083 6.89565 4.90559 6.14401 5.52382 5.52578C6.14206 4.90754 6.8937 4.68278 7.6043 4.58725C8.24923 4.50054 9.0405 4.50059 9.9033 4.50065H11.3941C11.5914 4.50065 11.6901 4.50065 11.7494 4.43678C11.8088 4.3729 11.8017 4.27678 11.7876 4.08454C11.7752 3.91762 11.7595 3.75993 11.7394 3.61094C11.6532 2.97124 11.4808 2.43965 11.1132 1.99174C10.9816 1.8314 10.8346 1.68437 10.6743 1.55278C10.2016 1.1649 9.63583 0.994351 8.94856 0.913104C8.27903 0.833971 7.43283 0.833978 6.36465 0.833984H6.29942C5.23125 0.833978 4.38501 0.833971 3.71553 0.913104C3.02822 0.994344 2.46242 1.1649 1.98978 1.55278C1.82944 1.68437 1.68242 1.8314 1.55083 1.99174C1.16295 2.46437 0.992398 3.03017 0.911151 3.71748C0.832018 4.38696 0.832025 5.2332 0.832031 6.30137V6.36659C0.832025 7.43478 0.832018 8.28098 0.911151 8.95045C0.992391 9.63778 1.16295 10.2036 1.55083 10.6762C1.68242 10.8366 1.82944 10.9836 1.98978 11.1152C2.4377 11.4828 2.96929 11.6552 3.60899 11.7414C3.75798 11.7614 3.91567 11.7772 4.08259 11.7895C4.27483 11.8037 4.37095 11.8107 4.43482 11.7514C4.4987 11.6921 4.4987 11.5934 4.4987 11.3961V9.90525Z" fill="#F02731"/>
</svg>
