<svg width="22" height="22" viewBox="0 0 22 22" fill="none" xmlns="http://www.w3.org/2000/svg">
<path d="M6.30723 10.4574C6.188 11.3442 6.18807 12.4322 6.18815 13.6185V15.6684C6.18815 15.9397 6.18815 16.0754 6.10032 16.157C6.01249 16.2385 5.88033 16.2288 5.616 16.2093C5.38649 16.1924 5.16966 16.1708 4.9648 16.1432C4.08522 16.0247 3.35428 15.7876 2.7384 15.2822C2.51793 15.1012 2.31577 14.8991 2.13483 14.6786C1.6015 14.0287 1.36698 13.2508 1.25528 12.3057C1.14647 11.3852 1.14647 10.2216 1.14648 8.75285V8.66316C1.14647 7.19442 1.14647 6.03085 1.25528 5.11032C1.36698 4.16526 1.6015 3.38729 2.13484 2.73742C2.31577 2.51695 2.51793 2.31479 2.7384 2.13386C3.38827 1.60053 4.16624 1.36601 5.1113 1.2543C6.03183 1.14549 7.19541 1.1455 8.66414 1.14551H8.75383C10.2226 1.1455 11.3861 1.14549 12.3067 1.2543C13.2517 1.36601 14.0297 1.60053 14.6796 2.13386C14.9 2.31479 15.1022 2.51695 15.2831 2.73742C15.7886 3.3533 16.0257 4.08424 16.1442 4.96383C16.1718 5.16868 16.1934 5.38551 16.2103 5.61503C16.2298 5.87936 16.2395 6.01152 16.1579 6.09935C16.0763 6.18717 15.9407 6.18717 15.6694 6.18717L13.6195 6.18717C12.4331 6.18709 11.3452 6.18702 10.4583 6.30625C9.48131 6.43761 8.44777 6.74665 7.5977 7.59672C6.74763 8.44679 6.43858 9.48033 6.30723 10.4574Z" fill="white"/>
<path d="M17.7764 7.66899C16.9817 7.56214 15.9713 7.56216 14.7176 7.56218H13.7004C12.4467 7.56216 11.4363 7.56214 10.6415 7.66899C9.81645 7.77992 9.12173 8.01724 8.56997 8.569C8.01822 9.12075 7.7809 9.81547 7.66997 10.6406C7.56312 11.4353 7.56313 12.4457 7.56315 13.6994V14.7166C7.56313 15.9703 7.56312 16.9807 7.66997 17.7754C7.7809 18.6005 8.01822 19.2953 8.56997 19.847C9.12173 20.3988 9.81645 20.6361 10.6415 20.747C11.4363 20.8539 12.4467 20.8539 13.7004 20.8538H14.7176C15.9712 20.8539 16.9817 20.8539 17.7764 20.747C18.6015 20.6361 19.2962 20.3988 19.848 19.847C20.3998 19.2953 20.6371 18.6005 20.748 17.7754C20.8549 16.9808 20.8548 15.9703 20.8548 14.7168V13.6994C20.8548 12.4458 20.8549 11.4353 20.748 10.6406C20.6371 9.81547 20.3998 9.12075 19.848 8.569C19.2962 8.01724 18.6015 7.77992 17.7764 7.66899Z" fill="white"/>
</svg>
