<svg width="40" height="40" viewBox="0 0 40 40" fill="none" xmlns="http://www.w3.org/2000/svg">
<path fill-rule="evenodd" clip-rule="evenodd" d="M5 36.2487C5 35.3282 5.7462 34.582 6.66667 34.582H33.3333C34.2538 34.582 35 35.3282 35 36.2487C35 37.1692 34.2538 37.9154 33.3333 37.9154H6.66667C5.7462 37.9154 5 37.1692 5 36.2487Z" fill="#F02731"/>
<path d="M25.8965 4.98203C26.4091 4.46926 26.6656 4.2129 26.6241 3.88838C26.5826 3.56386 26.2948 3.3946 25.7188 3.05603C24.773 2.50006 23.8053 2.15673 22.727 2.0949C22.2682 2.0686 21.8066 2.08268 21.3476 2.1366C19.807 2.31761 18.4761 3.0524 17.0731 4.17066C15.7009 5.2643 14.1388 6.82641 12.158 8.80728L8.80925 12.156C6.82838 14.1369 5.26625 15.699 4.17262 17.0712C3.05435 18.4742 2.31957 19.805 2.13855 21.3457C2.08463 21.8047 2.07055 22.2662 2.09685 22.725C2.15868 23.8034 2.50202 24.771 3.058 25.7169C3.39655 26.2929 3.56583 26.5807 3.89035 26.6222C4.21485 26.6637 4.47123 26.4072 4.984 25.8945L25.8965 4.98203Z" fill="#F02731"/>
<path fill-rule="evenodd" clip-rule="evenodd" d="M6.47159 27.9443C6.03845 28.3775 5.82189 28.5942 5.82032 28.868C5.81875 29.1418 6.03015 29.3582 6.45295 29.7908C7.00765 30.3583 7.61234 30.963 8.26359 31.6143L8.38704 31.7377C10.2433 33.594 11.7215 35.0722 13.0402 36.0927C14.401 37.1457 15.7196 37.8153 17.2743 37.9045C17.7331 37.9308 18.1946 37.9167 18.6536 37.8628C20.1943 37.6818 21.5251 36.947 22.9281 35.8287C24.3003 34.7352 25.8625 33.173 27.8431 31.1922L31.1921 27.8433C33.173 25.8625 34.7351 24.3003 35.8286 22.9282C36.947 21.5252 37.6818 20.1943 37.8628 18.6537C37.9166 18.1947 37.9308 17.7332 37.9045 17.2743C37.8153 15.7196 37.1456 14.4011 36.0926 13.0402C35.0721 11.7215 33.5941 10.2434 31.7376 8.38705L31.6143 8.26362C30.9631 7.6124 30.3583 7.00769 29.7908 6.45295C29.3581 6.03015 29.1418 5.81875 28.868 5.82032C28.594 5.8219 28.3775 6.03847 27.9443 6.47159L6.47159 27.9443ZM31.9155 17.5413C32.4036 18.0295 32.4036 18.8208 31.9155 19.309L28.2383 22.9862C27.7501 23.4743 26.9588 23.4743 26.4706 22.9862C25.9825 22.498 25.9825 21.7065 26.4706 21.2183L30.1476 17.5413C30.6358 17.0532 31.4273 17.0532 31.9155 17.5413ZM25.0866 24.3702C25.5746 24.8583 25.5746 25.6498 25.0866 26.138L23.5106 27.7138C23.0225 28.202 22.231 28.202 21.743 27.7138C21.2548 27.2257 21.2548 26.4342 21.743 25.946L23.3188 24.3702C23.807 23.882 24.5985 23.882 25.0866 24.3702Z" fill="#F02731"/>
</svg>
