<svg width="33" height="33" viewBox="0 0 33 33" fill="none" xmlns="http://www.w3.org/2000/svg">
<path fill-rule="evenodd" clip-rule="evenodd" d="M5.38672 27.2612C5.38672 26.5177 5.98942 25.915 6.73287 25.915H25.579C26.3225 25.915 26.9252 26.5177 26.9252 27.2612C26.9252 28.0047 26.3225 28.6073 25.579 28.6073H6.73287C5.98942 28.6073 5.38672 28.0047 5.38672 27.2612Z" fill="white"/>
<path d="M16.1547 3.70203C16.5372 3.70203 16.8868 3.91808 17.0579 4.26013L20.7305 11.6053C20.9407 12.026 20.8326 12.5363 20.4698 12.8356C20.0937 13.1459 19.8567 13.6121 19.8567 14.1347C19.8567 15.0641 20.6101 15.8174 21.5394 15.8174C22.4687 15.8174 23.2221 15.0641 23.2221 14.1347C23.2221 13.9716 23.1992 13.8154 23.1569 13.6685C23.0306 13.2289 23.2156 12.7593 23.6079 12.5239L29.0969 9.23052C29.4543 9.01602 29.9069 9.04332 30.2361 9.29924C30.5652 9.55516 30.7032 9.98704 30.5834 10.3864L26.5449 23.8479C26.4167 24.2749 26.0237 24.5674 25.5778 24.5674H6.73172C6.28586 24.5674 5.8928 24.2749 5.76469 23.8479L1.72623 10.3864C1.60643 9.98704 1.7444 9.55516 2.07352 9.29924C2.40264 9.04332 2.8552 9.01602 3.2127 9.23052L8.70174 12.5239C9.09397 12.7593 9.27897 13.2289 9.15263 13.6685C9.11043 13.8154 9.08749 13.9716 9.08749 14.1347C9.08749 15.0641 9.84085 15.8174 10.7702 15.8174C11.6995 15.8174 12.4529 15.0641 12.4529 14.1347C12.4529 13.6121 12.2159 13.1459 11.8398 12.8356C11.4769 12.5363 11.3688 12.026 11.5792 11.6053L15.2517 4.26013C15.4228 3.91808 15.7724 3.70203 16.1547 3.70203Z" fill="white"/>
</svg>
