<svg width="20" height="20" viewBox="0 0 20 20" fill="none" xmlns="http://www.w3.org/2000/svg">
<path fill-rule="evenodd" clip-rule="evenodd" d="M12.4176 1.53956C12.0376 1.2561 11.5949 1.11239 11.124 1.07028C10.8351 1.04443 10.4886 1.04405 10.1041 1.04363C10.0701 1.04359 10.0358 1.04356 10.0013 1.0435C9.96664 1.04345 9.93196 1.04335 9.89727 1.04326C9.56788 1.04239 9.23753 1.04152 8.90957 1.07138C8.42809 1.11521 7.97657 1.26485 7.59181 1.56002C7.30731 1.77827 7.11286 2.04469 6.94861 2.33259C6.79633 2.59949 6.64473 2.9321 6.4726 3.30977L6.17637 3.95964L2.5013 3.96022C2.04106 3.96022 1.66797 4.33332 1.66797 4.79356C1.66797 5.25379 2.04106 5.62689 2.5013 5.62689H3.22596L3.66899 13.0391C3.73149 14.0849 3.78109 14.9148 3.88428 15.5777C3.9901 16.2575 4.16024 16.8237 4.50153 17.3191C4.81375 17.7722 5.216 18.1547 5.68264 18.4421C6.19273 18.7564 6.76255 18.8938 7.4408 18.9595L12.5456 18.9596C13.223 18.894 13.7922 18.7569 14.302 18.4432C14.7683 18.1563 15.1704 17.7745 15.4828 17.3221C15.8241 16.8276 15.9948 16.2622 16.1014 15.5833C16.2054 14.9213 16.2561 14.0926 16.32 13.0483L16.7743 5.62689H17.5013C17.9615 5.62689 18.3346 5.25379 18.3346 4.79356C18.3346 4.33332 17.9615 3.96022 17.5013 3.96022L13.9029 3.95964L13.5476 3.22664C13.371 2.86238 13.2154 2.54128 13.0608 2.28374C12.894 2.00582 12.6987 1.7492 12.4176 1.53956ZM12.0507 3.95964C11.862 3.57048 11.7412 3.32377 11.6318 3.14147C11.4716 2.87453 11.2796 2.75751 10.9756 2.73032C10.7595 2.71099 10.4779 2.71022 10.0301 2.71022C9.57106 2.71022 9.28211 2.71102 9.06067 2.73118C8.74892 2.75956 8.55454 2.88104 8.39623 3.15852C8.29253 3.34027 8.17965 3.58352 8.00804 3.95964H12.0507ZM7.29297 14.3438C7.29297 14.6889 7.57279 14.9688 7.91797 14.9688C8.26315 14.9688 8.54297 14.6889 8.54297 14.3438V9.34375C8.54297 8.99857 8.26315 8.71875 7.91797 8.71875C7.57279 8.71875 7.29297 8.99857 7.29297 9.34375L7.29297 14.3438ZM12.0846 8.71875C12.4298 8.71875 12.7096 8.99857 12.7096 9.34375V14.3438C12.7096 14.6889 12.4298 14.9688 12.0846 14.9688C11.7395 14.9688 11.4596 14.6889 11.4596 14.3438V9.34375C11.4596 8.99857 11.7395 8.71875 12.0846 8.71875Z" fill="white"/>
</svg>
