<svg width="30" height="30" viewBox="0 0 30 30" fill="none" xmlns="http://www.w3.org/2000/svg">
<rect width="30" height="30" rx="15" fill="white" fill-opacity="0.1"/>
<path fill-rule="evenodd" clip-rule="evenodd" d="M20.5289 17.6635C20.473 18.5773 20.4286 19.3025 20.3376 19.8816C20.2443 20.4757 20.095 20.9704 19.7962 21.4031C19.5229 21.7989 19.1711 22.133 18.7631 22.3841C18.3171 22.6585 17.819 22.7786 17.2262 22.8359L12.7596 22.8359C12.1661 22.7783 11.6675 22.6581 11.2212 22.3831C10.8129 22.1316 10.4609 21.7969 10.1877 21.4004C9.88907 20.967 9.7402 20.4716 9.6476 19.8768C9.55731 19.2967 9.51392 18.5705 9.45922 17.6554L8.98438 9.71094H21.0156L20.5289 17.6635ZM13.1771 19.3439C12.8751 19.3439 12.6302 19.0991 12.6302 18.797V14.422C12.6302 14.12 12.8751 13.8751 13.1771 13.8751C13.4791 13.8751 13.724 14.12 13.724 14.422V18.797C13.724 19.0991 13.4791 19.3439 13.1771 19.3439ZM17.3698 14.422C17.3698 14.12 17.1249 13.8751 16.8229 13.8751C16.5209 13.8751 16.276 14.12 16.276 14.422V18.797C16.276 19.0991 16.5209 19.3439 16.8229 19.3439C17.1249 19.3439 17.3698 19.0991 17.3698 18.797V14.422Z" fill="#F02731"/>
<path fill-rule="evenodd" clip-rule="evenodd" d="M15.9811 7.18796C16.3932 7.22481 16.7804 7.35055 17.113 7.59858C17.3589 7.78201 17.5298 8.00655 17.6758 8.24974C17.811 8.47509 17.9472 8.75605 18.1017 9.07477L18.4129 9.71665H21.5612C21.9639 9.71665 22.2904 10.0431 22.2904 10.4458C22.2904 10.8485 21.9639 11.175 21.5612 11.175C17.1861 11.175 12.8113 11.175 8.4362 11.175C8.03349 11.175 7.70703 10.8485 7.70703 10.4458C7.70703 10.0431 8.03349 9.71665 8.4362 9.71665H11.6516L11.9111 9.14751C12.0617 8.81705 12.1943 8.52601 12.3276 8.29248C12.4713 8.04057 12.6415 7.80746 12.8904 7.61648C13.2271 7.35821 13.6221 7.22727 14.0434 7.18892C14.3606 7.16004 14.6803 7.16402 14.9987 7.16453C15.3712 7.16513 15.706 7.16335 15.9811 7.18796ZM13.2544 9.71665H16.7922C16.6269 9.37585 16.5212 9.15984 16.4254 9.00025C16.2852 8.76667 16.1172 8.66428 15.8512 8.64049C15.6621 8.62358 15.4157 8.6229 15.0239 8.6229C14.6222 8.6229 14.3694 8.6236 14.1756 8.64124C13.9028 8.66608 13.7328 8.77237 13.5943 9.01517C13.5035 9.17428 13.4046 9.38727 13.2544 9.71665Z" fill="#F02731"/>
</svg>
