<svg width="56" height="56" viewBox="0 0 56 56" fill="none" xmlns="http://www.w3.org/2000/svg">
<path fill-rule="evenodd" clip-rule="evenodd" d="M33.3589 6.45692C33.6401 5.5963 34.5312 5.09218 35.4137 5.29457L44.2015 7.31013C46.5721 7.69891 48.5515 9.39076 49.2583 11.7329C50.4074 15.5411 51.7241 20.4764 52.4724 25.491C53.2151 30.4689 53.4272 35.7054 52.2276 40.0342C52.2132 40.0867 52.1962 40.1385 52.1768 40.1896C51.3368 42.3955 49.6244 44.9489 47.6893 46.9539C46.7135 47.9649 45.6337 48.8864 44.5188 49.5661C43.4252 50.2329 42.1617 50.7502 40.8557 50.7502C40.2906 50.7502 39.7602 50.4772 39.4317 50.0176L33.7255 42.0285C35.8619 41.6227 38.0352 40.9918 40.2864 40.1364C41.1898 39.7929 41.6437 38.7821 41.3004 37.8786C40.957 36.9754 39.9462 36.5213 39.0427 36.8646C31.2767 39.8162 24.7191 39.8162 16.9529 36.8646C16.0495 36.5213 15.0387 36.9754 14.6954 37.8786C14.352 38.7821 14.806 39.7929 15.7095 40.1364C17.9757 40.9976 20.1632 41.6311 22.3136 42.0369L16.6131 50.0176C16.2847 50.4772 15.7543 50.7502 15.1891 50.7502C13.8844 50.7502 12.6184 50.2336 11.5214 49.5682C10.4025 48.8894 9.31635 47.9691 8.33385 46.9583C6.38612 44.9549 4.65757 42.4002 3.81579 40.1896C3.79638 40.1385 3.77937 40.0867 3.76481 40.0342C2.56531 35.7054 2.77734 30.4689 3.52014 25.491C4.26837 20.4764 5.58502 15.5411 6.73428 11.7329C7.44119 9.39037 9.42116 7.69833 11.7922 7.30994L20.6335 5.29415C21.5192 5.0922 22.4122 5.60166 22.6892 6.46693L24.6092 12.4658C25.7485 12.3229 26.8702 12.2503 27.9974 12.2503C29.1279 12.2503 30.2528 12.3234 31.3959 12.4671L33.3589 6.45692ZM17.4974 19.8333C15.5644 19.8333 13.9974 21.4003 13.9974 23.3333C13.9974 25.2663 15.5644 26.8333 17.4974 26.8333H17.5209C19.4539 26.8333 21.0209 25.2663 21.0209 23.3333C21.0209 21.4003 19.4539 19.8333 17.5209 19.8333H17.4974ZM38.4738 19.8333C36.5409 19.8333 34.9738 21.4003 34.9738 23.3333C34.9738 25.2663 36.5409 26.8333 38.4738 26.8333H38.4974C40.4303 26.8333 41.9974 25.2663 41.9974 23.3333C41.9974 21.4003 40.4303 19.8333 38.4974 19.8333H38.4738Z" fill="#A11B1B"/>
</svg>
