<svg width="60" height="60" viewBox="0 0 60 60" fill="none" xmlns="http://www.w3.org/2000/svg">
<path fill-rule="evenodd" clip-rule="evenodd" d="M13.1196 3.33594C9.55721 3.33338 6.66797 6.22051 6.66797 9.78288V47.289C6.66797 50.8496 9.55437 53.7359 13.1149 53.7359H45.9357C49.4963 53.7359 52.3826 50.8496 52.3826 47.289V9.80663C52.3826 6.24789 49.4991 3.36227 45.9404 3.35969L13.1196 3.33594ZM17.8036 20.329C16.5089 20.329 15.4592 21.3786 15.4592 22.6733C15.4592 23.9682 16.5089 25.0177 17.8036 25.0177H38.9027C40.1974 25.0177 41.247 23.9682 41.247 22.6733C41.247 21.3786 40.1974 20.329 38.9027 20.329H17.8036ZM17.8036 32.0508C16.5089 32.0508 15.4592 33.1003 15.4592 34.3951C15.4592 35.6899 16.5089 36.7395 17.8036 36.7395H28.4835C29.778 36.7395 30.8278 35.6899 30.8278 34.3951C30.8278 33.1003 29.778 32.0508 28.4835 32.0508H17.8036Z" fill="#F02731"/>
</svg>
