<svg width="22" height="22" viewBox="0 0 22 22" fill="none" xmlns="http://www.w3.org/2000/svg">
<path fill-rule="evenodd" clip-rule="evenodd" d="M4.8109 1.22266C3.5047 1.22172 2.44531 2.28033 2.44531 3.58653V17.3388C2.44531 18.6443 3.50366 19.7027 4.80919 19.7027H16.8435C18.149 19.7027 19.2074 18.6443 19.2074 17.3388V3.59524C19.2074 2.29037 18.1501 1.23231 16.8452 1.23136L4.8109 1.22266ZM6.52837 7.45344C6.05364 7.45344 5.66878 7.83829 5.66878 8.31304C5.66878 8.78781 6.05364 9.17265 6.52837 9.17265H14.2647C14.7395 9.17265 15.1243 8.78781 15.1243 8.31304C15.1243 7.83829 14.7395 7.45344 14.2647 7.45344H6.52837ZM6.52837 11.7514C6.05364 11.7514 5.66878 12.1363 5.66878 12.611C5.66878 13.0858 6.05364 13.4706 6.52837 13.4706H10.4443C10.919 13.4706 11.3039 13.0858 11.3039 12.611C11.3039 12.1363 10.919 11.7514 10.4443 11.7514H6.52837Z" fill="white"/>
</svg>
