<svg width="25" height="25" viewBox="0 0 25 25" fill="none" xmlns="http://www.w3.org/2000/svg">
<rect width="24" height="24" transform="translate(0.164062 0.164062)" fill="#212121"/>
<path opacity="0.4" d="M11.6522 11.2693L14.2692 8.65234L15.6709 10.0541L13.054 12.671C12.5313 13.1937 12.27 13.455 11.9516 13.633C11.6331 13.8109 10.8812 13.9899 10.1621 14.1611C10.3333 13.4421 10.5123 12.6902 10.6903 12.3717C10.8682 12.0533 11.1296 11.7919 11.6522 11.2693Z" fill="white"/>
<path d="M12.1641 7.28516H12.1356C11.0991 7.28515 10.2829 7.28514 9.64523 7.37088C8.99094 7.45884 8.4687 7.64321 8.05791 8.054C7.64711 8.46479 7.46275 8.98704 7.37478 9.64133C7.28905 10.279 7.28906 11.0952 7.28906 12.1317V12.1886C7.28906 13.2251 7.28905 14.0413 7.37478 14.679C7.46275 15.3333 7.64711 15.8555 8.05791 16.2663C8.4687 16.6771 8.99094 16.8615 9.64523 16.9494C10.2829 17.0352 11.0991 17.0352 12.1356 17.0352H12.1925C13.2291 17.0352 14.0452 17.0352 14.6829 16.9494C15.3372 16.8615 15.8594 16.6771 16.2702 16.2663C16.681 15.8555 16.8654 15.3333 16.9533 14.679C17.0391 14.0413 17.0391 13.2251 17.0391 12.1886V12.1602C17.0391 11.9531 16.8712 11.7852 16.6641 11.7852C16.457 11.7852 16.2891 11.9531 16.2891 12.1602C16.2891 13.2314 16.2883 13.9971 16.21 14.5791C16.1332 15.1502 15.9881 15.4878 15.7399 15.736C15.4917 15.9842 15.1541 16.1293 14.583 16.2061C14.001 16.2844 13.2353 16.2852 12.1641 16.2852C11.0928 16.2852 10.3271 16.2844 9.74517 16.2061C9.17405 16.1293 8.83645 15.9842 8.58824 15.736C8.34002 15.4878 8.19488 15.1502 8.1181 14.5791C8.03986 13.9971 8.03906 13.2314 8.03906 12.1602C8.03906 11.0889 8.03986 10.3232 8.1181 9.74126C8.19488 9.17014 8.34002 8.83255 8.58824 8.58433C8.83645 8.33611 9.17405 8.19097 9.74517 8.11419C10.3271 8.03595 11.0928 8.03516 12.1641 8.03516C12.3712 8.03516 12.5391 7.86726 12.5391 7.66016C12.5391 7.45305 12.3712 7.28516 12.1641 7.28516Z" fill="white"/>
<path fill-rule="evenodd" clip-rule="evenodd" d="M16.6389 7.68531C16.1054 7.15177 15.2404 7.15177 14.7068 7.68531L11.3488 11.0433C10.8645 11.5275 10.5685 11.8235 10.3649 12.1878C10.2513 12.391 10.1521 12.6992 10.0644 13.0147C9.97406 13.3392 9.88517 13.7125 9.80031 14.0689L9.79927 14.0733C9.76911 14.2 9.80682 14.3332 9.89891 14.4253C9.99099 14.5174 10.1242 14.5551 10.2509 14.525L10.2553 14.5239C10.6117 14.4391 10.9851 14.3502 11.3096 14.2599C11.625 14.1721 11.9332 14.0729 12.1364 13.9593C12.5008 13.7557 12.7967 13.4597 13.2809 12.9754L16.6389 9.6174C17.1725 9.08386 17.1725 8.21884 16.6389 7.68531ZM15.2372 8.21564C15.4778 7.975 15.868 7.975 16.1086 8.21564C16.3492 8.45627 16.3492 8.84643 16.1086 9.08707L15.6729 9.52278L14.8014 8.65135L15.2372 8.21564ZM14.2711 9.18168L15.1425 10.0531L12.7908 12.4049C12.2537 12.9419 12.0332 13.1579 11.7706 13.3046C11.6554 13.369 11.4284 13.4483 11.1085 13.5373C10.9718 13.5754 10.8251 13.6134 10.6729 13.6513C10.7109 13.4991 10.7489 13.3524 10.7869 13.2157C10.8759 12.8958 10.9552 12.6689 11.0196 12.5536C11.1663 12.2911 11.3823 12.0705 11.9193 11.5334L14.2711 9.18168Z" fill="white"/>
<path d="M2.34588 0.164062H0.164062V2.34588" stroke="white" stroke-width="0.327273"/>
<path d="M21.9822 0.164062H24.1641V2.34588" stroke="white" stroke-width="0.327273"/>
<path d="M2.34588 24.1641H0.164062V21.9822" stroke="white" stroke-width="0.327273"/>
<path d="M21.9822 24.1641H24.1641V21.9822" stroke="white" stroke-width="0.327273"/>
</svg>
