<svg width="20" height="20" viewBox="0 0 20 20" fill="none" xmlns="http://www.w3.org/2000/svg">
<g clip-path="url(#clip0_4244_8741)">
<path d="M3.75 3.125L16.25 16.875" stroke="white" stroke-opacity="0.54" stroke-width="1.25" stroke-linecap="round" stroke-linejoin="round"/>
<path d="M12.1026 12.3125C11.4893 12.8701 10.6796 13.1612 9.8517 13.1218C9.02376 13.0824 8.24538 12.7157 7.6878 12.1023C7.13023 11.489 6.83913 10.6793 6.87854 9.8514C6.91795 9.02345 7.28465 8.24508 7.89796 7.6875" stroke="white" stroke-opacity="0.54" stroke-width="1.25" stroke-linecap="round" stroke-linejoin="round"/>
<path d="M10.5898 6.92969C11.2542 7.05691 11.8594 7.39628 12.3144 7.89681C12.7694 8.39735 13.0498 9.03201 13.1133 9.70547" stroke="white" stroke-opacity="0.54" stroke-width="1.25" stroke-linecap="round" stroke-linejoin="round"/>
<path d="M16.2961 13.2109C17.9992 11.6859 18.7484 10 18.7484 10C18.7484 10 16.2484 4.37501 9.99844 4.37501C9.4572 4.37427 8.91683 4.41817 8.38281 4.50626" stroke="white" stroke-opacity="0.54" stroke-width="1.25" stroke-linecap="round" stroke-linejoin="round"/>
<path d="M5.78125 5.35938C2.59609 6.97187 1.25 10 1.25 10C1.25 10 3.75 15.625 10 15.625C11.4645 15.6365 12.9106 15.2991 14.2188 14.6406" stroke="white" stroke-opacity="0.54" stroke-width="1.25" stroke-linecap="round" stroke-linejoin="round"/>
</g>
<defs>
<clipPath id="clip0_4244_8741">
<rect width="20" height="20" fill="white"/>
</clipPath>
</defs>
</svg>
