<svg width="20" height="20" viewBox="0 0 20 20" fill="none" xmlns="http://www.w3.org/2000/svg">
<path d="M13.2681 5.62623C12.5385 5.62617 11.8896 5.62612 11.3658 5.69657C10.7964 5.77314 10.2215 5.94971 9.75163 6.41974C9.28175 6.88977 9.10523 7.46486 9.02868 8.03441C8.95825 8.55841 8.95831 9.20746 8.95837 9.93733L8.95837 10.6278H8.33337C7.75808 10.6278 7.29171 11.0943 7.29171 11.6698C7.29171 12.2453 7.75808 12.7118 8.33337 12.7118H8.95837V17.7097C8.95837 18.1049 8.95837 18.3025 8.83446 18.4249C8.71055 18.5473 8.51446 18.5448 8.12229 18.5399C7.13109 18.5273 6.28816 18.4925 5.57339 18.3964C4.42618 18.2421 3.51597 17.9195 2.8008 17.2041C2.08564 16.4887 1.76311 15.5782 1.60887 14.4306C1.45836 13.3108 1.45836 11.8764 1.45837 10.0503V9.95495C1.45836 8.12879 1.45836 6.69443 1.60887 5.57457C1.76311 4.42699 2.08564 3.51649 2.8008 2.8011C3.51597 2.08571 4.42618 1.76308 5.57339 1.60879C6.6929 1.45823 8.12682 1.45824 9.95239 1.45825H10.0477C11.8733 1.45824 13.3072 1.45823 14.4267 1.60879C15.5739 1.76308 16.4841 2.08571 17.1993 2.8011C17.9144 3.51649 18.237 4.42699 18.3912 5.57457C18.5417 6.69443 18.5417 8.1288 18.5417 9.95495V10.0503C18.5417 11.8764 18.5417 13.3108 18.3912 14.4306C18.237 15.5782 17.9144 16.4887 17.1993 17.2041C16.4841 17.9195 15.5739 18.2421 14.4267 18.3964C13.7119 18.4925 12.869 18.5273 11.8778 18.5399C11.4856 18.5448 11.2895 18.5473 11.1656 18.4249C11.0417 18.3025 11.0417 18.1049 11.0417 17.7097V12.7118H12.5C13.0753 12.7118 13.5417 12.2453 13.5417 11.6698C13.5417 11.0943 13.0753 10.6278 12.5 10.6278H11.0417V10.0026C11.0417 9.18723 11.0439 8.68052 11.0934 8.31209C11.1381 7.97956 11.2041 7.91388 11.2238 7.89434L11.2248 7.89334L11.2258 7.89234C11.2453 7.8727 11.311 7.80668 11.6434 7.76197C12.0117 7.71244 12.5183 7.71023 13.3334 7.71023H14.1667C14.742 7.71023 15.2084 7.24371 15.2084 6.66823C15.2084 6.09275 14.742 5.62624 14.1667 5.62624L13.2681 5.62623Z" fill="white"/>
</svg>
