<svg width="18" height="18" viewBox="0 0 18 18" fill="none" xmlns="http://www.w3.org/2000/svg">
<path d="M15.0921 2.625L12.8421 2.25L12.6571 3.35969L14.9071 3.73469L15.0921 2.625Z" fill="white"/>
<path d="M3.09321 3.7345L5.31535 3.3595L5.12814 2.25019L2.90601 2.62519L3.09321 3.7345Z" fill="white"/>
<path fill-rule="evenodd" clip-rule="evenodd" d="M3.6917 4.54001C6.99799 3.74033 11.0016 3.74033 14.3078 4.54001C15.0792 4.72657 15.6739 5.28349 15.9463 6.01074C16.3847 7.18094 16.8873 9.15324 17.0577 11.8235C17.1254 12.8839 16.4534 13.6692 15.7507 14.2174C15.1032 14.7224 14.3092 15.1199 13.7082 15.4208C13.6502 15.4498 13.5941 15.4779 13.5401 15.5051L13.0655 15.7441L11.3552 12.781H6.65514L5.03858 15.7502L4.55204 15.5051C4.47441 15.466 4.39189 15.425 4.30549 15.3821C3.71389 15.088 2.93993 14.7033 2.30263 14.2231C1.58317 13.681 0.873454 12.8949 0.94183 11.8235C1.11226 9.15324 1.61487 7.18094 2.05323 6.01074C2.32566 5.28349 2.92038 4.72657 3.6917 4.54001ZM4.83004 8.6278L4.10278 9.35505L4.89828 10.1505L5.62553 9.42329L6.35278 10.1505L7.14828 9.35505L6.42103 8.6278L7.14828 7.90054L6.35278 7.10505L5.62553 7.8323L4.89828 7.10505L4.10278 7.90054L4.83004 8.6278ZM12.5602 6.94025H11.4285V8.06525H12.5602V6.94025ZM12.9285 9.19025H14.0602V10.3153H12.9285V9.19025Z" fill="white"/>
</svg>
