<svg width="31" height="31" viewBox="0 0 31 31" fill="none" xmlns="http://www.w3.org/2000/svg">
<path d="M11.2324 19.7683C11.4699 20.0058 11.7568 20.1289 11.9862 20.1984C12.2239 20.2704 12.4755 20.3071 12.7129 20.3262C13.1868 20.3641 13.7237 20.3398 14.2237 20.2985C14.6901 20.2599 15.1624 20.203 15.5653 20.1545L15.665 20.1425C16.1163 20.0882 16.4227 20.0543 16.5918 20.0519C17.1267 20.0443 17.5542 19.6045 17.5466 19.0695C17.539 18.5345 17.0992 18.107 16.5642 18.1146C16.2685 18.1188 15.8416 18.1698 15.4338 18.2188L15.339 18.2302C14.9302 18.2794 14.4926 18.3321 14.0641 18.3675L13.9978 18.3729L20.0594 12.3113C20.4377 11.933 20.4377 11.3196 20.0594 10.9413C19.681 10.563 19.0677 10.563 18.6893 10.9413L12.6278 17.0029L12.6331 16.9366C12.6686 16.508 12.7212 16.0705 12.7705 15.6617L12.7819 15.5668C12.8309 15.1591 12.8818 14.7322 12.886 14.4364C12.8936 13.9015 12.4661 13.4616 11.9312 13.454C11.3962 13.4464 10.9563 13.8739 10.9487 14.4089C10.9463 14.578 10.9124 14.8844 10.8582 15.3357L10.8462 15.4354C10.7977 15.8383 10.7408 16.3106 10.7022 16.777C10.6609 17.277 10.6366 17.8139 10.6745 18.2878C10.6935 18.5252 10.7303 18.7768 10.8023 19.0145C10.8717 19.2439 10.9948 19.5307 11.2324 19.7683Z" fill="#F02731"/>
<path fill-rule="evenodd" clip-rule="evenodd" d="M15.4993 29.3867C23.1681 29.3867 29.3848 23.17 29.3848 15.5013C29.3848 7.8326 23.1681 1.61589 15.4993 1.61589C7.83064 1.61589 1.61393 7.8326 1.61393 15.5013C1.61393 23.17 7.83064 29.3867 15.4993 29.3867ZM27.4473 15.5013C27.4473 22.1 22.098 27.4492 15.4993 27.4492C8.9007 27.4492 3.55143 22.1 3.55143 15.5013C3.55143 8.90265 8.9007 3.55339 15.4993 3.55339C22.098 3.55339 27.4473 8.90265 27.4473 15.5013Z" fill="#F02731"/>
</svg>
