<svg width="31" height="31" viewBox="0 0 31 31" fill="none" xmlns="http://www.w3.org/2000/svg">
<path d="M19.7676 11.2317C19.5301 10.9942 19.2432 10.8711 19.0138 10.8016C18.7761 10.7296 18.5245 10.6929 18.2871 10.6738C17.8132 10.6359 17.2763 10.6602 16.7763 10.7015C16.3099 10.7401 15.8376 10.797 15.4347 10.8455L15.335 10.8575C14.8837 10.9118 14.5773 10.9457 14.4082 10.9481C13.8733 10.9557 13.4458 11.3955 13.4534 11.9305C13.461 12.4655 13.9008 12.893 14.4358 12.8854C14.7315 12.8812 15.1584 12.8302 15.5662 12.7812L15.661 12.7698C16.0698 12.7206 16.5074 12.6679 16.9359 12.6325L17.0022 12.6271L10.9406 18.6887C10.5623 19.067 10.5623 19.6804 10.9406 20.0587C11.319 20.437 11.9323 20.437 12.3107 20.0587L18.3722 13.9971L18.3669 14.0634C18.3314 14.492 18.2788 14.9295 18.2295 15.3383L18.2181 15.4332C18.1691 15.8409 18.1182 16.2678 18.114 16.5636C18.1064 17.0985 18.5339 17.5384 19.0688 17.546C19.6038 17.5536 20.0437 17.1261 20.0513 16.5911C20.0537 16.422 20.0876 16.1156 20.1418 15.6643L20.1538 15.5646C20.2023 15.1617 20.2592 14.6894 20.2978 14.223C20.3391 13.723 20.3634 13.1861 20.3255 12.7122C20.3065 12.4748 20.2697 12.2232 20.1977 11.9855C20.1283 11.7561 20.0052 11.4693 19.7676 11.2317Z" fill="#00C147"/>
<path fill-rule="evenodd" clip-rule="evenodd" d="M15.5007 1.61328C7.83195 1.61328 1.61523 7.82999 1.61523 15.4987C1.61523 23.1674 7.83195 29.3841 15.5007 29.3841C23.1694 29.3841 29.3861 23.1674 29.3861 15.4987C29.3861 7.82999 23.1694 1.61328 15.5007 1.61328ZM3.55273 15.4987C3.55273 8.90005 8.902 3.55078 15.5007 3.55078C22.0993 3.55078 27.4486 8.90005 27.4486 15.4987C27.4486 22.0973 22.0993 27.4466 15.5007 27.4466C8.902 27.4466 3.55273 22.0973 3.55273 15.4987Z" fill="#00C147"/>
</svg>
