<svg width="33" height="33" viewBox="0 0 33 33" fill="none" xmlns="http://www.w3.org/2000/svg">
<path d="M16.1525 2.35742C17.2122 2.35742 18.1466 2.72055 19.1301 3.31314C20.0804 3.88578 21.1648 4.72901 22.5151 5.77933L22.5572 5.8122L25.2495 7.90636L26.4235 8.82658C27.4908 9.68405 28.2407 10.3942 28.6952 11.323L28.8016 11.5583C29.2981 12.7423 29.2775 14.1123 29.2775 16.1411V19.5984C29.2775 21.7544 29.2775 23.4756 29.096 24.8253C28.9202 26.1333 28.5593 27.2249 27.7656 28.1053L27.6014 28.2775C26.6925 29.1863 25.5441 29.5846 24.1492 29.7721C22.7995 29.9536 21.0782 29.9536 18.9224 29.9536H13.3826C11.2266 29.9536 9.50544 29.9536 8.15573 29.7721C6.84771 29.5963 5.75605 29.2354 4.87579 28.4418L4.70359 28.2775C3.79479 27.3687 3.39642 26.2203 3.20887 24.8253C3.07115 23.8008 3.0381 22.5627 3.03009 21.0827L3.02746 19.5209V16.1411C3.02746 13.977 3.00405 12.5616 3.60984 11.323C4.21574 10.0847 5.34736 9.23484 7.05541 7.90636L9.74772 5.8122L10.7258 5.05367C11.6573 4.33643 12.4546 3.74712 13.1749 3.31314C14.1584 2.72053 15.0928 2.35745 16.1525 2.35742ZM21.2531 22.0593C20.825 21.5096 20.055 21.3826 19.4771 21.7451L19.364 21.824C18.5285 22.4743 17.4066 22.8863 16.1525 22.8863C15.055 22.8861 14.0586 22.5714 13.2669 22.0568L12.9409 21.824L12.8278 21.7451C12.2499 21.3829 11.4799 21.5094 11.0518 22.0593C10.6238 22.6095 10.6897 23.3878 11.1833 23.8591L11.2871 23.9485L11.5382 24.1351C12.8175 25.0464 14.425 25.5784 16.1525 25.5786C17.9949 25.5786 19.701 24.9735 21.0178 23.9485L21.1217 23.8591C21.6155 23.3877 21.6814 22.6096 21.2531 22.0593Z" fill="white"/>
</svg>
