<svg width="20" height="20" viewBox="0 0 20 20" fill="none" xmlns="http://www.w3.org/2000/svg">
<path d="M15.0007 0.833984C15.4609 0.833984 15.834 1.20708 15.834 1.66732V4.16732H18.334C18.7942 4.16732 19.1673 4.54041 19.1673 5.00065C19.1673 5.46089 18.7942 5.83398 18.334 5.83398H15.834V8.33398C15.834 8.79422 15.4609 9.16732 15.0007 9.16732C14.5404 9.16732 14.1673 8.79422 14.1673 8.33398V5.83398H11.6673C11.2071 5.83398 10.834 5.46089 10.834 5.00065C10.834 4.54041 11.2071 4.16732 11.6673 4.16732H14.1673V1.66732C14.1673 1.20708 14.5404 0.833984 15.0007 0.833984Z" fill="white" fill-opacity="0.7"/>
<path d="M9.52194 1.66732L9.58399 1.66732C10.0442 1.66732 10.4173 2.04041 10.4173 2.50065C10.4173 2.96089 10.0442 3.33399 9.58399 3.33399C7.69445 3.33399 6.36113 3.33576 5.35166 3.47148C4.36616 3.60397 3.81499 3.85023 3.41594 4.24928C3.0169 4.64832 2.77064 5.19949 2.63814 6.18499C2.50242 7.19447 2.50065 8.52778 2.50065 10.4173C2.50065 12.3069 2.50242 13.6402 2.63814 14.6496C2.77064 15.6351 3.0169 16.1863 3.41594 16.5854C3.49415 16.6636 3.5782 16.7359 3.67021 16.8027C3.88167 16.5626 4.09724 16.3147 4.31701 16.062C5.79763 14.3594 7.46923 12.4371 9.35936 11.2129C10.4962 10.4766 11.7586 9.95728 13.1588 9.88547C14.286 9.82766 15.4544 10.0624 16.6673 10.6447C16.6673 10.5698 16.6673 10.494 16.6673 10.4173V10.0007C16.6673 9.54041 17.0404 9.16732 17.5007 9.16732C17.9609 9.16732 18.334 9.54041 18.334 10.0007V10.4793C18.334 11.1538 18.334 11.7774 18.3262 12.353C18.3306 12.4015 18.3329 12.4503 18.3329 12.4992V12.5094C18.3039 14.8715 18.1656 16.372 17.1213 17.5588C17.0609 17.6287 16.9974 17.6971 16.9305 17.7639C16.1702 18.5242 15.2087 18.8576 14.0384 19.015C12.9049 19.1674 11.4593 19.1673 9.64601 19.1673H9.52197C7.70864 19.1673 6.26303 19.1674 5.12958 19.015C3.95926 18.8576 2.99776 18.5242 2.23743 17.7639C1.47711 17.0035 1.14368 16.042 0.986338 14.8717C0.83395 13.7383 0.833966 12.2927 0.833985 10.4794V10.3553C0.833966 8.54197 0.83395 7.09635 0.986338 5.96291C1.14368 4.7926 1.47711 3.83109 2.23743 3.07077C2.99776 2.31044 3.95926 1.97702 5.12958 1.81967C6.26303 1.66728 7.70863 1.6673 9.52194 1.66732Z" fill="white" fill-opacity="0.7"/>
</svg>
