<svg width="20" height="20" viewBox="0 0 20 20" fill="none" xmlns="http://www.w3.org/2000/svg">
<path d="M12.9869 1.45898C13.3737 1.45902 13.7446 1.61277 14.018 1.88623L18.1131 5.98128L18.2099 6.08789C18.4227 6.34741 18.5404 6.67386 18.5404 7.01237V12.9889C18.5404 13.3274 18.4227 13.6539 18.2099 13.9134L18.1131 14.02L14.018 18.1151C13.7446 18.3886 13.3737 18.5423 12.9869 18.5423H7.01041C6.67191 18.5423 6.34546 18.4247 6.08593 18.2119L5.97932 18.1151L1.88427 14.02C1.61081 13.7466 1.45706 13.3757 1.45703 12.9889V7.01237C1.45706 6.62564 1.61081 6.25474 1.88427 5.98128L5.97932 1.88623L6.08593 1.78938C6.34546 1.57663 6.67191 1.45902 7.01041 1.45898H12.9869ZM9.9987 8.75065C9.53845 8.75065 9.16536 9.12373 9.16536 9.58398V13.334C9.16536 13.7942 9.53845 14.1673 9.9987 14.1673C10.4589 14.1673 10.832 13.7942 10.832 13.334V9.58398C10.832 9.12373 10.4589 8.75065 9.9987 8.75065ZM9.9987 5.83236C9.53845 5.83236 9.16536 6.20545 9.16536 6.66569V6.67383C9.16536 7.13407 9.53845 7.50716 9.9987 7.50716C10.4589 7.50716 10.832 7.13407 10.832 6.67383V6.66569C10.832 6.20545 10.4589 5.83236 9.9987 5.83236Z" fill="white"/>
</svg>
