<svg width="30" height="30" viewBox="0 0 30 30" fill="none" xmlns="http://www.w3.org/2000/svg">
<path d="M19.4824 2.1875C20.0625 2.18755 20.6189 2.41818 21.029 2.82838L27.1716 8.97095L27.3169 9.13086C27.636 9.52014 27.8125 10.0098 27.8125 10.5176V19.4824C27.8125 19.9901 27.636 20.4799 27.3169 20.8691L27.1716 21.029L21.029 27.1716C20.6189 27.5819 20.0625 27.8125 19.4824 27.8125H10.5176C10.0098 27.8125 9.52014 27.636 9.13085 27.3169L8.97094 27.1716L2.82836 21.029C2.41818 20.6189 2.18755 20.0625 2.1875 19.4824V10.5176C2.18755 9.93749 2.41818 9.38114 2.82836 8.97095L8.97094 2.82838L9.13085 2.6831C9.52014 2.36398 10.0098 2.18755 10.5176 2.1875H19.4824ZM15 13.125C14.3096 13.125 13.75 13.6846 13.75 14.375V20C13.75 20.6904 14.3096 21.25 15 21.25C15.6904 21.25 16.25 20.6904 16.25 20V14.375C16.25 13.6846 15.6904 13.125 15 13.125ZM15 8.74756C14.3096 8.74756 13.75 9.3072 13.75 9.99756V10.0098C13.75 10.7001 14.3096 11.2598 15 11.2598C15.6904 11.2598 16.25 10.7001 16.25 10.0098V9.99756C16.25 9.3072 15.6904 8.74756 15 8.74756Z" fill="#F02731"/>
</svg>
