<svg width="30" height="30" viewBox="0 0 30 30" fill="none" xmlns="http://www.w3.org/2000/svg">
<rect width="30" height="30" rx="15" fill="white" fill-opacity="0.1"/>
<path d="M16.2888 7.53023C17.0082 7.54031 17.5406 7.58586 18.0355 7.79086C18.6952 8.06415 19.2017 8.58463 20.0129 9.39587L20.6068 9.98974L21.1615 10.548C21.6629 11.0637 22.0068 11.4724 22.2119 11.9672L22.2595 12.0918C22.4838 12.7195 22.4753 13.4249 22.4753 14.5007V15.5019C22.4753 16.5778 22.4838 17.2832 22.2595 17.9109L22.2119 18.0355C22.0069 18.5303 21.6629 18.939 21.1615 19.4547L20.6068 20.0129L20.0129 20.6068C19.2017 21.418 18.6952 21.9385 18.0355 22.2118C17.3757 22.4851 16.6494 22.4753 15.5019 22.4753H14.5008C13.4249 22.4753 12.7195 22.4837 12.0918 22.2596L11.9672 22.2118C11.4724 22.0068 11.0637 21.6629 10.548 21.1615L9.98975 20.6068L9.39588 20.0129C8.58464 19.2017 8.06416 18.6953 7.79086 18.0355C7.58586 17.5405 7.54032 17.0081 7.53024 16.2888L7.52739 15.5019V14.5007C7.52739 13.3533 7.51754 12.627 7.79086 11.9672L7.84498 11.8454C8.13028 11.2431 8.63523 10.7504 9.39588 9.98974L9.98975 9.39587L10.548 8.84116C11.0637 8.33979 11.4724 7.99584 11.9672 7.79086L12.0918 7.74315C12.7195 7.51894 13.4249 7.52739 14.5008 7.52739H15.5019L16.2888 7.53023ZM15.0013 13.9076C14.5986 13.9076 14.2722 14.2341 14.2722 14.6368V17.918C14.2722 18.3207 14.5986 18.6471 15.0013 18.6472C15.4041 18.6472 15.7305 18.3207 15.7305 17.918V14.6368C15.7305 14.2341 15.4041 13.9076 15.0013 13.9076ZM15.0013 11.3541C14.5986 11.3541 14.2722 11.6806 14.2722 12.0832V12.0904C14.2722 12.4931 14.5986 12.8195 15.0013 12.8195C15.4041 12.8195 15.7305 12.4931 15.7305 12.0904V12.0832C15.7305 11.6805 15.4041 11.3541 15.0013 11.3541Z" fill="#F02731"/>
</svg>
