<svg width="20" height="20" viewBox="0 0 20 20" fill="none" xmlns="http://www.w3.org/2000/svg">
<path fill-rule="evenodd" clip-rule="evenodd" d="M10.0477 1.45825C11.8733 1.45824 13.3072 1.45823 14.4267 1.60875C15.5739 1.76299 16.4841 2.08551 17.1993 2.80068C17.9144 3.51584 18.237 4.42606 18.3912 5.57327C18.5417 6.69278 18.5417 8.12667 18.5417 9.95225V10.0476C18.5417 11.8731 18.5417 13.3071 18.3912 14.4266C18.237 15.5738 17.9144 16.484 17.1993 17.1992C16.4841 17.9143 15.5739 18.2368 14.4267 18.3911C13.3072 18.5416 11.8733 18.5416 10.0477 18.5416H9.9524C8.12682 18.5416 6.6929 18.5416 5.57339 18.3911C4.42618 18.2368 3.51597 17.9143 2.8008 17.1992C2.08564 16.484 1.76311 15.5738 1.60887 14.4266C1.45835 13.307 1.45836 11.8732 1.45837 10.0476V9.95227C1.45836 8.12668 1.45835 6.69279 1.60887 5.57327C1.76311 4.42606 2.08564 3.51585 2.8008 2.80068C3.51597 2.08551 4.42618 1.76299 5.57339 1.60875C6.6929 1.45823 8.12679 1.45824 9.95237 1.45825H10.0477ZM13.75 9.99992C13.75 12.071 12.0711 13.7499 10 13.7499C7.92897 13.7499 6.25004 12.071 6.25004 9.99992C6.25004 7.92885 7.92897 6.24992 10 6.24992C12.0711 6.24992 13.75 7.92885 13.75 9.99992ZM14.5936 6.24992C15.0518 6.24992 15.4232 5.87682 15.4232 5.41658C15.4232 4.95635 15.0518 4.58325 14.5936 4.58325H14.5862C14.128 4.58325 13.7565 4.95635 13.7565 5.41658C13.7565 5.87682 14.128 6.24992 14.5862 6.24992H14.5936Z" fill="white"/>
</svg>
