<svg width="60" height="60" viewBox="0 0 60 60" fill="none" xmlns="http://www.w3.org/2000/svg">
<g clip-path="url(#clip0_4032_18185)">
<path d="M54.6554 60.0002C57.5155 59.7853 59.7889 57.5118 60.0039 54.6518L47.9754 42.6233L42.627 47.9717L54.6554 60.0002Z" fill="#F02731"/>
<path d="M40.2458 33.2622L32.6953 39.757L37.1023 43.5478L33.2343 47.4158L35.72 49.9016L49.9022 35.7194L47.4164 33.2336L43.5484 37.1016L40.2458 33.2622Z" fill="#F02731"/>
<path d="M27.6813 18.6559L12.7782 1.3302L0 0L1.3302 12.7782L19.3813 28.3052L27.6813 18.6559Z" fill="#F02731"/>
<path d="M0 54.6518C0.214922 57.5118 2.48836 59.7853 5.34844 60.0002L17.3769 47.9717L12.0285 42.6233L0 54.6518Z" fill="#F02731"/>
<path d="M16.4612 37.1025L12.5932 33.2345L10.1074 35.7203L24.2896 49.9024L26.7754 47.4166L22.9073 43.5486L58.6796 12.7782L60.0098 0L47.2316 1.3302L16.4612 37.1025Z" fill="#F02731"/>
</g>
<defs>
<clipPath id="clip0_4032_18185">
<rect width="60" height="60" fill="white"/>
</clipPath>
</defs>
</svg>
