<svg width="16" height="16" viewBox="0 0 16 16" fill="none" xmlns="http://www.w3.org/2000/svg">
<g clip-path="url(#clip0_4015_17865)">
<path d="M14.5748 16.0001C15.3375 15.9427 15.9437 15.3365 16.001 14.5738L12.7934 11.3662L11.3672 12.7925L14.5748 16.0001Z" fill="white"/>
<path d="M10.7323 8.86993L8.71881 10.6019L9.894 11.6127L8.86253 12.6442L9.5254 13.3071L13.3073 9.52518L12.6444 8.8623L11.613 9.89377L10.7323 8.86993Z" fill="white"/>
<path d="M7.38169 4.97491L3.40753 0.354719L0 0L0.354719 3.40753L5.16834 7.54806L7.38169 4.97491Z" fill="white"/>
<path d="M0 14.5738C0.0573125 15.3365 0.663562 15.9427 1.42625 16.0001L4.63384 12.7925L3.20759 11.3662L0 14.5738Z" fill="white"/>
<path d="M4.38966 9.894L3.35819 8.86253L2.69531 9.52541L6.47722 13.3073L7.14009 12.6444L6.10862 11.613L15.6479 3.40753L16.0026 0L12.5951 0.354719L4.38966 9.894Z" fill="white"/>
</g>
<defs>
<clipPath id="clip0_4015_17865">
<rect width="16" height="16" fill="white"/>
</clipPath>
</defs>
</svg>
