<svg width="119" height="43" viewBox="0 0 119 43" fill="none" xmlns="http://www.w3.org/2000/svg">
<mask id="path-1-inside-1_18_3546" fill="white">
<path d="M105.894 0L118.207 21H118.5L118.353 21.25L118.5 21.5H118.207L105.894 42.5H12.6064L0.292969 21.5H0L0.146484 21.25L0 21H0.292969L12.6064 0H105.894Z"/>
</mask>
<path d="M105.894 0L118.207 21H118.5L118.353 21.25L118.5 21.5H118.207L105.894 42.5H12.6064L0.292969 21.5H0L0.146484 21.25L0 21H0.292969L12.6064 0H105.894Z" fill="#121212"/>
<path d="M105.894 0L106.929 -0.606978L106.581 -1.2H105.894V0ZM118.207 21L117.172 21.607L117.52 22.2H118.207V21ZM118.5 21L119.534 21.6097L120.601 19.8H118.5V21ZM118.353 21.25L117.319 20.6403L116.959 21.25L117.319 21.8597L118.353 21.25ZM118.5 21.5V22.7H120.601L119.534 20.8903L118.5 21.5ZM118.207 21.5V20.3H117.52L117.172 20.893L118.207 21.5ZM105.894 42.5V43.7H106.581L106.929 43.107L105.894 42.5ZM12.6064 42.5L11.5713 43.107L11.919 43.7H12.6064V42.5ZM0.292969 21.5L1.32814 20.893L0.980417 20.3H0.292969V21.5ZM0 21.5L-1.03536 20.8933L-2.09395 22.7H0V21.5ZM0.146484 21.25L1.18184 21.8567L1.53731 21.25L1.18184 20.6433L0.146484 21.25ZM0 21V19.8H-2.09395L-1.03536 21.6067L0 21ZM0.292969 21V22.2H0.980417L1.32814 21.607L0.292969 21ZM12.6064 0V-1.2H11.919L11.5713 -0.606978L12.6064 0ZM105.894 0L104.858 0.606978L117.172 21.607L118.207 21L119.242 20.393L106.929 -0.606978L105.894 0ZM118.207 21V22.2H118.5V21V19.8H118.207V21ZM118.5 21L117.466 20.3903L117.319 20.6403L118.353 21.25L119.386 21.8597L119.534 21.6097L118.5 21ZM118.353 21.25L117.319 21.8597L117.466 22.1097L118.5 21.5L119.534 20.8903L119.386 20.6403L118.353 21.25ZM118.5 21.5V20.3H118.207V21.5V22.7H118.5V21.5ZM118.207 21.5L117.172 20.893L104.858 41.893L105.894 42.5L106.929 43.107L119.242 22.107L118.207 21.5ZM105.894 42.5V41.3H12.6064V42.5V43.7H105.894V42.5ZM12.6064 42.5L13.6416 41.893L1.32814 20.893L0.292969 21.5L-0.742202 22.107L11.5713 43.107L12.6064 42.5ZM0.292969 21.5V20.3H0V21.5V22.7H0.292969V21.5ZM0 21.5L1.03536 22.1067L1.18184 21.8567L0.146484 21.25L-0.888875 20.6433L-1.03536 20.8933L0 21.5ZM0.146484 21.25L1.18184 20.6433L1.03536 20.3933L0 21L-1.03536 21.6067L-0.888875 21.8567L0.146484 21.25ZM0 21V22.2H0.292969V21V19.8H0V21ZM0.292969 21L1.32814 21.607L13.6416 0.606978L12.6064 0L11.5713 -0.606978L-0.742202 20.393L0.292969 21ZM12.6064 0V1.2H105.894V0V-1.2H12.6064V0Z" fill="#474747" mask="url(#path-1-inside-1_18_3546)"/>
</svg>
