<svg width="70" height="70" viewBox="0 0 70 70" fill="none" xmlns="http://www.w3.org/2000/svg">
<circle cx="35" cy="35" r="35" fill="#212121"/>
<path fill-rule="evenodd" clip-rule="evenodd" d="M32.2092 26.3053C30.579 24.6751 27.936 24.6751 26.3058 26.3053C24.6756 27.9355 24.6756 30.5785 26.3058 32.2087L28.2199 34.1228C28.704 34.6069 28.704 35.3918 28.2199 35.8759C27.7358 36.3599 26.951 36.3599 26.4669 35.8759L24.5528 33.9618C21.9544 31.3634 21.9544 27.1506 24.5528 24.5523C27.1511 21.9539 31.3639 21.9539 33.9623 24.5523L45.4469 36.0369C48.0452 38.6353 48.0452 42.848 45.4469 45.4464C42.8485 48.0447 38.6358 48.0447 36.0374 45.4464L31.7307 41.1396C29.9252 39.3342 29.9252 36.4069 31.7307 34.6013C33.5361 32.7959 36.4635 32.7959 38.269 34.6013L40.6616 36.994C41.1457 37.4781 41.1457 38.2629 40.6616 38.747C40.1776 39.2312 39.3927 39.2312 38.9086 38.747L36.516 36.3543C35.6786 35.5171 34.321 35.5171 33.4837 36.3543C32.6464 37.1917 32.6464 38.5493 33.4837 39.3866L37.7905 43.6934C39.4207 45.3236 42.0637 45.3236 43.6939 43.6934C45.3241 42.0632 45.3241 39.4202 43.6939 37.79L32.2092 26.3053Z" fill="white"/>
<path d="M39.7842 37.87L37.3915 35.4775C36.0701 34.1559 33.9278 34.1559 32.6063 35.4775C31.2849 36.7989 31.2849 38.9412 32.6063 40.2626L36.9131 44.5694C39.0273 46.6837 42.4552 46.6837 44.5695 44.5694" stroke="white" stroke-width="2.83333" stroke-linecap="round" stroke-linejoin="round"/>
</svg>
