<svg width="161" height="38" viewBox="0 0 161 38" fill="none" xmlns="http://www.w3.org/2000/svg">
<path d="M0.574463 11.038V6.29625H18.8973V11.038H12.4576V32.6398H7.01419V11.038H0.574463Z" fill="white"/>
<path d="M21.7892 32.6397V6.29612H38.4678L36.4167 10.8625H26.883V16.8047H35.8392L33.7904 21.1957H26.883V27.8979H35.4943L33.3215 32.6397H21.7892Z" fill="white"/>
<path d="M36.4181 32.6398L48.0387 5.3596H48.0972L59.7178 32.6386H54.42L52.4583 27.9553H43.5021L41.5405 32.6386H36.4181V32.6398ZM45.2574 23.7409H50.702L49.5601 21.0479C49.2474 20.326 48.9599 19.6279 48.6962 18.955C48.4325 18.282 48.1843 17.4969 47.9492 16.5984C47.7344 17.4766 47.5006 18.257 47.2464 18.9407C46.9923 19.6244 46.7095 20.326 46.3981 21.0479L45.2574 23.7409Z" fill="white"/>
<path d="M78.3907 32.6396L90.0114 5.36057H90.0698L101.69 32.6396H96.3926L94.431 27.9563H85.4748L83.5132 32.6396H78.3907ZM87.23 23.7407H92.6746L91.5327 21.0476C91.2201 20.3258 90.9325 19.6277 90.6688 18.9548C90.4051 18.2818 90.1569 17.4967 89.9219 16.5982C89.7071 17.4764 89.4732 18.2567 89.2191 18.9404C88.9649 19.6241 88.6821 20.3258 88.3707 21.0476L87.23 23.7407Z" fill="white"/>
<path d="M97.0978 6.2971V10.8623H103.538V32.6395H108.981V10.8623H115.421V6.2971H97.0978Z" fill="white"/>
<path d="M129.35 32.6401C127.418 32.6401 125.613 32.2977 123.935 31.6128C122.256 30.9279 120.779 29.9852 119.501 28.7837C118.223 27.5833 117.223 26.1849 116.502 24.5896C115.78 22.9954 115.418 21.288 115.418 19.4671C115.418 17.6475 115.778 15.94 116.502 14.3447C117.223 12.7506 118.223 11.3522 119.501 10.1506C120.779 8.95023 122.258 8.0076 123.935 7.3215C125.613 6.63661 127.418 6.29416 129.35 6.29416C131.086 6.29416 132.726 6.56621 134.267 7.11031C135.809 7.65441 137.185 8.42403 138.394 9.41797L136.902 15.3279C136.18 14.1645 135.185 13.1849 133.916 12.3867C132.648 11.5896 131.184 11.1911 129.525 11.1911C127.944 11.1911 126.515 11.5622 125.237 12.3031C123.959 13.0441 122.948 14.0392 122.207 15.2861C121.465 16.5342 121.095 17.9279 121.095 19.4659C121.095 20.9861 121.465 22.375 122.207 23.6314C122.948 24.8891 123.959 25.8878 125.237 26.6288C126.515 27.3697 127.944 27.7408 129.525 27.7408C131.165 27.7408 132.623 27.3423 133.901 26.5452C135.179 25.7482 136.179 24.7674 136.901 23.604L138.393 29.5139C137.164 30.49 135.784 31.2548 134.252 31.8073C132.721 32.3621 131.086 32.6401 129.35 32.6401Z" fill="white"/>
<path d="M142.113 32.6397V6.29612H147.206V14.7261H154.816V6.29612H159.909V32.6397H154.816V19.4679H147.206V32.6397H142.113Z" fill="white"/>
<path d="M72.3773 5.00759L70.9001 2.42311L70.7247 5.52664L69.6699 24.6991L69.0685 30.2355L68.4683 24.6991L67.4123 5.52664L67.2381 2.42311L65.7609 5.00759L51.3828 0.463867L56.4444 16.7094L64.0642 27.651L58.8177 9.6241L56.2415 7.80208L63.2993 10.3794L64.7765 23.7493L68.3359 35.1837L69.0685 37.5344L69.8023 35.1837L73.3605 23.7493L74.8376 10.3794L81.8954 7.80208L79.3205 9.6241L74.074 27.651L81.6938 16.7094L86.7554 0.463867L72.3773 5.00759Z" fill="#F02731"/>
</svg>
