<svg width="24" height="24" viewBox="0 0 24 24" fill="none" xmlns="http://www.w3.org/2000/svg">
<path d="M12.5781 1.75C14.1888 1.75 15.4638 1.75 16.4717 1.86914C17.5026 1.99101 18.3516 2.24633 19.0606 2.82812C19.301 3.02544 19.5215 3.24592 19.7188 3.48633C20.3006 4.19525 20.5559 5.04427 20.6778 6.0752C20.7969 7.0831 20.7969 8.35815 20.7969 9.96875V11H10.9981C11.2175 10.79 11.4562 10.5729 11.7022 10.3594C12.1847 9.94045 12.6705 9.55074 13.0371 9.26465C13.2197 9.12216 13.5339 8.88552 13.6397 8.80566C14.0842 8.47824 14.1797 7.85189 13.8526 7.40723C13.5251 6.96273 12.8988 6.86722 12.4541 7.19434C12.3412 7.27964 11.9988 7.5385 11.8067 7.68848C11.4234 7.98761 10.909 8.40042 10.3916 8.84961C9.87912 9.29456 9.34085 9.79549 8.92286 10.2686C8.71498 10.5038 8.51506 10.7555 8.3623 11.0088C8.24312 11.2065 8.09091 11.503 8.05468 11.8486L8.04688 12L8.05468 12.1514C8.0909 12.497 8.24312 12.7935 8.3623 12.9912C8.51505 13.2445 8.71498 13.4962 8.92286 13.7314C9.34084 14.2045 9.87912 14.7054 10.3916 15.1504C10.909 15.5996 11.4234 16.0124 11.8067 16.3115C11.9988 16.4615 12.3411 16.7203 12.4541 16.8057C12.8988 17.1328 13.5242 17.0373 13.8516 16.5928C14.179 16.1481 14.0843 15.5218 13.6397 15.1943L13.0371 14.7354C12.6705 14.4492 12.1847 14.0596 11.7022 13.6406C11.4562 13.4271 11.2175 13.21 10.9981 13H20.7969V14.0312C20.7969 15.6419 20.7969 16.9169 20.6778 17.9248C20.5559 18.9557 20.3006 19.8048 19.7188 20.5137C19.5215 20.7541 19.301 20.9746 19.0606 21.1719C18.3516 21.7537 17.5026 22.009 16.4717 22.1309C15.4638 22.25 14.1888 22.25 12.5781 22.25H11.9971C10.1563 22.25 8.69816 22.25 7.55761 22.0967C6.38531 21.939 5.43679 21.6067 4.68848 20.8584C3.94017 20.1101 3.60784 19.1616 3.4502 17.9893C3.29686 16.8487 3.29687 15.3906 3.29688 13.5498V10.4502C3.29687 8.60937 3.29686 7.15129 3.4502 6.01074C3.60784 4.83844 3.94017 3.88991 4.68848 3.1416C5.43679 2.39329 6.38531 2.06096 7.55761 1.90332C8.69816 1.74998 10.1563 1.74999 11.9971 1.75H12.5781Z" fill="white"/>
</svg>
