<svg width="20" height="20" viewBox="0 0 20 20" fill="none" xmlns="http://www.w3.org/2000/svg">
<path d="M15.703 6.83001C15.3324 6.55735 14.8105 6.63694 14.5376 7.00742C14.2649 7.37797 14.3453 7.89993 14.7158 8.17278L14.8143 8.24684C14.8797 8.29619 14.9738 8.36772 15.0869 8.45597C15.3143 8.63347 15.6532 8.90939 15.9512 9.16806H7.29232C6.83208 9.16806 6.45899 9.54114 6.45898 10.0014C6.45898 10.4616 6.83208 10.8347 7.29232 10.8347H15.9512C15.6532 11.0934 15.3143 11.3693 15.0869 11.5468C14.9738 11.6351 14.8797 11.7066 14.8143 11.756L14.715 11.83C14.3445 12.1029 14.2649 12.6248 14.5376 12.9954C14.8105 13.3659 15.3324 13.4455 15.703 13.1728C15.7743 13.1189 15.9912 12.9548 16.1123 12.8603C16.3536 12.672 16.6781 12.4117 17.0051 12.1279C17.3278 11.8476 17.6724 11.5278 17.9426 11.2221C18.0768 11.0701 18.2107 10.9016 18.3152 10.7281C18.406 10.5776 18.5423 10.3157 18.5423 10.0014C18.5423 9.68706 18.406 9.42522 18.3152 9.27464C18.2107 9.10122 18.0768 8.93264 17.9426 8.78072C17.6724 8.47497 17.3278 8.1552 17.0051 7.87493C16.6781 7.59106 16.3536 7.33082 16.1123 7.14251C15.9912 7.04801 15.7743 6.8839 15.703 6.83001Z" fill="white"/>
<path d="M2.64225 2.4362C3.29347 1.92431 4.07224 1.82239 4.9681 1.89665C5.83933 1.96888 6.93863 2.2201 8.31445 2.53386L8.35598 2.54281L9.19007 2.73324L9.23815 2.74463C10.1318 2.94841 10.8574 3.11342 11.424 3.31592C12.0161 3.52754 12.5034 3.80168 12.875 4.26318C13.3938 4.90773 13.5075 5.69766 13.5423 6.67774V8.12549H7.30208C6.26655 8.12549 5.42709 8.96493 5.42709 10.0005C5.42729 11.0358 6.26668 11.8755 7.30208 11.8755H13.5423V13.3216C13.5076 14.3017 13.3937 15.0916 12.875 15.7362C12.5034 16.1977 12.0161 16.4718 11.424 16.6834C10.8574 16.8859 10.1319 17.0518 9.23815 17.2555L9.19007 17.2661L8.35598 17.4565L8.31445 17.4663C6.93864 17.7801 5.83933 18.0304 4.9681 18.1027C4.07219 18.1769 3.29349 18.0751 2.64225 17.5632C1.98973 17.0499 1.71228 16.3197 1.58349 15.4367C1.45897 14.5825 1.45896 13.4703 1.45899 12.0822V7.91716C1.45896 6.52893 1.45894 5.41682 1.58349 4.56266C1.71229 3.67967 1.98971 2.94936 2.64225 2.4362Z" fill="white"/>
</svg>
