<svg width="20" height="20" viewBox="0 0 20 20" fill="none" xmlns="http://www.w3.org/2000/svg">
<path d="M8.542 3.08954C8.8675 2.97466 9.03824 2.61766 8.92335 2.29216C8.80847 1.96666 8.45147 1.79592 8.12597 1.9108L7.53856 2.11812C6.494 2.48678 5.66047 2.78096 5.01492 3.09416C4.34781 3.41781 3.82498 3.78722 3.43597 4.33704C3.04697 4.88685 2.87263 5.50283 2.78946 6.23962C2.70897 6.95261 2.70897 7.83651 2.70898 8.94422V11.0561C2.70897 12.1638 2.70897 13.0477 2.78946 13.7607C2.87263 14.4975 3.04697 15.1135 3.43597 15.6633C3.82498 16.2131 4.34781 16.5825 5.01492 16.9062C5.66048 17.2194 6.49401 17.5136 7.53859 17.8822L8.12597 18.0895C8.45147 18.2044 8.80847 18.0337 8.92336 17.7082C9.03824 17.3827 8.8675 17.0257 8.542 16.9108L7.98986 16.7159C6.90198 16.332 6.13527 16.0604 5.56054 15.7816C5.00011 15.5097 4.6796 15.2568 4.4564 14.9413C4.2332 14.6259 4.10144 14.2395 4.03157 13.6205C3.95991 12.9857 3.95899 12.1723 3.95899 11.0187V8.98164C3.95899 7.82799 3.95991 7.0146 4.03157 6.37984C4.10144 5.76086 4.2332 5.37447 4.4564 5.059C4.6796 4.74353 5.00011 4.49069 5.56054 4.21879C6.13527 3.93995 6.90198 3.66837 7.98987 3.28441L8.542 3.08954Z" fill="white"/>
<path d="M10.8529 8.36505C11.1005 8.12446 11.1061 7.72877 10.8655 7.48125C10.6249 7.23373 10.2292 7.22811 9.9817 7.4687C9.90565 7.54261 9.75414 7.66397 9.52795 7.84163L9.47801 7.88083C9.27623 8.03922 9.0395 8.22505 8.81357 8.41648C8.57144 8.62165 8.31995 8.8513 8.12443 9.08086C8.02645 9.1959 7.92981 9.32556 7.85516 9.46506C7.78317 9.59959 7.70898 9.78497 7.70898 10.0002C7.70898 10.2154 7.78317 10.4008 7.85516 10.5354C7.92981 10.6748 8.02645 10.8045 8.12443 10.9195C8.31995 11.1491 8.57144 11.3788 8.81357 11.5839C9.0395 11.7754 9.27622 11.9612 9.478 12.1196L9.52795 12.1588C9.75414 12.3364 9.90565 12.4578 9.9817 12.5317C10.2292 12.7723 10.6249 12.7667 10.8655 12.5192C11.1061 12.2716 11.1005 11.8759 10.8529 11.6354C10.7183 11.5045 10.504 11.3359 10.3001 11.1758L10.2526 11.1385C10.0478 10.9777 9.82887 10.8058 9.62167 10.6303L9.61571 10.6252H16.6673C17.0125 10.6252 17.2923 10.3454 17.2923 10.0002C17.2923 9.65503 17.0125 9.3752 16.6673 9.3752H9.61571L9.62167 9.37015C9.82886 9.19459 10.0478 9.02268 10.2526 8.86192L10.3001 8.82465C10.504 8.66446 10.7183 8.49593 10.8529 8.36505Z" fill="white"/>
</svg>
