<svg width="16" height="16" viewBox="0 0 16 16" fill="none" xmlns="http://www.w3.org/2000/svg">
<path fill-rule="evenodd" clip-rule="evenodd" d="M2.49935 2C1.48683 2 0.666016 2.82081 0.666016 3.83333V11.8333C0.666016 12.8459 1.48683 13.6667 2.49935 13.6667H13.166C14.1785 13.6667 14.9993 12.8459 14.9993 11.8333V3.83333C14.9993 2.82081 14.1785 2 13.166 2H2.49935ZM4.0847 4.73486C3.84618 4.59572 3.54002 4.67629 3.40088 4.91481C3.26174 5.15334 3.3423 5.4595 3.58083 5.59864L6.90902 7.54007C7.47982 7.87307 8.18568 7.87307 8.75655 7.54007L12.0847 5.59864C12.3232 5.4595 12.4038 5.15334 12.2647 4.91481C12.1255 4.67629 11.8193 4.59572 11.5808 4.73486L8.25268 6.67627C7.99322 6.82767 7.67235 6.82767 7.41288 6.67627L4.0847 4.73486Z" fill="white"/>
</svg>
