<svg width="40" height="40" viewBox="0 0 40 40" fill="none" xmlns="http://www.w3.org/2000/svg">
<path d="M18.3603 7.6425C13.2292 5.5023 0 15.9164 0 24.6978C0 29.8387 6.50084 35.0016 17.2448 35.0016C30.4071 35.0016 36.7429 26.0437 34.5566 21.653C33.1626 18.8534 29.6263 18.6082 29.4032 17.8581C29.2589 17.3727 31.0318 14.4602 29.1132 12.8937C25.841 10.2219 20.2789 14.0631 19.6542 13.3791C19.2643 12.9521 21.1266 8.79635 18.3603 7.6425Z" fill="#E31C34"/>
<path d="M28.1687 23.6779C28.5892 27.9757 23.547 31.9748 16.9067 32.6102C10.2664 33.2456 4.5426 30.2767 4.12215 25.9789C3.70171 21.6811 8.74388 17.682 15.3842 17.0466C22.0244 16.4112 27.7483 19.3801 28.1687 23.6779Z" fill="white"/>
<path fill-rule="evenodd" clip-rule="evenodd" d="M21.4213 23.9013C22.2341 26.7738 20.1225 29.8692 16.7049 30.8151C13.2874 31.761 9.85795 30.1992 9.04514 27.3268C8.23233 24.4543 10.3439 21.3589 13.7615 20.413C17.1791 19.467 20.6085 21.0288 21.4213 23.9013ZM15.3424 25.752C15.7942 26.7132 15.2368 27.9172 14.0974 28.4411C12.958 28.965 11.6681 28.6104 11.2162 27.6491C10.7643 26.6879 11.3217 25.4839 12.4611 24.96C13.6005 24.4361 14.8905 24.7907 15.3424 25.752ZM16.8367 25.252C17.2807 25.0479 17.4979 24.5788 17.3218 24.2042C17.1457 23.8297 16.6431 23.6915 16.1991 23.8957C15.7552 24.0998 15.538 24.5689 15.7141 24.9435C15.8901 25.318 16.3928 25.4562 16.8367 25.252Z" fill="black"/>
<path d="M27.2988 5.59666C27.9074 5.4477 28.5451 5.3683 29.2036 5.3683C33.5652 5.3683 37.101 8.86522 37.101 13.1789C37.101 14.1316 36.9292 15.0415 36.6158 15.8818C36.3386 16.6249 36.723 17.4496 37.4744 17.7237C38.2258 17.9978 39.0596 17.6176 39.3367 16.8745C39.7669 15.721 40.0012 14.4754 40.0012 13.1789C40.0012 7.2811 35.167 2.5 29.2036 2.5C28.3084 2.5 27.4368 2.60805 26.6021 2.81237C25.8246 3.00265 25.3504 3.7802 25.5428 4.54906C25.7352 5.31792 26.5214 5.78695 27.2988 5.59666Z" fill="#FD9940"/>
<path d="M28.5801 10.6031C28.7788 10.5563 28.9873 10.5312 29.2036 10.5312C30.6821 10.5312 31.8807 11.7166 31.8807 13.1789C31.8807 13.4981 31.8242 13.801 31.7219 14.0806C31.4492 14.8253 31.8385 15.6477 32.5915 15.9174C33.3445 16.1871 34.176 15.802 34.4487 15.0573C34.6641 14.4691 34.7809 13.8359 34.7809 13.1789C34.7809 10.1325 32.2839 7.66293 29.2036 7.66293C28.7595 7.66293 28.3256 7.71457 27.9086 7.81275C27.1295 7.99616 26.6482 8.76949 26.8337 9.54002C27.0191 10.3105 27.801 10.7865 28.5801 10.6031Z" fill="#FD9940"/>
</svg>
