<svg width="40" height="40" viewBox="0 0 40 40" fill="none" xmlns="http://www.w3.org/2000/svg">
<path d="M20 2.5C10.3477 2.5 2.5 10.3477 2.5 20C2.5 29.6523 10.3477 37.5 20 37.5C29.6523 37.5 37.5 29.6523 37.5 20C37.5 10.3477 29.6523 2.5 20 2.5Z" fill="url(#paint0_radial_4244_9114)"/>
<path fill-rule="evenodd" clip-rule="evenodd" d="M16.4937 18.0728C16.4722 18.0805 16.4467 18.0735 16.4322 18.0558C15.752 17.1605 15.5811 15.6212 15.5395 15.03C15.531 14.9162 15.4023 14.8522 15.2992 14.9094C13.1988 16.0822 11.25 18.8566 11.25 21.5353C11.25 26.1373 14.4652 29.9979 20 29.9979C25.1856 29.9979 28.75 26.0189 28.75 21.5359C28.75 15.6699 24.5334 11.7725 20.7776 10.0107C20.6897 9.96947 20.5732 10.0543 20.5862 10.15C21.0698 13.3112 20.4016 16.7493 16.4937 18.0728Z" fill="white"/>
<defs>
<radialGradient id="paint0_radial_4244_9114" cx="0" cy="0" r="1" gradientUnits="userSpaceOnUse" gradientTransform="translate(20 37.5) scale(37.3916)">
<stop stop-color="#FF7854"/>
<stop offset="1" stop-color="#FD267D"/>
</radialGradient>
</defs>
</svg>
