<svg width="40" height="40" viewBox="0 0 40 40" fill="none" xmlns="http://www.w3.org/2000/svg">
<path d="M20 2.5C10.3477 2.5 2.5 10.3477 2.5 20C2.5 29.6523 10.3477 37.5 20 37.5C29.6523 37.5 37.5 29.6523 37.5 20C37.5 10.3477 29.6523 2.5 20 2.5Z" fill="#021B33"/>
<path d="M18.125 8.75C18.125 12.2872 13.75 15 12.5 15V18.75H16.25V26.25C16.25 29.0114 18.4886 31.25 21.25 31.25H26.25V26.1968C25.7563 26.1968 23.8125 26.1968 22.4991 26.1968C21.8087 26.1968 21.25 25.6372 21.25 24.9468V18.75H26.25V13.75H21.25V8.75H18.125Z" fill="white"/>
</svg>
