<svg width="40" height="40" viewBox="0 0 40 40" fill="none" xmlns="http://www.w3.org/2000/svg">
<path d="M20 2.5C10.3477 2.5 2.5 10.3477 2.5 20C2.5 29.6523 10.3477 37.5 20 37.5C29.6523 37.5 37.5 29.6523 37.5 20C37.5 10.3477 29.6523 2.5 20 2.5Z" fill="#FC471E"/>
<path fill-rule="evenodd" clip-rule="evenodd" d="M25.0241 11.1369C25.0082 11.2373 25 11.3403 25 11.4453C25 12.5054 25.8395 13.3648 26.875 13.3648C27.9105 13.3648 28.75 12.5054 28.75 11.4453C28.75 10.3852 27.9105 9.52587 26.875 9.52587C26.4136 9.52587 25.9911 9.6965 25.6644 9.97949L20.7952 8.75L19.0354 15.9564C16.6942 16.1141 14.5887 16.8399 13.0004 17.9356C12.5494 17.4829 11.9316 17.2037 11.25 17.2037C9.86929 17.2037 8.75 18.3495 8.75 19.7629C8.75 20.7466 9.29207 21.6006 10.0871 22.029C10.0296 22.3343 10 22.6457 10 22.962C10 26.849 14.4772 30 20 30C25.5228 30 30 26.849 30 22.962C30 22.6457 29.9704 22.3343 29.9129 22.029C30.7079 21.6006 31.25 20.7466 31.25 19.7629C31.25 18.3495 30.1307 17.2037 28.75 17.2037C28.0684 17.2037 27.4506 17.4829 26.9996 17.9356C25.2692 16.7418 22.9249 15.9872 20.3308 15.9278L21.7048 10.3018L25.0241 11.1369ZM15.625 23.6018C16.6605 23.6018 17.5 22.7425 17.5 21.6824C17.5 20.6223 16.6605 19.7629 15.625 19.7629C14.5895 19.7629 13.75 20.6223 13.75 21.6824C13.75 22.7425 14.5895 23.6018 15.625 23.6018ZM24.375 23.6018C25.4105 23.6018 26.25 22.7425 26.25 21.6824C26.25 20.6223 25.4105 19.7629 24.375 19.7629C23.3395 19.7629 22.5 20.6223 22.5 21.6824C22.5 22.7425 23.3395 23.6018 24.375 23.6018ZM15.9717 25.6287C15.6845 25.4327 15.2964 25.5122 15.105 25.8062C14.9135 26.1002 14.9911 26.4974 15.2783 26.6935C16.6384 27.6217 18.3192 28.0858 20 28.0858C21.6808 28.0858 23.3616 27.6217 24.7217 26.6935C25.0089 26.4974 25.0865 26.1002 24.895 25.8062C24.7036 25.5122 24.3155 25.4327 24.0283 25.6287C22.8781 26.4137 21.4391 26.8062 20 26.8062C19.1466 26.8062 18.2932 26.6681 17.5 26.3921C16.9557 26.2026 16.4398 25.9482 15.9717 25.6287Z" fill="white"/>
</svg>
