<svg width="40" height="40" viewBox="0 0 40 40" fill="none" xmlns="http://www.w3.org/2000/svg">
<path d="M20 37.5C29.665 37.5 37.5 29.665 37.5 20C37.5 10.335 29.665 2.5 20 2.5C10.335 2.5 2.5 10.335 2.5 20C2.5 29.665 10.335 37.5 20 37.5Z" fill="#F76754"/>
<path d="M12.5 30H16.25V12.5H12.5V30Z" fill="#002C49"/>
<path d="M23.7598 12.5C27.2006 12.5 30 15.3079 30 18.7594C30 22.2005 27.2006 25 23.7598 25C20.3081 25 17.5 22.2005 17.5 18.7594C17.5 15.3079 20.3081 12.5 23.7598 12.5Z" fill="white"/>
</svg>
