<svg width="40" height="40" viewBox="0 0 40 40" fill="none" xmlns="http://www.w3.org/2000/svg">
<path d="M2.5 14.1667C2.5 10.083 2.5 8.04109 3.29474 6.48132C3.99382 5.1093 5.1093 3.99382 6.48132 3.29474C8.04109 2.5 10.083 2.5 14.1667 2.5H25.8333C29.917 2.5 31.9589 2.5 33.5187 3.29474C34.8907 3.99382 36.0062 5.1093 36.7053 6.48132C37.5 8.04109 37.5 10.083 37.5 14.1667V25.8333C37.5 29.917 37.5 31.9589 36.7053 33.5187C36.0062 34.8907 34.8907 36.0062 33.5187 36.7053C31.9589 37.5 29.9171 37.5 25.8333 37.5H14.1667C10.083 37.5 8.04109 37.5 6.48132 36.7053C5.1093 36.0062 3.99382 34.8907 3.29474 33.5187C2.5 31.9589 2.5 29.9171 2.5 25.8333V14.1667Z" fill="#7845F5"/>
<path d="M32.3932 17.8117C32.3932 25.1034 26.5599 30.9367 19.9974 30.9367C13.4349 30.9367 7.60156 25.1034 7.60156 17.8117C7.60156 11.3307 14.7898 7.96034 19.2682 13.1989L19.6328 14.1659H20.362C20.362 14.1659 20.6981 13.1989 20.7266 13.1989C25.205 7.96034 32.3932 11.3307 32.3932 17.8117Z" fill="#F79FEE"/>
<path fill-rule="evenodd" clip-rule="evenodd" d="M15.4427 17.6992C15.4427 20.2161 17.4831 22.2565 20 22.2565C22.5169 22.2565 24.5573 20.2161 24.5573 17.6992H27.1094C27.1094 21.6256 23.9264 24.8086 20 24.8086C16.0736 24.8086 12.8906 21.6256 12.8906 17.6992H15.4427Z" fill="#7845F5"/>
</svg>
