<svg width="40" height="40" viewBox="0 0 40 40" fill="none" xmlns="http://www.w3.org/2000/svg">
<path d="M20 2.5C10.3477 2.5 2.5 10.3477 2.5 20C2.5 29.6523 10.3477 37.5 20 37.5C29.6523 37.5 37.5 29.6523 37.5 20C37.5 10.3477 29.6523 2.5 20 2.5Z" fill="white"/>
<path d="M20.3994 5.23427C20.2245 4.92191 19.7755 4.92191 19.6006 5.23427L14.9545 13.5292C14.8893 13.6456 14.7767 13.7278 14.6461 13.7543L5.36738 15.6383C5.01837 15.7091 4.8801 16.1343 5.12049 16.3975L11.529 23.4124C11.6186 23.5104 11.6613 23.6425 11.6461 23.7745L10.5592 33.2381C10.5184 33.5934 10.8812 33.8567 11.2055 33.7073L19.8087 29.745C19.9301 29.6891 20.0699 29.6891 20.1913 29.745L28.7945 33.7073C29.1188 33.8567 29.4816 33.5934 29.4408 33.2381L28.6456 26.3148C28.6456 26.3148 28.5728 25.6804 28.3539 23.7745C28.3387 23.6425 28.3814 23.5104 28.471 23.4124L34.8795 16.3975C35.1199 16.1343 34.9816 15.7091 34.6326 15.6383L25.3539 13.7543C25.2233 13.7278 25.1107 13.6456 25.0455 13.5292L20.3994 5.23427Z" fill="#FECE48"/>
<path d="M19.1605 20.7626C18.5498 19.3253 14.0465 17.9977 11.8711 17.5135C13.5503 16.382 19.7965 16.4559 22.7097 16.6343C23.4586 16.7204 25.3567 16.9251 26.9978 17.5578C27.089 17.5929 27.1227 17.7024 27.0623 17.7794C26.1635 18.9239 22.9662 21.8869 21.4121 23.2854L20.7634 24.0881C23.2949 24.2283 28.8771 24.4245 30.9532 24.0881C30.2662 24.9673 29.2231 25.9994 28.6633 26.4963C28.7015 26.8021 28.7397 27.299 28.8542 28.1017C18.0766 29.0497 13.703 27.0314 12.8252 25.9229C12.9651 25.7828 14.4281 24.5545 19.1605 20.7626Z" fill="#F6AD46"/>
<path d="M19.5449 15.375C16.6786 15.375 13.4069 16.5324 11.797 17.2724C11.6511 17.3394 11.7024 17.5446 11.863 17.5422C17.9871 17.4536 20.8733 18.068 21.5615 18.5221C21.6341 18.57 21.6266 18.6667 21.5577 18.7198C18.8789 20.784 14.0451 24.7674 12.825 25.781C12.7229 25.8658 12.7732 26.0287 12.9049 26.0447C20.8783 27.0129 28.0774 25.5048 30.8591 24.2C31.0084 24.13 30.9399 23.9328 30.7758 23.9496C26.5569 24.3816 21.8563 23.3018 19.9759 22.6147C19.8666 22.5748 19.8453 22.4336 19.9355 22.3599C21.4924 21.0892 24.639 18.5244 26.481 17.0352C26.5615 16.9702 26.5551 16.8457 26.4676 16.7904C25.0631 15.9031 23.4641 15.375 19.5449 15.375Z" fill="white"/>
</svg>
