<svg width="40" height="40" viewBox="0 0 40 40" fill="none" xmlns="http://www.w3.org/2000/svg">
<path fill-rule="evenodd" clip-rule="evenodd" d="M20 37.5C29.665 37.5 37.5 29.665 37.5 20C37.5 10.335 29.665 2.5 20 2.5C10.335 2.5 2.5 10.335 2.5 20C2.5 29.665 10.335 37.5 20 37.5Z" fill="#1FB6FF"/>
<path fill-rule="evenodd" clip-rule="evenodd" d="M18.2558 16.1515C19.5373 16.1654 17.2813 22.8173 17.5235 25.7091C17.7677 28.6266 20.996 27.7866 20.7911 26.1071C20.4425 23.2518 22.3445 14.3048 24.2734 14.3048C25.6268 14.3048 22.7744 20.4727 23.3357 24.4224C23.707 27.0355 27.0775 26.129 26.735 24.5796C25.602 19.4519 29.1125 14.5238 28.7191 11.0322C28.547 9.5045 27.6282 8.75738 26.7092 8.75007C23.4916 8.72531 21.006 15.324 21.006 15.324C21.006 15.324 21.2649 11.5735 18.7641 11.4358C14.9353 11.2248 11.1449 20.8072 11.2522 29.3634C11.2865 32.093 14.6837 31.6281 14.5051 29.4518C14.1729 25.4045 16.4293 16.1319 18.2558 16.1515Z" fill="white"/>
</svg>
