<svg width="40" height="40" viewBox="0 0 40 40" fill="none" xmlns="http://www.w3.org/2000/svg">
<path d="M19.2708 37.5H20.7292C28.6625 37.5 32.6146 37.5 35.0646 35.05C37.5 32.6 37.5 28.6333 37.5 20.7292V19.2417C37.5 11.3667 37.5 7.4 35.0646 4.95C32.6146 2.5 28.6479 2.5 20.7292 2.5H19.2708C11.3375 2.5 7.38542 2.5 4.93542 4.95C2.5 7.4 2.5 11.3667 2.5 19.2708V20.7583C2.5 28.6333 2.5 32.6 4.95 35.05C7.4 37.5 11.3667 37.5 19.2708 37.5Z" fill="#0077FF"/>
<path d="M21.0048 27.5C13.3175 27.5 8.9327 22.3386 8.75 13.75H12.6007C12.7272 20.0538 15.5661 22.724 17.8146 23.2745V13.75H21.4405V19.1867C23.661 18.9527 25.9939 16.4752 26.7809 13.75H30.4068C30.1102 15.1634 29.5191 16.5016 28.6703 17.681C27.8215 18.8604 26.7334 19.8556 25.4739 20.6044C26.8798 21.2885 28.1215 22.2568 29.1171 23.4455C30.1128 24.6341 30.8397 26.016 31.25 27.5H27.2587C26.8904 26.211 26.1419 25.0572 25.1069 24.1831C24.0719 23.309 22.7965 22.7536 21.4405 22.5863V27.5H21.0048Z" fill="white"/>
</svg>
