<svg width="40" height="40" viewBox="0 0 40 40" fill="none" xmlns="http://www.w3.org/2000/svg">
<g filter="url(#filter0_i_4070_1262)">
<path fill-rule="evenodd" clip-rule="evenodd" d="M29.0778 14.6646C27.4945 14.5479 25.8445 14.5479 24.2445 14.6646C18.2611 15.0479 13.3611 19.7313 12.9611 25.7646C12.8944 26.7479 12.8944 27.7312 12.9611 28.6979C13.0278 29.7645 13.2445 30.7646 13.5612 31.7312C13.8112 32.4479 13.9278 32.7979 13.7944 32.9979C13.7444 33.0812 13.6777 33.1312 13.5944 33.1646C13.3777 33.2812 13.0112 33.1146 12.2778 32.7479H12.1777C12.1444 32.7479 12.0945 32.7479 12.0612 32.7646C11.9445 32.7813 11.8779 32.8312 11.7279 32.9479L11.5944 33.0479C10.3277 33.9812 8.72777 34.6312 6.4611 34.5812H6.39453L6.36427 34.5801C5.93955 34.5638 5.48559 34.5463 5.11117 34.4812C4.6445 34.3979 4.06117 34.1645 3.6945 33.5479C3.2945 32.8645 3.46117 32.1813 3.61117 31.7646C3.76117 31.3646 3.99447 30.9145 4.24447 30.4479L4.27783 30.3812C5.01117 28.9812 5.21113 27.8812 4.8278 27.1479C3.51113 25.1646 2.32786 22.6979 2.14453 19.9812C2.0612 18.6146 2.0612 17.1979 2.14453 15.8312C2.6112 8.51457 8.37786 2.68119 15.6445 2.19786C17.9445 2.04786 20.3611 2.04786 22.6777 2.19786C29.9444 2.68119 35.7111 8.51457 36.1777 15.8312L36.1779 15.8335C36.2111 16.3653 36.2277 16.6314 36.1445 16.7646C36.0445 16.9146 35.9111 16.9812 35.7611 16.9979C35.6048 17.0135 35.3752 16.8679 34.9348 16.5885C34.9056 16.57 34.8755 16.5509 34.8444 16.5312C33.1611 15.4645 31.1778 14.7979 29.0778 14.6646ZM12.2778 32.7479C12.2778 32.7479 12.3112 32.7646 12.2778 32.7646C12.2695 32.7563 12.2737 32.7563 12.2778 32.7562C12.282 32.7562 12.2862 32.7562 12.2778 32.7479Z" fill="#F02731"/>
<path d="M24.4147 17.1565C25.8952 17.0615 27.4386 17.0617 28.916 17.1565C33.7041 17.4636 37.5549 21.2028 37.8723 25.9429C37.9297 26.7996 37.9297 27.685 37.8723 28.5417C37.753 30.3233 36.9568 31.9017 36.1064 33.1466C36.0631 33.2384 36.0353 33.3802 36.076 33.6201C36.1237 33.9006 36.255 34.2411 36.4619 34.6194L36.491 34.6727C36.6401 34.9449 36.8116 35.2581 36.9144 35.5358C37.0266 35.8388 37.1917 36.4486 36.8187 37.0624C36.4878 37.6067 35.9694 37.785 35.6208 37.8501C35.343 37.902 35.0137 37.9094 34.7518 37.9153L34.6953 37.9166C33.1702 37.9524 32.0685 37.5241 31.192 36.9004L31.0588 36.8058C30.9794 36.8369 30.889 36.8727 30.783 36.9149C30.1906 37.1503 29.5261 37.2889 28.916 37.328C27.4386 37.4228 25.8952 37.423 24.4147 37.328C19.6267 37.0209 15.7759 33.2817 15.4584 28.5417C15.401 27.685 15.401 26.7996 15.4584 25.9429C15.7759 21.2028 19.6267 17.4636 24.4147 17.1565Z" fill="#F02731"/>
</g>
<defs>
<filter id="filter0_i_4070_1262" x="2.08203" y="2.08536" width="35.834" height="41.8333" filterUnits="userSpaceOnUse" color-interpolation-filters="sRGB">
<feFlood flood-opacity="0" result="BackgroundImageFix"/>
<feBlend mode="normal" in="SourceGraphic" in2="BackgroundImageFix" result="shape"/>
<feColorMatrix in="SourceAlpha" type="matrix" values="0 0 0 0 0 0 0 0 0 0 0 0 0 0 0 0 0 0 127 0" result="hardAlpha"/>
<feOffset dy="6"/>
<feGaussianBlur stdDeviation="3.33333"/>
<feComposite in2="hardAlpha" operator="arithmetic" k2="-1" k3="1"/>
<feColorMatrix type="matrix" values="0 0 0 0 1 0 0 0 0 1 0 0 0 0 1 0 0 0 0.5 0"/>
<feBlend mode="normal" in2="shape" result="effect1_innerShadow_4070_1262"/>
</filter>
</defs>
</svg>
