<svg width="32" height="32" viewBox="0 0 32 32" fill="none" xmlns="http://www.w3.org/2000/svg">
<path d="M1.66602 14.066C1.66602 7.17268 7.83268 1.66602 15.3327 1.66602C22.8327 1.66602 28.9993 7.17268 28.9993 14.066C28.9993 14.2793 28.9927 14.506 28.9794 14.7327C27.1607 13.026 24.6807 11.9993 21.9993 11.9993C16.5887 11.9993 11.9993 16.1993 11.9993 21.6126C11.9993 23.3326 12.4647 24.9327 13.2727 26.3194C12.2287 26.1727 11.2233 25.9193 10.27 25.5727L4.20866 27.666L5.36732 22.546C3.07798 20.3326 1.66602 17.346 1.66602 14.066Z" fill="white"/>
<path d="M21.9993 13.666C26.5727 13.666 30.3327 17.1993 30.3327 21.6126C30.3327 23.7193 29.4713 25.6261 28.0753 27.0527L28.782 30.3327L25.086 28.9993C24.1313 29.3594 23.0887 29.5594 21.9993 29.5594C17.426 29.5594 13.666 26.026 13.666 21.6126C13.666 17.1993 17.426 13.666 21.9993 13.666Z" fill="white"/>
</svg>
