<svg width="60" height="60" viewBox="0 0 60 60" fill="none" xmlns="http://www.w3.org/2000/svg">
<path fill-rule="evenodd" clip-rule="evenodd" d="M12.5098 4.99878C8.36764 4.99878 5.00977 8.35665 5.00977 12.4988V47.4988C5.00977 51.641 8.36764 54.9988 12.5098 54.9988H50.0098C51.3905 54.9988 52.5098 53.8795 52.5098 52.4988C52.5098 51.118 51.3905 49.9988 50.0098 49.9988H47.5098V12.4988C47.5098 8.35665 44.152 4.99878 40.0098 4.99878H12.5098ZM17.5098 18.1238C16.4742 18.1238 15.6348 18.9633 15.6348 19.9988C15.6348 21.0343 16.4742 21.8738 17.5098 21.8738H35.0098C36.0453 21.8738 36.8848 21.0343 36.8848 19.9988C36.8848 18.9633 36.0453 18.1238 35.0098 18.1238H17.5098ZM17.5098 31.8738H35.0098C36.0453 31.8738 36.8848 31.0343 36.8848 29.9988C36.8848 28.9633 36.0453 28.1238 35.0098 28.1238H17.5098C16.4742 28.1238 15.6348 28.9633 15.6348 29.9988C15.6348 31.0343 16.4742 31.8738 17.5098 31.8738ZM17.5098 38.1238C16.4742 38.1238 15.6348 38.9633 15.6348 39.9988C15.6348 41.0343 16.4742 41.8738 17.5098 41.8738H25.0098C26.0453 41.8738 26.8848 41.0343 26.8848 39.9988C26.8848 38.9633 26.0453 38.1238 25.0098 38.1238H17.5098Z" fill="#F02731"/>
<path fill-rule="evenodd" clip-rule="evenodd" d="M42.5098 20.0012C42.5098 18.6205 43.629 17.5012 45.0098 17.5012H50.0098C54.152 17.5012 57.5098 20.8591 57.5098 25.0012V47.5012C57.5098 51.6435 54.152 55.0012 50.0098 55.0012C45.8675 55.0012 42.5098 51.6435 42.5098 47.5012V20.0012ZM47.5098 22.5012V47.5012C47.5098 48.882 48.629 50.0012 50.0098 50.0012C51.3905 50.0012 52.5098 48.882 52.5098 47.5012V25.0012C52.5098 23.6205 51.3905 22.5012 50.0098 22.5012H47.5098Z" fill="#F02731"/>
</svg>
