<svg width="16" height="16" viewBox="0 0 16 16" fill="none" xmlns="http://www.w3.org/2000/svg">
<path fill-rule="evenodd" clip-rule="evenodd" d="M3.33594 1.33301C2.23137 1.33301 1.33594 2.22844 1.33594 3.33301V12.6663C1.33594 13.7709 2.23137 14.6663 3.33594 14.6663H13.3359C13.7041 14.6663 14.0026 14.3679 14.0026 13.9997C14.0026 13.6315 13.7041 13.333 13.3359 13.333H12.6693V3.33301C12.6693 2.22844 11.7739 1.33301 10.6693 1.33301H3.33594ZM4.66927 4.83301C4.39313 4.83301 4.16927 5.05687 4.16927 5.33301C4.16927 5.60915 4.39313 5.83301 4.66927 5.83301H9.33594C9.61207 5.83301 9.83594 5.60915 9.83594 5.33301C9.83594 5.05687 9.61207 4.83301 9.33594 4.83301H4.66927ZM4.66927 8.49967H9.33594C9.61207 8.49967 9.83594 8.27581 9.83594 7.99967C9.83594 7.72354 9.61207 7.49967 9.33594 7.49967H4.66927C4.39313 7.49967 4.16927 7.72354 4.16927 7.99967C4.16927 8.27581 4.39313 8.49967 4.66927 8.49967ZM4.66927 10.1663C4.39313 10.1663 4.16927 10.3902 4.16927 10.6663C4.16927 10.9425 4.39313 11.1663 4.66927 11.1663H6.66927C6.9454 11.1663 7.16927 10.9425 7.16927 10.6663C7.16927 10.3902 6.9454 10.1663 6.66927 10.1663H4.66927Z" fill="white"/>
<path fill-rule="evenodd" clip-rule="evenodd" d="M11.3359 5.33366C11.3359 4.96547 11.6344 4.66699 12.0026 4.66699H13.3359C14.4405 4.66699 15.3359 5.56243 15.3359 6.66699V12.667C15.3359 13.7716 14.4405 14.667 13.3359 14.667C12.2313 14.667 11.3359 13.7716 11.3359 12.667V5.33366ZM12.6693 6.00033V12.667C12.6693 13.0352 12.9677 13.3337 13.3359 13.3337C13.7041 13.3337 14.0026 13.0352 14.0026 12.667V6.66699C14.0026 6.29881 13.7041 6.00033 13.3359 6.00033H12.6693Z" fill="white"/>
</svg>
