<svg width="32" height="32" viewBox="0 0 32 32" fill="none" xmlns="http://www.w3.org/2000/svg">
<path d="M18.5886 8.44942C20.766 9.68632 22.4769 10.6583 23.6958 11.5487C24.923 12.4452 25.8308 13.3822 26.1558 14.6177C26.3942 15.5235 26.3942 16.4766 26.1558 17.3825C25.8308 18.618 24.923 19.5549 23.6958 20.4514C22.4769 21.3418 20.766 22.3138 18.5888 23.5507C16.4856 24.7456 14.712 25.7531 13.3656 26.3259C12.0084 26.9031 10.771 27.1958 9.56845 26.855C8.68466 26.6045 7.88052 26.1291 7.23272 25.4755C6.35356 24.5886 6.00065 23.3626 5.83369 21.8873C5.66794 20.4226 5.66796 18.5054 5.66797 16.0669V15.9333C5.66796 13.4948 5.66794 11.5775 5.83369 10.1129C6.00065 8.63755 6.35356 7.41156 7.23272 6.52455C7.88052 5.87098 8.68466 5.39563 9.56845 5.14519C10.771 4.80442 12.0084 5.097 13.3656 5.67428C14.712 6.24696 16.4856 7.25454 18.5886 8.44942Z" fill="white"/>
</svg>
