<svg width="14" height="13" viewBox="0 0 14 13" fill="none" xmlns="http://www.w3.org/2000/svg">
<path d="M6.57426 0C6.748 0 6.90683 0.0981552 6.98456 0.253546L8.65301 3.59045C8.74854 3.78159 8.69943 4.01342 8.53461 4.1494C8.36374 4.29034 8.25605 4.50218 8.25605 4.73958C8.25605 5.1618 8.59834 5.50403 9.0205 5.50403C9.44272 5.50403 9.78495 5.1618 9.78495 4.73958C9.78495 4.66546 9.77455 4.59452 9.75535 4.5278C9.69798 4.32807 9.78201 4.11472 9.96022 4.0078L12.4539 2.5116C12.6163 2.41415 12.8219 2.42656 12.9714 2.54282C13.1209 2.65908 13.1836 2.85529 13.1292 3.0367L11.2945 9.15229C11.2363 9.34627 11.0577 9.47917 10.8552 9.47917H2.29337C2.09082 9.47917 1.91225 9.34627 1.85405 9.15229L0.0193675 3.0367C-0.0350551 2.85529 0.0276236 2.65908 0.177144 2.54282C0.326664 2.42656 0.532264 2.41415 0.694676 2.5116L3.18835 4.0078C3.36654 4.11472 3.45059 4.32807 3.39319 4.5278C3.37402 4.59452 3.3636 4.66546 3.3636 4.73958C3.3636 5.1618 3.70585 5.50403 4.12805 5.50403C4.55024 5.50403 4.8925 5.1618 4.8925 4.73958C4.8925 4.50218 4.78484 4.29034 4.61397 4.1494C4.44911 4.01342 4.40001 3.78159 4.49558 3.59045L6.16403 0.253546C6.24176 0.0981552 6.40058 0 6.57426 0Z" fill="#F02731"/>
<path fill-rule="evenodd" clip-rule="evenodd" d="M2.24097 11.1042C2.24097 10.805 2.48348 10.5625 2.78263 10.5625H10.366C10.6651 10.5625 10.9076 10.805 10.9076 11.1042C10.9076 11.4033 10.6651 11.6458 10.366 11.6458H2.78263C2.48348 11.6458 2.24097 11.4033 2.24097 11.1042Z" fill="#F02731"/>
</svg>
