<svg width="16" height="16" viewBox="0 0 16 16" fill="none" xmlns="http://www.w3.org/2000/svg">
<path fill-rule="evenodd" clip-rule="evenodd" d="M8.4458 1.11173C8.3616 0.941061 8.18773 0.833008 7.99746 0.833008C7.80713 0.833008 7.63326 0.941061 7.54906 1.11173L6.78026 2.66953L4.94234 2.8732C4.74475 2.8951 4.5789 3.03198 4.51992 3.22183C4.46095 3.41169 4.52005 3.61845 4.67046 3.74845L6.0069 4.90355L5.65425 6.56237C5.61396 6.75187 5.68676 6.94754 5.84107 7.06467C5.99538 7.18174 6.20346 7.19914 6.3751 7.10934L7.99746 6.26063L9.61973 7.10934C9.7914 7.19914 9.99946 7.18174 10.1538 7.06467C10.3081 6.94754 10.3809 6.75187 10.3406 6.56237L9.98793 4.90355L11.3244 3.74844C11.4748 3.61844 11.5339 3.41169 11.4749 3.22183C11.4159 3.03197 11.2501 2.8951 11.0525 2.8732L9.2146 2.66953L8.4458 1.11173ZM6.66406 8.16641C6.01973 8.16641 5.4974 8.68874 5.4974 9.33307V9.34334C5.4428 9.33654 5.38718 9.33301 5.33073 9.33301H2.66406C1.92768 9.33301 1.33073 9.92994 1.33073 10.6663V13.9997C0.962543 13.9997 0.664062 14.2981 0.664062 14.6663C0.664062 15.0345 0.962543 15.333 1.33073 15.333H14.6641C15.0323 15.333 15.3307 15.0345 15.3307 14.6663C15.3307 14.2981 15.0323 13.9997 14.6641 13.9997V11.9997C14.6641 11.2633 14.0671 10.6663 13.3307 10.6663H10.6641C10.6076 10.6663 10.552 10.6699 10.4974 10.6767V9.33307C10.4974 8.68874 9.97506 8.16641 9.33073 8.16641H6.66406ZM5.33073 13.9997H2.66406V10.6663H5.33073V13.9997ZM13.3307 13.9997H10.6641V11.9997H13.3307V13.9997Z" fill="white"/>
</svg>
