<svg width="16" height="16" viewBox="0 0 16 16" fill="none" xmlns="http://www.w3.org/2000/svg">
<path fill-rule="evenodd" clip-rule="evenodd" d="M3.49972 0.888672C2.54976 0.887991 1.7793 1.65789 1.7793 2.60786V12.6095C1.7793 13.559 2.549 14.3287 3.49848 14.3287H12.2507C13.2002 14.3287 13.9699 13.559 13.9699 12.6095V2.61419C13.9699 1.66519 13.2009 0.895693 12.2519 0.895005L3.49972 0.888672ZM4.7488 5.42015C4.40353 5.42015 4.12364 5.70004 4.12364 6.04531C4.12364 6.3906 4.40353 6.67049 4.7488 6.67049H10.3752C10.7205 6.67049 11.0004 6.3906 11.0004 6.04531C11.0004 5.70004 10.7205 5.42015 10.3752 5.42015H4.7488ZM4.7488 8.54596C4.40353 8.54596 4.12364 8.82584 4.12364 9.17112C4.12364 9.51639 4.40353 9.79628 4.7488 9.79628H7.59677C7.94198 9.79628 8.22192 9.51639 8.22192 9.17112C8.22192 8.82584 7.94198 8.54596 7.59677 8.54596H4.7488Z" fill="white"/>
</svg>
