<svg width="20" height="20" viewBox="0 0 20 20" fill="none" xmlns="http://www.w3.org/2000/svg">
<path fill-rule="evenodd" clip-rule="evenodd" d="M9.16634 0.833008C4.56397 0.833008 0.833008 4.56397 0.833008 9.16634C0.833008 13.7687 4.56397 17.4997 9.16634 17.4997C11.1674 17.4997 13.0037 16.7944 14.4403 15.6188L17.7438 18.9223C18.0692 19.2477 18.5968 19.2477 18.9223 18.9223C19.2477 18.5968 19.2477 18.0692 18.9223 17.7437L15.6188 14.4403C16.7944 13.0037 17.4997 11.1674 17.4997 9.16634C17.4997 4.56397 13.7687 0.833008 9.16634 0.833008ZM2.49967 9.16634C2.49967 5.48444 5.48444 2.49967 9.16634 2.49967C12.8482 2.49967 15.833 5.48444 15.833 9.16634C15.833 12.8482 12.8482 15.833 9.16634 15.833C5.48444 15.833 2.49967 12.8482 2.49967 9.16634Z" fill="white"/>
</svg>
