<svg width="20" height="20" viewBox="0 0 20 20" fill="none" xmlns="http://www.w3.org/2000/svg">
<path d="M17.9984 2.11946C17.6089 1.69997 16.9981 1.54284 16.4147 1.4866C15.8016 1.42751 15.0673 1.46681 14.2768 1.5705C12.6913 1.77846 10.7759 2.25983 8.93583 2.85212C7.09466 3.44477 5.29993 4.15786 3.95586 4.84104C3.28694 5.18105 2.70677 5.52508 2.285 5.85553C2.07498 6.02008 1.88334 6.19731 1.73918 6.38596C1.60168 6.56589 1.45701 6.82189 1.459 7.1305C1.46423 7.94057 2.01589 8.51307 2.60338 8.89734C3.20302 9.28957 3.98397 9.58512 4.76033 9.81664C5.54502 10.0506 6.3702 10.232 7.0796 10.379C7.12608 10.3886 7.21901 10.4078 7.33287 10.4313C7.76167 10.5199 7.97608 10.5642 8.17762 10.5039C8.37917 10.4436 8.53411 10.2886 8.844 9.97876L11.9114 6.91139C12.2368 6.58596 12.7645 6.58596 13.0899 6.9114C13.4153 7.23683 13.4153 7.76447 13.0899 8.08991L10.2294 10.9504C9.91349 11.2663 9.75556 11.4242 9.69578 11.6292C9.63601 11.8342 9.68421 12.0518 9.78061 12.487C10.1544 14.1743 10.4788 15.5685 10.8026 16.5066C10.9917 17.0544 11.2044 17.5287 11.4738 17.8784C11.755 18.2434 12.1375 18.5191 12.6409 18.5414C12.9543 18.5552 13.2149 18.4121 13.3936 18.2794C13.5819 18.1395 13.759 17.9518 13.9232 17.7467C14.2533 17.3344 14.6 16.7639 14.945 16.1046C15.6383 14.7796 16.3725 13.003 16.9937 11.1753C17.6146 9.34839 18.1321 7.44282 18.3813 5.85907C18.5056 5.06923 18.5671 4.33571 18.5329 3.72129C18.5005 3.13862 18.3764 2.52653 17.9984 2.11946Z" fill="white"/>
</svg>
