<svg width="20" height="20" viewBox="0 0 20 20" fill="none" xmlns="http://www.w3.org/2000/svg">
<path d="M2.00159 2.11879C2.39112 1.69929 3.00187 1.54217 3.58534 1.48593C4.19841 1.42684 4.93272 1.46614 5.72324 1.56983C7.30872 1.77779 9.22415 2.25916 11.0642 2.85145C12.9053 3.4441 14.7001 4.15719 16.0441 4.84037C16.7131 5.18038 17.2932 5.52441 17.715 5.85486C17.925 6.01941 18.1167 6.19664 18.2608 6.38529C18.3983 6.56522 18.543 6.82122 18.541 7.12983C18.5358 7.93989 17.9841 8.51239 17.3966 8.89667C16.797 9.28889 16.016 9.58445 15.2397 9.81597C14.455 10.05 13.6298 10.2313 12.9204 10.3783C12.8739 10.3879 12.781 10.4071 12.6671 10.4307C12.2383 10.5193 12.0239 10.5636 11.8224 10.5032C11.6208 10.4429 11.4659 10.288 11.156 9.97809L8.08862 6.91072C7.76318 6.58529 7.23554 6.58529 6.9101 6.91073C6.58467 7.23616 6.58467 7.7638 6.91011 8.08924L9.77064 10.9498C10.0865 11.2656 10.2444 11.4236 10.3042 11.6286C10.364 11.8336 10.3158 12.0512 10.2194 12.4864C9.84565 14.1736 9.52119 15.5679 9.19744 16.5059C9.00835 17.0538 8.79561 17.528 8.52618 17.8777C8.24498 18.2427 7.86254 18.5185 7.35912 18.5407C7.04572 18.5546 6.78514 18.4114 6.6064 18.2787C6.41808 18.1388 6.24099 17.9512 6.07678 17.746C5.74673 17.3337 5.39999 16.7632 5.05502 16.1039C4.36168 14.7789 3.6275 13.0023 3.0063 11.1746C2.38535 9.34772 1.8679 7.44215 1.61866 5.8584C1.49436 5.06856 1.43287 4.33504 1.46705 3.72062C1.49947 3.13794 1.62358 2.52586 2.00159 2.11879Z" fill="white" fill-opacity="0.7"/>
</svg>
