<svg width="20" height="20" viewBox="0 0 20 20" fill="none" xmlns="http://www.w3.org/2000/svg">
<path d="M2.00159 2.1188C2.39112 1.69931 3.00187 1.54218 3.58534 1.48595C4.19841 1.42685 4.93272 1.46615 5.72324 1.56984C7.30872 1.7778 9.22415 2.25918 11.0642 2.85146C12.9053 3.44412 14.7001 4.15721 16.0441 4.84038C16.7131 5.18039 17.2932 5.52443 17.715 5.85488C17.925 6.01942 18.1167 6.19666 18.2608 6.38531C18.3983 6.56523 18.543 6.82124 18.541 7.12985C18.5358 7.93991 17.9841 8.51241 17.3966 8.89669C16.797 9.28891 16.016 9.58447 15.2397 9.81598C14.455 10.05 13.6298 10.2313 12.9204 10.3783C12.8739 10.3879 12.781 10.4072 12.6671 10.4307C12.2383 10.5193 12.0239 10.5636 11.8224 10.5033C11.6208 10.4429 11.4659 10.288 11.156 9.9781L8.08862 6.91074C7.76318 6.5853 7.23554 6.5853 6.9101 6.91074C6.58467 7.23618 6.58467 7.76382 6.91011 8.08925L9.77064 10.9498C10.0865 11.2656 10.2444 11.4236 10.3042 11.6286C10.364 11.8336 10.3158 12.0512 10.2194 12.4864C9.84565 14.1737 9.52119 15.5679 9.19744 16.5059C9.00835 17.0538 8.79561 17.528 8.52618 17.8777C8.24498 18.2427 7.86254 18.5185 7.35912 18.5407C7.04572 18.5546 6.78514 18.4115 6.6064 18.2787C6.41808 18.1388 6.24099 17.9512 6.07678 17.7461C5.74673 17.3338 5.39999 16.7632 5.05502 16.1039C4.36168 14.7789 3.6275 13.0023 3.0063 11.1747C2.38535 9.34774 1.8679 7.44216 1.61866 5.85841C1.49436 5.06858 1.43287 4.33506 1.46705 3.72063C1.49947 3.13796 1.62358 2.52588 2.00159 2.1188Z" fill="white" fill-opacity="0.7"/>
</svg>
