<svg width="32" height="32" viewBox="0 0 32 32" fill="none" xmlns="http://www.w3.org/2000/svg">
<path fill-rule="evenodd" clip-rule="evenodd" d="M12.0646 1.66699C11.5124 1.66699 11.0646 2.11471 11.0646 2.66699V5.53677L9.54067 6.43227L7.111 5.00701C6.88017 4.87161 6.60472 4.83437 6.34623 4.90362C6.08775 4.97287 5.8678 5.14285 5.73559 5.37551L1.79869 12.3037C1.52849 12.7792 1.69041 13.3835 2.16216 13.6603L4.60349 15.0925V16.9083L2.16229 18.3403C1.69055 18.6171 1.52863 19.2214 1.79883 19.697L5.73572 26.6251C5.86793 26.8578 6.08787 27.0278 6.34636 27.097C6.60485 27.1663 6.88031 27.129 7.11113 26.9937L9.54073 25.5685L11.0646 26.4639V29.3337C11.0646 29.8859 11.5124 30.3337 12.0646 30.3337H19.9384C20.4907 30.3337 20.9384 29.8859 20.9384 29.3337V26.4639L22.4623 25.5685L24.8917 26.9937C25.1227 27.129 25.3981 27.1663 25.6565 27.097C25.9151 27.0278 26.1351 26.8578 26.2672 26.6251L30.2041 19.697C30.4743 19.2214 30.3124 18.6171 29.8407 18.3403L27.3996 16.9083V15.0923L29.8408 13.6603C30.3125 13.3835 30.4744 12.7792 30.2043 12.3037L26.2673 5.37551C26.1352 5.14285 25.9152 4.97287 25.6567 4.90362C25.3983 4.83437 25.1228 4.87161 24.8919 5.00701L22.4623 6.43223L20.9384 5.53677V2.66699C20.9384 2.11471 20.4907 1.66699 19.9384 1.66699H12.0646ZM16.0013 20.667C18.5787 20.667 20.668 18.5777 20.668 16.0003C20.668 13.423 18.5787 11.3337 16.0013 11.3337C13.424 11.3337 11.3346 13.423 11.3346 16.0003C11.3346 18.5777 13.424 20.667 16.0013 20.667Z" fill="white"/>
</svg>
