<svg width="20" height="20" viewBox="0 0 20 20" fill="none" xmlns="http://www.w3.org/2000/svg">
<path d="M15 2.29163C13.2741 2.29163 11.875 3.69074 11.875 5.41663C11.875 5.58127 11.8877 5.74293 11.9123 5.90069L7.39061 7.98724C6.81737 7.30707 5.95915 6.87496 5 6.87496C3.27411 6.87496 1.875 8.27407 1.875 9.99996C1.875 11.7258 3.27411 13.125 5 13.125C5.95832 13.125 6.81588 12.6936 7.38912 12.0144L11.9119 14.1015C11.8876 14.2585 11.875 14.4194 11.875 14.5833C11.875 16.3092 13.2741 17.7083 15 17.7083C16.7259 17.7083 18.125 16.3092 18.125 14.5833C18.125 12.8574 16.7259 11.4583 15 11.4583C14.035 11.4583 13.1722 11.8957 12.599 12.583L8.08519 10.5001C8.11139 10.3372 8.125 10.1702 8.125 9.99996C8.125 9.83052 8.11152 9.66423 8.08556 9.50211L12.6004 7.41869C13.1737 8.105 14.0359 8.54163 15 8.54163C16.7259 8.54163 18.125 7.14252 18.125 5.41663C18.125 3.69074 16.7259 2.29163 15 2.29163Z" fill="white"/>
</svg>
