<svg width="24" height="24" viewBox="0 0 24 24" fill="none" xmlns="http://www.w3.org/2000/svg">
<path d="M14.7109 2.25013C16.2725 2.25013 17.3703 2.22218 18.4062 2.99525C19.4328 3.76159 19.6798 4.66966 20.0586 5.94544C20.5461 7.58796 21.0667 9.88201 21.4218 12.9249L21.4277 12.9787C21.6284 14.698 21.7898 16.0779 21.7412 17.1925C21.6903 18.3581 21.4082 19.3211 20.663 20.1583C19.9081 21.0065 18.9348 21.3919 17.7197 21.5744C16.5487 21.7502 15.0531 21.7502 13.1738 21.7501H10.8261C8.94683 21.7502 7.4512 21.7502 6.28021 21.5744C5.06503 21.3919 4.09177 21.0065 3.33686 20.1583C2.59167 19.3211 2.30961 18.3581 2.25873 17.1925C2.21011 16.0779 2.37154 14.698 2.57221 12.9787L2.57807 12.9249C2.93319 9.88202 3.45376 7.58796 3.94135 5.94544C4.32014 4.66944 4.56766 3.76167 5.59467 2.99525C6.63058 2.22226 7.72744 2.25013 9.289 2.25013H14.7109ZM15 6.00013C14.4477 6.00013 14 6.44784 14 7.00013C14 8.1047 13.1045 9.00013 12 9.00013C10.8954 9.00013 9.99998 8.1047 9.99998 7.00013C9.99998 6.44784 9.55223 6.00013 8.99994 6.00013C8.44766 6.00013 7.99994 6.44784 7.99994 7.00013C7.99994 9.20927 9.7908 11.0001 12 11.0001C14.2091 11.0001 16 9.20927 16 7.00013C16 6.44784 15.5522 6.00013 15 6.00013Z" fill="white"/>
</svg>
