<svg width="85" height="85" viewBox="0 0 85 85" fill="none" xmlns="http://www.w3.org/2000/svg">
<g clip-path="url(#clip0_145_1944)">
<path d="M42.5 0C19.0646 0 0 19.0646 0 42.5C0 65.9354 19.0646 85 42.5 85C65.9354 85 85 65.9354 85 42.5C85 19.0646 65.9354 0 42.5 0ZM61.0938 46.0415H46.0415V61.0938C46.0415 63.049 44.4552 64.6352 42.5 64.6352C40.5448 64.6352 38.9585 63.049 38.9585 61.0938V46.0415H23.9062C21.951 46.0415 20.3648 44.4552 20.3648 42.5C20.3648 40.5448 21.951 38.9585 23.9062 38.9585H38.9585V23.9062C38.9585 21.951 40.5448 20.3648 42.5 20.3648C44.4552 20.3648 46.0415 21.951 46.0415 23.9062V38.9585H61.0938C63.049 38.9585 64.6352 40.5448 64.6352 42.5C64.6352 44.4552 63.049 46.0415 61.0938 46.0415Z" fill="white"/>
</g>
<defs>
<clipPath id="clip0_145_1944">
<rect width="85" height="85" fill="white"/>
</clipPath>
</defs>
</svg>
