<svg width="85" height="85" viewBox="0 0 85 85" fill="none" xmlns="http://www.w3.org/2000/svg">
<g clip-path="url(#clip0_145_1666)">
<path d="M80.75 4.25H68V0H17V4.25H4.25C1.7 4.25 0 5.95 0 8.5V18.7C0 28.475 7.225 36.55 17 37.825V38.25C17 50.575 25.5 60.775 36.975 63.325L34 72.25H24.225C22.525 72.25 20.825 73.525 20.4 75.225L17 85H68L64.6 75.225C64.175 73.525 62.475 72.25 60.775 72.25H51L48.025 63.325C59.5 60.775 68 50.575 68 38.25V37.825C77.775 36.55 85 28.475 85 18.7V8.5C85 5.95 83.3 4.25 80.75 4.25ZM17 29.325C12.325 28.05 8.5 23.8 8.5 18.7V12.75H17V29.325ZM51 42.5L42.5 37.825L34 42.5L36.125 34L29.75 25.5H38.675L42.5 17L46.325 25.5H55.25L48.875 34L51 42.5ZM76.5 18.7C76.5 23.8 72.675 28.475 68 29.325V12.75H76.5V18.7Z" fill="white"/>
</g>
<defs>
<clipPath id="clip0_145_1666">
<rect width="85" height="85" fill="white"/>
</clipPath>
</defs>
</svg>
