<svg width="20" height="20" viewBox="0 0 20 20" fill="none" xmlns="http://www.w3.org/2000/svg">
<g clip-path="url(#clip0_145_3057)">
<path d="M16.9309 3.6426C15.6342 3.04743 14.2658 2.623 12.86 2.37995C12.8472 2.37757 12.834 2.37928 12.8222 2.38484C12.8105 2.39039 12.8008 2.39951 12.7945 2.41089C12.6187 2.72358 12.424 3.13147 12.2876 3.4521C10.7504 3.22194 9.22101 3.22194 7.7153 3.4521C7.5789 3.12436 7.3771 2.72358 7.2005 2.41089C7.19397 2.39975 7.18423 2.39083 7.17256 2.38531C7.16089 2.3798 7.14782 2.37793 7.13507 2.37995C5.70663 2.62596 4.33968 3.0569 3.06413 3.6426C3.05303 3.64731 3.04367 3.65535 3.03733 3.66561C0.444522 7.53925 -0.265791 11.3177 0.0826466 15.0492C0.0842091 15.0675 0.0944826 15.0849 0.108662 15.0961C1.81933 16.3524 3.47644 17.115 5.10273 17.6206C5.11537 17.6244 5.12887 17.6242 5.14141 17.6201C5.15395 17.6159 5.16493 17.6081 5.17288 17.5976C5.55757 17.0722 5.9005 16.5183 6.19452 15.9357C6.21187 15.9016 6.1953 15.8611 6.15983 15.8476C5.61589 15.6413 5.09796 15.3897 4.59972 15.1041C4.5603 15.081 4.55714 15.0247 4.59343 14.9977C4.69856 14.9191 4.80187 14.8382 4.90327 14.7548C4.91217 14.7475 4.92293 14.7428 4.93435 14.7413C4.94577 14.7397 4.9574 14.7414 4.96792 14.7461C8.24105 16.2405 11.7846 16.2405 15.0191 14.7461C15.0296 14.7411 15.0414 14.7392 15.053 14.7406C15.0645 14.742 15.0755 14.7466 15.0845 14.754C15.186 14.8378 15.2896 14.919 15.3951 14.9976C15.4314 15.0246 15.429 15.081 15.3896 15.104C14.8914 15.3953 14.3735 15.6413 13.8287 15.8468C13.8204 15.85 13.8127 15.855 13.8064 15.8613C13.8001 15.8677 13.7951 15.8753 13.7919 15.8837C13.7887 15.8921 13.7873 15.901 13.7879 15.91C13.7884 15.919 13.7908 15.9277 13.7949 15.9357C14.0952 16.5174 14.4382 17.0714 14.8157 17.5967C14.8315 17.619 14.8599 17.6285 14.8859 17.6205C16.5201 17.115 18.1772 16.3523 19.8878 15.096C19.8952 15.0907 19.9013 15.0838 19.9058 15.0758C19.9103 15.0679 19.913 15.0591 19.9139 15.05C20.3309 10.7359 19.2154 6.98846 16.9568 3.66639C16.9513 3.65562 16.9421 3.64718 16.9309 3.6426ZM6.68339 12.7771C5.69796 12.7771 4.88597 11.8724 4.88597 10.7613C4.88597 9.65026 5.68218 8.74553 6.68339 8.74553C7.69241 8.74553 8.49655 9.65819 8.48077 10.7613C8.48077 11.8724 7.68452 12.7771 6.68339 12.7771ZM13.329 12.7771C12.3436 12.7771 11.5316 11.8724 11.5316 10.7613C11.5316 9.65026 12.3278 8.74553 13.329 8.74553C14.338 8.74553 15.1421 9.65819 15.1264 10.7613C15.1264 11.8724 14.3381 12.7771 13.329 12.7771Z" fill="#5865F2"/>
</g>
<defs>
<clipPath id="clip0_145_3057">
<rect width="20" height="20" fill="white"/>
</clipPath>
</defs>
</svg>
