<svg width="80" height="85" viewBox="0 0 80 85" fill="none" xmlns="http://www.w3.org/2000/svg">
<g clip-path="url(#clip0_145_1806)">
<path d="M49.9203 13.3272C58.3326 18.1061 64.943 21.8615 69.6525 25.3016C74.3939 28.7654 77.901 32.3855 79.1569 37.1589C80.078 40.6588 80.078 44.3411 79.1569 47.841C77.901 52.6143 74.3939 56.2342 69.6525 59.6981C64.943 63.1382 58.3326 66.8937 49.9208 71.6727C41.7949 76.2889 34.9424 80.1819 29.7404 82.3949C24.4968 84.625 19.7162 85.7558 15.0699 84.439C11.6553 83.4711 8.5484 81.6346 6.04556 79.1093C2.64883 75.6826 1.28534 70.9458 0.640277 65.2457C-0.000102171 59.5868 -5.05906e-05 52.1795 9.24054e-07 42.758V42.2418C-5.05906e-05 32.8203 -0.000102171 25.413 0.640277 19.7543C1.28534 14.054 2.64883 9.31732 6.04556 5.89025C8.5484 3.36511 11.6553 1.52856 15.0699 0.560957C19.7162 -0.755655 24.4968 0.374784 29.7404 2.60516C34.9424 4.81777 41.7949 8.71063 49.9203 13.3272Z" fill="white"/>
</g>
<defs>
<clipPath id="clip0_145_1806">
<rect width="79.8477" height="85" fill="white"/>
</clipPath>
</defs>
</svg>
