<svg width="20" height="20" viewBox="0 0 20 20" fill="none" xmlns="http://www.w3.org/2000/svg">
<g clip-path="url(#clip0_145_3070)">
<path d="M10 0C4.48583 0 0 4.48583 0 10C0 15.5142 4.48583 20 10 20C15.5142 20 20 15.5142 20 10C20 4.48583 15.5142 0 10 0Z" fill="url(#paint0_linear_145_3070)"/>
<path d="M12.9169 9.16602C13.6072 9.16602 14.1669 8.60637 14.1669 7.91602C14.1669 7.22566 13.6072 6.66602 12.9169 6.66602C12.2265 6.66602 11.6669 7.22566 11.6669 7.91602C11.6669 8.60637 12.2265 9.16602 12.9169 9.16602Z" fill="white"/>
<path d="M12.9166 4.16602C11.9224 4.16712 10.9692 4.56256 10.2662 5.26558C9.56319 5.96861 9.16774 6.92179 9.16664 7.91602C9.16664 8.02268 9.17664 8.12602 9.19247 8.25352L7.18081 10.8843C7.01103 10.8537 6.83912 10.8364 6.66664 10.8327C5.91369 10.8358 5.18446 11.0963 4.59997 11.571L0.0141413 9.47018C-0.0559734 10.7326 0.116295 11.9967 0.521641 13.1943L3.37081 14.5377C3.55831 16.1993 4.95581 17.4993 6.66664 17.4993C8.50414 17.4993 9.99998 16.0052 9.99998 14.1668L13.0391 11.6643C14.0116 11.6313 14.9333 11.2221 15.61 10.5229C16.2866 9.82364 16.6655 8.88905 16.6666 7.91602C16.6666 5.84852 14.9841 4.16602 12.9166 4.16602ZM6.66664 15.8327C6.31497 15.8327 5.98914 15.7218 5.71914 15.5343C5.77414 15.5402 5.82831 15.5527 5.88414 15.5527C6.23294 15.5529 6.57243 15.4401 6.85182 15.2313C7.13122 15.0226 7.33551 14.7289 7.43414 14.3943C7.53865 14.0339 7.51486 13.6484 7.36684 13.3036C7.21882 12.9588 6.95573 12.676 6.62248 12.5035C6.63748 12.5035 6.65164 12.4993 6.66664 12.4993C7.58581 12.4993 8.33331 13.2468 8.33331 14.166C8.33331 15.0852 7.58581 15.8327 6.66664 15.8327ZM12.9166 9.99935C11.7683 9.99935 10.8333 9.06518 10.8333 7.91602C10.8333 6.76685 11.7683 5.83268 12.9166 5.83268C14.065 5.83268 15 6.76685 15 7.91602C15 9.06518 14.065 9.99935 12.9166 9.99935Z" fill="white"/>
<path d="M9.99998 0.208333C14.4408 0.208333 18.2033 3.07667 19.5583 7.05833C18.3033 2.9725 14.5 0 9.99998 0C5.49998 0 1.69748 2.97167 0.44165 7.05833C1.79582 3.0775 5.55832 0.208333 9.99998 0.208333Z" fill="white" fill-opacity="0.125"/>
<path d="M10.0001 19.7921C7.895 19.7976 5.84122 19.1427 4.12799 17.9195C2.41475 16.6963 1.12839 14.9665 0.450073 12.9737C1.07968 15.0132 2.34739 16.7966 4.06659 18.0616C5.78579 19.3265 7.86566 20.0061 10.0001 20.0004C12.1361 20.0043 14.217 19.3228 15.9368 18.056C17.6566 16.7892 18.9246 15.004 19.5542 12.9629C18.8758 14.9573 17.5891 16.6888 15.8753 17.9138C14.1615 19.1388 12.1067 19.7957 10.0001 19.7921Z" fill="#010101" fill-opacity="0.063"/>
<path d="M10 0C4.48583 0 0 4.48583 0 10C0 15.5142 4.48583 20 10 20C15.5142 20 20 15.5142 20 10C20 4.48583 15.5142 0 10 0Z" fill="url(#paint1_linear_145_3070)"/>
</g>
<defs>
<linearGradient id="paint0_linear_145_3070" x1="10" y1="20" x2="10" y2="0" gradientUnits="userSpaceOnUse">
<stop stop-color="#1BA8E1"/>
<stop offset="1" stop-color="#061D32"/>
</linearGradient>
<linearGradient id="paint1_linear_145_3070" x1="0.9375" y1="5.77417" x2="19.0625" y2="14.2258" gradientUnits="userSpaceOnUse">
<stop stop-color="white" stop-opacity="0.2"/>
<stop offset="1" stop-color="white" stop-opacity="0"/>
</linearGradient>
<clipPath id="clip0_145_3070">
<rect width="20" height="20" fill="white"/>
</clipPath>
</defs>
</svg>
