<svg width="12" height="11" viewBox="0 0 12 11" fill="none" xmlns="http://www.w3.org/2000/svg">
<path fill-rule="evenodd" clip-rule="evenodd" d="M5.07933 0.538379C5.46269 -0.17946 6.5373 -0.17946 6.92066 0.538379L8.21227 2.95721C8.2337 2.99735 8.27397 3.02528 8.32056 3.03237L11.1282 3.45911C11.9609 3.58568 12.2927 4.55953 11.6972 5.12939L9.68733 7.0527C9.65403 7.08457 9.63869 7.12964 9.64606 7.1741L10.0891 9.85838C10.2204 10.6539 9.35116 11.2561 8.59931 10.8905L6.06702 9.65937C6.02493 9.63889 5.97506 9.63889 5.93297 9.65937L3.4007 10.8905C2.64881 11.2561 1.77965 10.6539 1.91094 9.85838L2.35395 7.1741C2.36129 7.12964 2.34595 7.08457 2.31266 7.0527L0.302739 5.12939C-0.292725 4.55953 0.0391074 3.58568 0.871849 3.45911L3.67941 3.03237C3.72603 3.02528 3.76628 2.99735 3.78772 2.95721L5.07933 0.538379Z" fill="white"/>
</svg>
