<svg width="22" height="22" viewBox="0 0 22 22" fill="none" xmlns="http://www.w3.org/2000/svg">
<path d="M18.519 3.09741C18.0444 2.44873 17.2889 2.06544 16.4852 2.06526L5.51292 2.06348C4.70864 2.06337 3.95204 2.44732 3.47727 3.09651L2.0235 5.08472L2.01544 5.09635C1.67392 5.58496 1.33627 6.19829 1.20351 6.84016C1.06672 7.50203 1.14108 8.25365 1.71376 8.86776L1.82386 8.97875C2.38601 9.52259 3.16212 9.85516 4.01259 9.85516C4.96415 9.85516 5.83082 9.43414 6.40272 8.76392C6.94909 9.42992 7.77823 9.85516 8.70692 9.85516C9.62879 9.85516 10.4521 9.43588 10.9986 8.77823C11.5451 9.43588 12.3684 9.85516 13.2902 9.85516C14.2183 9.85516 15.0463 9.43001 15.5927 8.7648C16.1645 9.43579 17.0324 9.8569 17.9846 9.8569C18.8918 9.8569 19.715 9.47823 20.2834 8.86865L20.3846 8.75227C20.8643 8.16117 20.9211 7.46168 20.7928 6.84106C20.6765 6.27959 20.4048 5.74028 20.1098 5.28703L19.9817 5.09814L19.9736 5.08651L18.519 3.09741Z" fill="white"/>
<path d="M6.3903 10.2852C7.05024 10.7342 7.84775 10.9994 8.70703 10.9995C9.55545 10.9994 10.3431 10.7407 10.9978 10.3022C11.6527 10.7412 12.4415 10.9994 13.2903 10.9995L13.5294 10.9924C14.2965 10.9484 15.0061 10.6922 15.6035 10.2861C16.2889 10.7396 17.1126 11.0013 17.9847 11.0013L18.2138 10.995C18.6545 10.972 19.0799 10.8824 19.4778 10.7363V17.4162C19.4778 18.8083 18.3491 19.9368 16.957 19.937H5.04036C3.64825 19.9369 2.51953 18.8083 2.51953 17.4162V10.7346C2.98622 10.9057 3.49006 10.9995 4.0127 10.9995L4.2535 10.9933C5.0351 10.95 5.76928 10.6958 6.3903 10.2852ZM7.33203 15.8138C6.95234 15.8138 6.64453 16.1217 6.64453 16.5013C6.64453 16.881 6.95234 17.1888 7.33203 17.1888H14.6653C15.045 17.1888 15.3528 16.8809 15.3528 16.5013C15.3528 16.1217 15.045 15.8138 14.6653 15.8138H7.33203Z" fill="white"/>
</svg>
