<svg width="40" height="40" viewBox="0 0 40 40" fill="none" xmlns="http://www.w3.org/2000/svg">
<path d="M11.6234 18.1953C12.7994 19.0663 14.2564 19.5851 15.834 19.5851C17.393 19.585 18.8326 19.0766 20.0006 18.2245C21.1688 19.0766 22.6083 19.5851 24.1673 19.5851C25.7433 19.585 27.1978 19.0661 28.3731 18.1968C29.5951 19.0751 31.1001 19.5883 32.7025 19.5885C33.6566 19.5883 34.5743 19.4053 35.4173 19.0758V25.1076C35.4175 27.3795 35.4175 29.2115 35.2236 30.653C35.022 32.153 34.5893 33.4161 33.5863 34.4191C32.5833 35.4221 31.3198 35.8548 29.82 36.0566C28.3786 36.2503 26.5461 36.2503 24.2748 36.2503H15.7266C13.4553 36.2503 11.6227 36.2503 10.1813 36.0566C8.68147 35.8548 7.4181 35.4221 6.41504 34.4191C5.41202 33.416 4.97935 32.153 4.77767 30.653C4.5839 29.2115 4.58394 27.3795 4.58399 25.1076V19.0741C5.42712 19.4035 6.34454 19.5851 7.29884 19.5851C8.89947 19.5851 10.4021 19.0718 11.6234 18.1953ZM13.334 28.7486C12.6436 28.7486 12.084 29.3083 12.084 29.9986C12.084 30.689 12.6436 31.2486 13.334 31.2486H26.6673C27.3576 31.2485 27.9173 30.689 27.9173 29.9986C27.9173 29.3083 27.3576 28.7488 26.6673 28.7486H13.334Z" fill="#F02731"/>
<path d="M31.9585 4.42899C30.5627 3.72038 28.9537 3.75223 26.5924 3.75191L13.4104 3.75028C11.0483 3.74996 9.43888 3.71874 8.04253 4.42736C6.64656 5.13608 5.72248 6.45331 4.32833 8.35964L3.68218 9.24181L3.66753 9.26459C3.0466 10.153 2.43268 11.2665 2.1913 12.4335C1.94236 13.637 2.0779 15.0033 3.11903 16.1201C4.15266 17.2284 5.64928 17.9169 7.29871 17.9169C9.02865 17.9169 10.6046 17.1513 11.6444 15.9329C12.6378 17.1436 14.1455 17.9169 15.8339 17.9169C17.5097 17.9169 19.0069 17.1543 20.0005 15.9589C20.994 17.1543 22.4912 17.9169 24.1672 17.9169C25.8549 17.9169 27.3614 17.1443 28.355 15.9345C29.3949 17.1538 30.9717 17.9203 32.7024 17.9203C34.3517 17.9201 35.8484 17.2318 36.882 16.1233C37.9232 15.0066 38.057 13.6403 37.8082 12.4368C37.5667 11.2698 36.9544 10.1562 36.3335 9.26786L36.3189 9.24506L35.671 8.36128C34.2772 6.45536 33.3544 5.13758 31.9585 4.42899Z" fill="#F02731"/>
</svg>
