<svg width="100" height="100" viewBox="0 0 100 100" fill="none" xmlns="http://www.w3.org/2000/svg">
<g filter="url(#filter0_i_145_971)">
<path fill-rule="evenodd" clip-rule="evenodd" d="M50.0002 5.20898C47.6618 5.20898 45.7568 6.19278 44.0235 7.51557C42.3997 8.75436 40.6087 10.5454 38.5135 12.6409L38.3661 12.7883C36.2217 14.9327 34.3522 15.7767 31.4672 15.7767C31.1056 15.7767 30.6493 15.7639 30.134 15.7494C28.813 15.7122 27.1042 15.6642 25.6091 15.7934C23.4222 15.9826 20.689 16.581 18.6145 18.6729C16.556 20.7488 15.9721 23.4707 15.7886 25.6439C15.6636 27.1254 15.7116 28.8215 15.7487 30.1331C15.7634 30.6497 15.7763 31.1069 15.7763 31.4676C15.7763 34.3527 14.9323 36.2221 12.7877 38.3667L12.6405 38.5139C10.545 40.6092 8.75387 42.4002 7.51508 44.0236C6.19233 45.7573 5.20854 47.6623 5.2085 50.0007C5.20854 52.3386 6.19237 54.2436 7.51508 55.9773C8.75412 57.6015 10.5456 59.3927 12.6416 61.4886L12.7879 61.6348C14.1782 63.0248 14.834 63.9265 15.2057 64.7773C15.5676 65.6061 15.7763 66.6552 15.7763 68.5336C15.7763 68.8952 15.7635 69.3515 15.749 69.8669C15.7118 71.1877 15.6637 72.8965 15.793 74.3919C15.9822 76.5786 16.5807 79.3119 18.6726 81.3865C20.7485 83.4448 23.4705 84.0286 25.6436 84.2119C27.125 84.3373 28.8211 84.289 30.1326 84.2519C30.6494 84.2373 31.1064 84.2244 31.4671 84.2244C33.3055 84.2244 34.3387 84.4094 35.152 84.7448C35.9646 85.0802 36.8337 85.6807 38.1428 86.9898C38.4222 87.269 38.7903 87.6636 39.2149 88.1186C40.173 89.1457 41.4198 90.4819 42.5835 91.499C44.3489 93.0423 46.8818 94.7923 50.0002 94.7923C53.1189 94.7923 55.6514 93.0423 57.4172 91.499C58.5806 90.4819 59.8264 89.1469 60.7843 88.1198C61.2093 87.664 61.5781 87.2694 61.8577 86.9894C63.1664 85.6807 64.0356 85.0802 64.8481 84.7448C65.6614 84.4094 66.6948 84.2244 68.5331 84.2244C68.8939 84.2244 69.351 84.2373 69.8677 84.2519C71.1793 84.289 72.8752 84.3373 74.3568 84.2119C76.5298 84.0286 79.2518 83.4448 81.3277 81.3865C83.4198 79.3119 84.0181 76.5786 84.2073 74.3919C84.3364 72.8965 84.2885 71.1877 84.2514 69.8669C84.2368 69.3519 84.2239 68.8948 84.2239 68.5336C84.2239 66.6552 84.4327 65.6061 84.7948 64.7773C85.1664 63.9265 85.8223 63.0248 87.2123 61.6348L87.3589 61.4886C89.4548 59.3927 91.2464 57.6015 92.4852 55.9773C93.8081 54.2436 94.7918 52.3386 94.7918 50.0007C94.7918 47.6623 93.8081 45.7573 92.4852 44.0236C91.2464 42.4002 89.4556 40.6093 87.3602 38.5141L87.2127 38.3667C85.8223 36.9763 85.1664 36.0748 84.7948 35.2237C84.4327 34.3952 84.2239 33.346 84.2239 31.4676C84.2239 31.1062 84.2368 30.6504 84.2514 30.1355C84.2885 28.8145 84.3364 27.1047 84.2073 25.6096C84.0181 23.4227 83.4198 20.6895 81.3281 18.6151C79.2523 16.5564 76.5302 15.9725 74.3568 15.789C72.8752 15.6639 71.1793 15.712 69.8677 15.7492C69.351 15.7638 68.8939 15.7767 68.5331 15.7767C65.6473 15.7767 63.7781 14.9324 61.6343 12.7883L61.4868 12.641C59.3914 10.5454 57.6006 8.75436 55.9768 7.51557C54.2435 6.19278 52.3385 5.20898 50.0002 5.20898ZM65.6906 42.264C67.1706 40.502 66.9422 37.8737 65.1802 36.3937C63.4181 34.9135 60.7897 35.1421 59.3097 36.9041L44.5718 54.449L40.2753 50.6127C38.5588 49.0802 35.9247 49.2294 34.3921 50.9461C32.8595 52.6623 33.0086 55.2965 34.7251 56.829L42.2252 63.5257C43.0656 64.2761 44.1743 64.654 45.2985 64.5736C46.4222 64.4927 47.466 63.9602 48.1906 63.0973L65.6906 42.264Z" fill="#F02731"/>
</g>
<defs>
<filter id="filter0_i_145_971" x="5.2085" y="5.20898" width="89.5833" height="98.5835" filterUnits="userSpaceOnUse" color-interpolation-filters="sRGB">
<feFlood flood-opacity="0" result="BackgroundImageFix"/>
<feBlend mode="normal" in="SourceGraphic" in2="BackgroundImageFix" result="shape"/>
<feColorMatrix in="SourceAlpha" type="matrix" values="0 0 0 0 0 0 0 0 0 0 0 0 0 0 0 0 0 0 127 0" result="hardAlpha"/>
<feOffset dy="9"/>
<feGaussianBlur stdDeviation="5"/>
<feComposite in2="hardAlpha" operator="arithmetic" k2="-1" k3="1"/>
<feColorMatrix type="matrix" values="0 0 0 0 1 0 0 0 0 1 0 0 0 0 1 0 0 0 0.5 0"/>
<feBlend mode="normal" in2="shape" result="effect1_innerShadow_145_971"/>
</filter>
</defs>
</svg>
