<svg width="18" height="18" viewBox="0 0 18 18" fill="none" xmlns="http://www.w3.org/2000/svg">
<path d="M15.5574 2.32955C15.5824 2.15428 15.5234 1.97745 15.3983 1.85226C15.2731 1.72706 15.0962 1.66812 14.921 1.69316C14.754 1.71701 14.475 1.74931 14.2936 1.7703C14.0754 1.79575 13.8445 1.82393 13.6133 1.86235C13.1533 1.93881 12.6596 2.06051 12.2033 2.3099C11.6361 2.61988 11.2099 3.11363 10.5505 3.87759L5.14992 10.1158L4.85023 9.81609C4.45228 9.41814 3.98769 9.26806 3.55953 9.21618C3.16898 9.16886 2.81402 9.4471 2.7667 9.83765C2.71938 10.2282 2.99762 10.5832 3.38817 10.6305C3.60392 10.6566 3.7345 10.7151 3.84285 10.8235L4.63147 11.6121L3.36907 12.8745C2.73002 12.6241 1.97545 12.757 1.45909 13.2734C0.763637 13.9688 0.763637 15.0964 1.45909 15.7918C2.15454 16.4873 3.28209 16.4873 3.97754 15.7918C4.4939 15.2755 4.62687 14.5209 4.37645 13.8819L5.63885 12.6195L6.42747 13.4081C6.53582 13.5164 6.59431 13.647 6.62045 13.8628C6.66777 14.2533 7.02273 14.5316 7.41328 14.4842C7.80383 14.4369 8.08208 14.082 8.03476 13.6914C7.98288 13.2633 7.8328 12.7987 7.43485 12.4007L7.12762 12.0935L13.3729 6.70004C14.1369 6.0406 14.6306 5.61441 14.9406 5.04722C15.19 4.5909 15.3117 4.09718 15.3882 3.63716C15.4266 3.40603 15.4548 3.17514 15.4802 2.95693C15.5012 2.77549 15.5335 2.49653 15.5574 2.32955Z" fill="white"/>
<path d="M14.4405 9.21618C14.831 9.16886 15.186 9.4471 15.2333 9.83765C15.2806 10.2282 15.0024 10.5832 14.6118 10.6305C14.3961 10.6566 14.2655 10.7151 14.1572 10.8235L13.3685 11.6121L14.6309 12.8745C15.27 12.6241 16.0245 12.757 16.5409 13.2734C17.2364 13.9688 17.2364 15.0964 16.5409 15.7918C15.8455 16.4873 14.7179 16.4873 14.0225 15.7918C13.5061 15.2755 13.3731 14.5209 13.6235 13.8819L12.3611 12.6195L11.5725 13.4081C11.4642 13.5164 11.4057 13.647 11.3795 13.8628C11.3322 14.2533 10.9773 14.5316 10.5867 14.4842C10.1962 14.4369 9.91792 14.082 9.96524 13.6914C10.0171 13.2633 10.1672 12.7987 10.5651 12.4007L10.8726 12.0932L10.2548 11.5597C10.0714 11.4013 9.97965 11.3221 9.97965 11.2191C9.97965 11.1161 10.0714 11.0369 10.2548 10.8785L11.7778 9.56325C11.9381 9.42476 12.0183 9.35551 12.1112 9.36225C12.2041 9.36899 12.2734 9.44909 12.4121 9.60929L12.8504 10.1155L13.1498 9.81609C13.5477 9.41814 14.0123 9.26806 14.4405 9.21618Z" fill="white"/>
<path d="M8.18318 4.8083C8.18318 4.89216 8.12238 4.96238 8.00079 5.10283L6.06071 7.34383C5.92202 7.50403 5.85267 7.58413 5.7598 7.59087C5.66693 7.59761 5.58674 7.52837 5.42637 7.38987L4.62758 6.70004C3.86362 6.0406 3.36988 5.61441 3.0599 5.04722C2.81051 4.5909 2.68881 4.09718 2.61235 3.63716C2.57393 3.40603 2.54575 3.17514 2.5203 2.95693C2.49931 2.77549 2.46701 2.49653 2.44316 2.32955C2.41812 2.15428 2.47706 1.97745 2.60226 1.85226C2.72745 1.72706 2.90428 1.66812 3.07955 1.69316C3.24653 1.71701 3.52549 1.74931 3.70693 1.7703C3.92514 1.79575 4.15603 1.82393 4.38716 1.86235C4.84718 1.93881 5.3409 2.06051 5.79722 2.3099C6.36441 2.61988 6.79061 3.11363 7.45005 3.87759L8.00079 4.51376C8.12238 4.65421 8.18318 4.72443 8.18318 4.8083Z" fill="white"/>
</svg>
