<svg width="18" height="18" viewBox="0 0 18 18" fill="none" xmlns="http://www.w3.org/2000/svg">
<path d="M8.37812 11.4271H14.4962C14.665 11.4271 14.8021 11.5641 14.8021 11.733V12.9566H8.07221V11.733C8.07221 11.5641 8.20926 11.4271 8.37812 11.4271ZM11.4371 10.2034C11.2282 10.2034 11.0239 10.175 10.8253 10.1209V10.8153H12.0489V10.1209C11.8504 10.175 11.6461 10.2034 11.4371 10.2034ZM11.4371 9.59164C13.3239 9.59164 14.8021 6.50112 14.8021 2.5559C14.8021 2.38704 14.665 2.25 14.4962 2.25H8.37812C8.20926 2.25 8.07221 2.38704 8.07221 2.5559C8.07221 6.50112 9.55033 9.59164 11.4371 9.59164ZM15.7198 3.16771C15.6099 3.16771 15.5032 3.18055 15.4001 3.20258C15.3912 3.42252 15.3784 3.63941 15.3609 3.85293C15.4711 3.80582 15.5925 3.77951 15.7198 3.77951C16.2257 3.77951 16.6375 4.19125 16.6375 4.69721C16.6375 5.68436 15.6381 6.62042 14.5999 7.30044C14.4549 7.66354 14.293 7.99942 14.1156 8.30319C15.5371 7.53843 17.2493 6.20256 17.2493 4.69721C17.2493 3.85384 16.5631 3.16771 15.7198 3.16771ZM15.108 13.5684H7.76631C7.59745 13.5684 7.46041 13.7054 7.46041 13.8743V14.1802C7.46041 14.349 7.59745 14.4861 7.76631 14.4861H15.108C15.2768 14.4861 15.4139 14.349 15.4139 14.1802V13.8743C15.4139 13.7054 15.2768 13.5684 15.108 13.5684ZM8.27442 7.30044C7.23618 6.62042 6.2368 5.68436 6.2368 4.69721C6.2368 4.19125 6.64855 3.77951 7.15451 3.77951C7.28176 3.77951 7.40321 3.80582 7.51333 3.85293C7.4959 3.63971 7.48305 3.42283 7.47418 3.20258C7.37109 3.18055 7.26433 3.16771 7.15451 3.16771C6.31114 3.16771 5.625 3.85384 5.625 4.69721C5.625 6.20256 7.33713 7.53843 8.75866 8.30319C8.58123 7.99942 8.41941 7.66354 8.27442 7.30044Z" fill="white"/>
<path d="M5.6875 4.25C7.37886 4.25004 8.75 5.62115 8.75 7.3125C8.75 8.34149 8.24161 9.25049 7.46387 9.80566C9.28101 10.4547 10.6249 12.0771 10.625 14.0615C10.625 14.5103 10.2612 14.874 9.8125 14.874H1.5625C1.11379 14.874 0.75 14.5103 0.75 14.0615C0.750102 12.0774 2.09347 10.4549 3.91016 9.80566C3.1327 9.25047 2.625 8.3413 2.625 7.3125C2.625 5.62113 3.99613 4.25 5.6875 4.25Z" fill="white" stroke="#4A1111" stroke-width="0.5"/>
</svg>
