<svg width="16" height="16" viewBox="0 0 16 16" fill="none" xmlns="http://www.w3.org/2000/svg">
<path fill-rule="evenodd" clip-rule="evenodd" d="M6.50065 13.8337H13.334C14.3465 13.8337 15.1673 13.0129 15.1673 12.0003V9.66699C15.1673 9.39086 14.9434 9.16699 14.6673 9.16699C14.023 9.16699 13.5007 8.64466 13.5007 8.00033C13.5007 7.35599 14.023 6.83366 14.6673 6.83366C14.9434 6.83366 15.1673 6.6098 15.1673 6.33366V4.00033C15.1673 2.98781 14.3465 2.16699 13.334 2.16699H6.50065V13.8337ZM5.50065 2.16699H2.66732C1.6548 2.16699 0.833984 2.98781 0.833984 4.00033V6.33366C0.833984 6.6098 1.05784 6.83366 1.33398 6.83366C1.97832 6.83366 2.50065 7.35599 2.50065 8.00033C2.50065 8.64466 1.97832 9.16699 1.33398 9.16699C1.05784 9.16699 0.833984 9.39086 0.833984 9.66699V12.0003C0.833984 13.0129 1.6548 13.8337 2.66732 13.8337H5.50065V2.16699Z" fill="white"/>
</svg>
