<svg width="60" height="60" viewBox="0 0 60 60" fill="none" xmlns="http://www.w3.org/2000/svg">
<path d="M18.5649 49.6297C20.6164 44.5387 24.7948 40.6274 30.0098 40.6274C35.2248 40.6274 39.4033 44.5387 41.4548 49.6297C42.1085 51.2517 41.9755 52.9662 41.3358 54.3087C40.718 55.6047 39.4298 56.8774 37.6128 56.8774H22.4067C20.5899 56.8774 19.3016 55.6047 18.6839 54.3087C18.0441 52.9662 17.9112 51.2517 18.5649 49.6297Z" fill="#F02731"/>
<path d="M52.4909 15.1326C51.8552 15.0442 50.8324 14.9976 49.2559 14.9976H46.2504C44.8697 14.9976 43.7504 13.8783 43.7504 12.4976C43.7504 11.1169 44.8697 9.99757 46.2504 9.99757H49.4104C50.7777 9.99737 52.0527 9.99717 53.0754 10.1393C54.1912 10.2944 55.4964 10.6764 56.4659 11.8442C57.4507 13.0306 57.5644 14.3932 57.4754 15.5244C57.3959 16.538 57.0794 17.9124 56.7849 19.1927L55.8079 23.4405C54.0959 30.8853 47.8577 36.3483 40.3707 37.47C39.0052 37.6745 37.7324 36.7335 37.5279 35.368C37.3234 34.0025 38.2644 32.7298 39.6299 32.5253C45.1974 31.691 49.7089 27.6528 50.9352 22.32L51.9119 18.0722C52.2557 16.5774 52.4439 15.7297 52.4909 15.1326Z" fill="#F02731"/>
<path d="M7.49936 15.1326C8.13518 15.0442 9.15786 14.9976 10.7344 14.9976H13.74C15.1207 14.9976 16.24 13.8783 16.24 12.4976C16.24 11.1169 15.1207 9.99757 13.74 9.99757H10.5798C9.21258 9.99737 7.93751 9.99717 6.91493 10.1393C5.79918 10.2944 4.49383 10.6764 3.52446 11.8442C2.53956 13.0306 2.4258 14.3932 2.51473 15.5244C2.59441 16.538 2.87481 17.7563 3.16948 19.0366L4.18223 23.4405C5.89423 30.8853 12.1327 36.3483 19.6195 37.47C20.985 37.6745 22.2578 36.7335 22.4624 35.368C22.6669 34.0025 21.7259 32.7298 20.3604 32.5253C14.7928 31.691 10.2814 27.6528 9.05506 22.32L8.07823 18.0722C7.73448 16.5774 7.54628 15.7297 7.49936 15.1326Z" fill="#F02731"/>
<path d="M22.8067 3.12745H22.9566H37.1734C39.3064 3.12732 41.1304 3.12722 42.5867 3.36392C44.1729 3.6217 45.5712 4.19475 46.6534 5.50662C47.6982 6.77287 48.0567 8.1937 48.1082 9.76935C48.1559 11.2232 47.9429 12.9896 47.6927 15.0648C46.7169 23.163 44.5789 30.4407 41.6489 35.6152C38.7717 40.6962 34.8039 44.3774 29.9902 44.3774C25.1762 44.3774 21.2085 40.6962 18.3313 35.6152C15.4012 30.4407 13.2632 23.163 12.2874 15.0648C12.0373 12.9896 11.8243 11.2232 11.8719 9.76935C11.9235 8.1937 12.282 6.77287 13.3267 5.50662C14.409 4.19475 15.8071 3.6217 17.3934 3.36392C18.8499 3.12722 20.6739 3.12732 22.8067 3.12745Z" fill="#F02731"/>
</svg>
