<svg width="32" height="32" viewBox="0 0 32 32" fill="none" xmlns="http://www.w3.org/2000/svg">
<path d="M9.89736 26.4682C10.9915 23.753 13.22 21.667 16.0013 21.667C18.7826 21.667 21.0112 23.753 22.1053 26.4682C22.454 27.3333 22.383 28.2477 22.0418 28.9637C21.7124 29.6549 21.0253 30.3337 20.0562 30.3337H11.9464C10.9774 30.3337 10.2903 29.6549 9.96085 28.9637C9.61961 28.2477 9.54873 27.3333 9.89736 26.4682Z" fill="white"/>
<path d="M27.9952 8.07168C27.6561 8.02455 27.1106 7.99968 26.2698 7.99968H24.6669C23.9305 7.99968 23.3336 7.40274 23.3336 6.66635C23.3336 5.92998 23.9305 5.33302 24.6669 5.33302H26.3522C27.0814 5.33291 27.7614 5.3328 28.3069 5.4086C28.902 5.49132 29.5981 5.69506 30.1152 6.31788C30.6404 6.95066 30.701 7.67734 30.6536 8.28066C30.6112 8.82123 30.4424 9.55427 30.2853 10.2371L29.7642 12.5026C28.8512 16.4731 25.5241 19.3867 21.531 19.985C20.8028 20.0941 20.124 19.5922 20.0149 18.8639C19.9058 18.1357 20.4077 17.4569 21.136 17.3478C24.1053 16.9029 26.5114 14.7491 27.1654 11.905L27.6864 9.63947C27.8697 8.84224 27.9701 8.39018 27.9952 8.07168Z" fill="white"/>
<path d="M4.00356 8.07168C4.34267 8.02455 4.8881 7.99968 5.72892 7.99968H7.33188C8.06826 7.99968 8.66522 7.40274 8.66522 6.66635C8.66522 5.92998 8.06826 5.33302 7.33188 5.33302H5.64647C4.91728 5.33291 4.23724 5.3328 3.69187 5.4086C3.0968 5.49132 2.40062 5.69506 1.88362 6.31788C1.35834 6.95066 1.29767 7.67734 1.3451 8.28066C1.38759 8.82123 1.53714 9.471 1.6943 10.1538L2.23443 12.5026C3.1475 16.4731 6.47468 19.3867 10.4676 19.985C11.1959 20.0941 11.8747 19.5922 11.9838 18.8639C12.0929 18.1357 11.591 17.4569 10.8628 17.3478C7.89339 16.9029 5.48731 14.7491 4.83327 11.905L4.3123 9.63947C4.12896 8.84224 4.02859 8.39018 4.00356 8.07168Z" fill="white"/>
<path d="M12.1675 1.667H12.2474H19.8297C20.9673 1.66693 21.9401 1.66688 22.7168 1.79312C23.5628 1.9306 24.3085 2.23622 24.8857 2.93589C25.4429 3.61122 25.6341 4.369 25.6616 5.20934C25.6871 5.98476 25.5735 6.92681 25.44 8.03357C24.9196 12.3526 23.7793 16.2341 22.2167 18.9938C20.6821 21.7037 18.566 23.667 15.9987 23.667C13.4312 23.667 11.3151 21.7037 9.78061 18.9938C8.21787 16.2341 7.07759 12.3526 6.55719 8.03357C6.42378 6.92681 6.31022 5.98476 6.33561 5.20934C6.36313 4.369 6.55433 3.61122 7.11149 2.93589C7.68873 2.23622 8.43438 1.9306 9.28038 1.79312C10.0572 1.66688 11.03 1.66693 12.1675 1.667Z" fill="white"/>
</svg>
