<svg width="16" height="16" viewBox="0 0 16 16" fill="none" xmlns="http://www.w3.org/2000/svg">
<path d="M5.49863 7C5.49863 5.61929 6.61792 4.5 7.99863 4.5C9.37936 4.5 10.4986 5.61929 10.4986 7C10.4986 8.01707 9.89123 8.89233 9.01943 9.2828C10.802 9.69767 12.1654 11.1743 12.1654 12.9993V13.4993H3.83203V12.9993C3.83203 11.1743 5.19541 9.69773 6.9779 9.2828C6.10602 8.89233 5.49863 8.01713 5.49863 7Z" fill="white"/>
<path d="M4.99863 2.49854C3.61792 2.49854 2.49863 3.61782 2.49863 4.99854C2.49863 6.01564 3.10602 6.8909 3.97788 7.2813C2.19541 7.6963 0.832031 9.1729 0.832031 10.9979V11.4979H3.08222C3.44699 10.4442 4.18425 9.57337 5.11809 8.98697C4.72768 8.42264 4.49863 7.73764 4.49863 6.9985C4.49863 5.38197 5.5946 4.02138 7.08403 3.61924C6.63645 2.94387 5.86954 2.49854 4.99863 2.49854Z" fill="white"/>
<path d="M12.916 11.4979C12.5513 10.4442 11.8139 9.5733 10.8801 8.9869C11.2705 8.42257 11.4995 7.73757 11.4995 6.9985C11.4995 5.38197 10.4035 4.02138 8.91406 3.61924C9.36166 2.94387 10.1286 2.49854 10.9995 2.49854C12.3802 2.49854 13.4995 3.61782 13.4995 4.99854C13.4995 6.01562 12.8921 6.89084 12.0203 7.2813C13.8028 7.69624 15.1662 9.17284 15.1662 10.9979V11.4979H12.916Z" fill="white"/>
</svg>
