<svg width="16" height="16" viewBox="0 0 16 16" fill="none" xmlns="http://www.w3.org/2000/svg">
<path d="M2.83398 4.66667C2.83398 2.91777 4.25175 1.5 6.00065 1.5C7.74958 1.5 9.16732 2.91777 9.16732 4.66667C9.16732 6.41557 7.74958 7.83333 6.00065 7.83333C4.25175 7.83333 2.83398 6.41557 2.83398 4.66667Z" fill="#F02731"/>
<path d="M0.833984 12.6654C0.833984 10.5483 2.55022 8.83203 4.66732 8.83203H7.33398C9.45105 8.83203 11.1673 10.5483 11.1673 12.6654C11.1673 13.6779 10.3465 14.4987 9.33398 14.4987H2.66732C1.6548 14.4987 0.833984 13.6779 0.833984 12.6654Z" fill="#F02731"/>
<path d="M8.91602 7.64293C9.25415 7.76613 9.61922 7.83333 10 7.83333C11.7489 7.83333 13.1667 6.41557 13.1667 4.66667C13.1667 2.91777 11.7489 1.5 10 1.5C9.61922 1.5 9.25415 1.56721 8.91602 1.6904C9.68782 2.44667 10.1667 3.50074 10.1667 4.66667C10.1667 5.83259 9.68782 6.88667 8.91602 7.64293Z" fill="#F02731"/>
<path d="M11.4914 14.4987H13.3311C14.3436 14.4987 15.1644 13.6779 15.1644 12.6654C15.1644 10.5483 13.4482 8.83203 11.3311 8.83203H10.2754C11.4241 9.71563 12.1644 11.104 12.1644 12.6654C12.1644 13.3646 11.9112 14.0046 11.4914 14.4987Z" fill="#F02731"/>
</svg>
