<svg width="22" height="22" viewBox="0 0 22 22" fill="none" xmlns="http://www.w3.org/2000/svg">
<rect x="0.211538" y="0.211538" width="21.5769" height="21.5769" rx="10.7885" stroke="#E0CDCE" stroke-width="0.423077" stroke-dasharray="1.69 1.69"/>
<path d="M11.4956 8.53295C11.4956 9.62336 10.6116 10.5073 9.52123 10.5073C8.43083 10.5073 7.54688 9.62336 7.54688 8.53295C7.54688 7.44254 8.43083 6.55859 9.52123 6.55859C10.6116 6.55859 11.4956 7.44254 11.4956 8.53295Z" stroke="#E0CDCE" stroke-width="0.740385"/>
<path d="M12.4805 10.5073C13.5709 10.5073 14.4548 9.62336 14.4548 8.53295C14.4548 7.44254 13.5709 6.55859 12.4805 6.55859" stroke="#E0CDCE" stroke-width="0.740385" stroke-linecap="round" stroke-linejoin="round"/>
<path d="M10.5087 11.9883H8.53436C7.17135 11.9883 6.06641 13.0932 6.06641 14.4562C6.06641 15.0014 6.50838 15.4434 7.05359 15.4434H11.9895C12.5347 15.4434 12.9767 15.0014 12.9767 14.4562C12.9767 13.0932 11.8717 11.9883 10.5087 11.9883Z" stroke="#E0CDCE" stroke-width="0.740385" stroke-linejoin="round"/>
<path d="M13.4688 11.9883C14.8317 11.9883 15.9367 13.0932 15.9367 14.4562C15.9367 15.0014 15.4947 15.4434 14.9495 15.4434H14.2091" stroke="#E0CDCE" stroke-width="0.740385" stroke-linecap="round" stroke-linejoin="round"/>
</svg>
