<svg width="14" height="14" viewBox="0 0 14 14" fill="none" xmlns="http://www.w3.org/2000/svg">
<rect x="-0.3" y="0.3" width="13.4" height="13.4" rx="6.7" transform="matrix(-1 0 0 1 13.4 0)" fill="white"/>
<rect x="-0.3" y="0.3" width="13.4" height="13.4" rx="6.7" transform="matrix(-1 0 0 1 13.4 0)" stroke="#080808" stroke-width="0.6"/>
<path d="M8.56372 6.37512C8.56372 5.51218 7.86416 4.81262 7.00122 4.81262C6.13826 4.81262 5.43872 5.51218 5.43872 6.37512C5.43872 7.01079 5.81835 7.55783 6.36322 7.80187C5.24914 8.06116 4.39701 8.98408 4.39701 10.1247C4.39701 10.2973 4.53693 10.4372 4.70951 10.4372H9.29285C9.46543 10.4372 9.60535 10.2973 9.60535 10.1247C9.60535 8.98408 8.75323 8.06121 7.63918 7.80187C8.1841 7.55783 8.56372 7.01083 8.56372 6.37512Z" fill="#080808"/>
<path d="M8.87622 3.56262C9.73916 3.56262 10.4387 4.26218 10.4387 5.12512C10.4387 5.76081 10.0591 6.30785 9.51419 6.55185C10.6282 6.81123 11.4803 7.7341 11.4803 8.87473C11.4803 9.04731 11.3404 9.18723 11.1678 9.18723H10.074C9.846 8.52869 9.38521 7.98439 8.80156 7.61789C9.04556 7.26518 9.18872 6.83706 9.18872 6.3751C9.18872 5.36477 8.50374 4.5144 7.57285 4.26306C7.85259 3.84096 8.3319 3.56262 8.87622 3.56262Z" fill="#080808"/>
<path d="M3.92836 9.18723C4.15632 8.52864 4.61715 7.98435 5.20082 7.61785C4.95682 7.26514 4.81369 6.83702 4.81369 6.3751C4.81369 5.36477 5.49865 4.5144 6.42957 4.26306C6.14982 3.84096 5.67048 3.56262 5.12619 3.56262C4.26323 3.56262 3.56369 4.26218 3.56369 5.12512C3.56369 5.7608 3.94327 6.30781 4.48819 6.55185C3.37411 6.81118 2.52198 7.73406 2.52198 8.87473C2.52198 9.04731 2.6619 9.18723 2.83448 9.18723H3.92836Z" fill="#080808"/>
</svg>
