<svg width="20" height="20" viewBox="0 0 20 20" fill="none" xmlns="http://www.w3.org/2000/svg">
<path d="M13.125 8.33398C13.125 6.60809 11.7259 5.20898 10 5.20898C8.27411 5.20898 6.875 6.60809 6.875 8.33398C6.875 10.0599 8.27411 11.459 10 11.459C11.7259 11.459 13.125 10.0599 13.125 8.33398Z" fill="white"/>
<path d="M17.3289 9.99935C17.3289 5.95135 14.0473 2.66981 9.99935 2.66981C5.95135 2.66981 2.66981 5.95135 2.66981 9.99935C2.66981 14.0473 5.95135 17.3289 9.99935 17.3289C14.0473 17.3289 17.3289 14.0473 17.3289 9.99935ZM18.9577 9.99935C18.9577 14.9469 14.9469 18.9577 9.99935 18.9577C5.0518 18.9577 1.04102 14.9469 1.04102 9.99935C1.04102 5.0518 5.0518 1.04102 9.99935 1.04102C14.9469 1.04102 18.9577 5.0518 18.9577 9.99935Z" fill="white"/>
<path d="M15.625 16.6668C15.625 13.5603 13.1067 11.041 10 11.041C6.8933 11.041 4.375 13.5603 4.375 16.6668C4.37507 16.8633 4.46772 17.0485 4.62483 17.1665C6.12208 18.2911 7.9841 18.9577 10 18.9577C12.0159 18.9577 13.8779 18.2911 15.3752 17.1665C15.5322 17.0485 15.6249 16.8633 15.625 16.6668Z" fill="white"/>
</svg>
