<svg width="20" height="20" viewBox="0 0 20 20" fill="none" xmlns="http://www.w3.org/2000/svg">
<path d="M5.52165 5.3125C5.52165 2.89625 7.4804 0.9375 9.89665 0.9375C12.3129 0.9375 14.2716 2.89625 14.2716 5.3125C14.2716 7.72875 12.3129 9.6875 9.89665 9.6875C7.4804 9.6875 5.52165 7.72875 5.52165 5.3125Z" fill="white"/>
<path d="M15.3133 11.5625C15.7735 11.5625 16.1466 11.9356 16.1466 12.3958V14.4792H18.23C18.6902 14.4792 19.0633 14.8523 19.0633 15.3125C19.0633 15.7727 18.6902 16.1458 18.23 16.1458H16.1466V18.2292C16.1466 18.6894 15.7735 19.0625 15.3133 19.0625C14.8531 19.0625 14.48 18.6894 14.48 18.2292V16.1458H12.3966C11.9364 16.1458 11.5633 15.7727 11.5633 15.3125C11.5633 14.8523 11.9364 14.4792 12.3966 14.4792H14.48V12.3958C14.48 11.9356 14.8531 11.5625 15.3133 11.5625Z" fill="white"/>
<path d="M13.2476 12.1174C13.2629 12.0026 13.21 11.8864 13.1052 11.8371C12.2423 11.4308 11.329 11.1623 10.3999 11.0313C9.51338 10.9062 8.61191 10.9062 7.72536 11.0313C6.50496 11.2034 5.31157 11.6127 4.2242 12.2601C4.12732 12.3178 4.00756 12.3854 3.87209 12.4618C3.27808 12.7969 2.38005 13.3036 1.76491 13.9057C1.38019 14.2823 1.01464 14.7785 0.94819 15.3865C0.877518 16.033 1.15957 16.6397 1.72542 17.1788C2.70163 18.1089 3.87311 18.8542 5.38837 18.8542H12.7369C12.8334 18.8542 12.9284 18.8511 13.0221 18.8453C13.1754 18.8356 13.2731 18.6837 13.251 18.5316C13.2366 18.4329 13.2292 18.3319 13.2292 18.2292V17.6458C13.2292 17.5078 13.1172 17.3958 12.9792 17.3958H12.3958C11.2452 17.3958 10.3125 16.4631 10.3125 15.3125C10.3125 14.1619 11.2452 13.2292 12.3958 13.2292H12.9792C13.1172 13.2292 13.2292 13.1172 13.2292 12.9792V12.3958C13.2292 12.3014 13.2354 12.2085 13.2476 12.1174Z" fill="white"/>
</svg>
