<svg width="32" height="32" viewBox="0 0 32 32" fill="none" xmlns="http://www.w3.org/2000/svg">
<path d="M10.3346 9.9987C10.3346 6.86908 12.8717 4.33203 16.0013 4.33203C19.1309 4.33203 21.668 6.86908 21.668 9.9987C21.668 13.1283 19.1309 15.6654 16.0013 15.6654C12.8717 15.6654 10.3346 13.1283 10.3346 9.9987Z" fill="white"/>
<path d="M5.66797 26.6654C5.66797 21.5557 10.4445 17.6654 16.0013 17.6654C21.5581 17.6654 26.3346 21.5557 26.3346 26.6654V27.6654H5.66797V26.6654Z" fill="white"/>
<path d="M9.64281 6.34282C9.02271 7.41901 8.66797 8.66743 8.66797 9.9987C8.66797 11.8548 9.35757 13.5499 10.4946 14.8417C10.1254 14.944 9.7364 14.9987 9.33466 14.9987C6.94144 14.9987 5.00128 13.0586 5.00128 10.6654C5.00128 8.27211 6.94144 6.33203 9.33466 6.33203C9.43826 6.33203 9.54102 6.33567 9.64281 6.34282Z" fill="white"/>
<path d="M11.716 16.7091C7.88315 18.0157 4.8196 21.0338 4.14153 24.9987H1.66797V23.9987C1.66797 19.7645 5.10045 16.332 9.33464 16.332C10.166 16.332 10.9664 16.4643 11.716 16.7091Z" fill="white"/>
<path d="M22.6678 14.9987C22.2661 14.9987 21.8771 14.944 21.5079 14.8417C22.6449 13.5499 23.3345 11.8548 23.3345 9.9987C23.3345 8.66743 22.9797 7.41902 22.3596 6.34282C22.4614 6.33567 22.5642 6.33203 22.6678 6.33203C25.061 6.33203 27.0011 8.27213 27.0011 10.6654C27.0011 13.0586 25.061 14.9987 22.6678 14.9987Z" fill="white"/>
<path d="M30.3345 24.9987H27.8609C27.1828 21.0338 24.1193 18.0157 20.2865 16.7091C21.0361 16.4643 21.8365 16.332 22.6678 16.332C26.902 16.332 30.3345 19.7645 30.3345 23.9987V24.9987Z" fill="white"/>
</svg>
