<svg width="24" height="24" viewBox="0 0 24 24" fill="none" xmlns="http://www.w3.org/2000/svg">
<path d="M4.25 7C4.25 4.37665 6.37665 2.25 9 2.25C11.6234 2.25 13.75 4.37665 13.75 7C13.75 9.62335 11.6234 11.75 9 11.75C6.37665 11.75 4.25 9.62335 4.25 7Z" fill="#AA1C23"/>
<path d="M1.25 19C1.25 15.8244 3.82436 13.25 7 13.25H11C14.1756 13.25 16.75 15.8244 16.75 19C16.75 20.5188 15.5188 21.75 14 21.75H4C2.48122 21.75 1.25 20.5188 1.25 19Z" fill="#AA1C23"/>
<path d="M13.375 11.4644C13.8822 11.6492 14.4298 11.75 15.001 11.75C17.6243 11.75 19.751 9.62335 19.751 7C19.751 4.37665 17.6243 2.25 15.001 2.25C14.4298 2.25 13.8822 2.35081 13.375 2.5356C14.5327 3.67 15.251 5.25111 15.251 7C15.251 8.74889 14.5327 10.33 13.375 11.4644Z" fill="#AA1C23"/>
<path d="M17.242 21.75H20.0015C21.5203 21.75 22.7515 20.5188 22.7515 19C22.7515 15.8244 20.1772 13.25 17.0015 13.25H15.418C17.1411 14.5754 18.2515 16.658 18.2515 19C18.2515 20.0488 17.8717 21.0088 17.242 21.75Z" fill="#AA1C23"/>
</svg>
