<svg width="20" height="20" viewBox="0 0 20 20" fill="none" xmlns="http://www.w3.org/2000/svg">
<path d="M9.79109 1.04163C7.37488 1.04163 5.41612 3.00038 5.41612 5.41663C5.41612 7.83287 7.37488 9.79163 9.79109 9.79163C12.2073 9.79163 14.1661 7.83287 14.1661 5.41663C14.1661 3.00038 12.2073 1.04163 9.79109 1.04163Z" fill="white"/>
<path d="M14.9785 12.5642C14.8444 12.4885 14.7258 12.4215 14.6296 12.3643C11.6679 10.6007 7.91443 10.6007 4.95272 12.3643C4.8558 12.422 4.73605 12.4896 4.6005 12.5661C4.0065 12.9011 3.10857 13.4077 2.49343 14.0098C2.1087 14.3864 1.74316 14.8826 1.6767 15.4906C1.60604 16.1371 1.88809 16.7439 2.45394 17.283C3.43015 18.213 4.60163 18.9583 6.11689 18.9583H13.4655C14.9807 18.9583 16.1522 18.213 17.1284 17.283C17.6942 16.7439 17.9763 16.1371 17.9056 15.4906C17.8391 14.8826 17.4736 14.3864 17.0889 14.0098C16.4737 13.4077 15.5758 12.9011 14.9818 12.5661L14.9785 12.5642Z" fill="white"/>
</svg>
