<svg width="20" height="20" viewBox="0 0 20 20" fill="none" xmlns="http://www.w3.org/2000/svg">
<path fill-rule="evenodd" clip-rule="evenodd" d="M18.8152 10.2121C18.6008 10.5305 18.2324 11.0777 18.0674 11.2944C17.6383 11.8582 17.0162 12.6116 16.2448 13.3672C14.7268 14.8545 12.5198 16.4596 9.99935 16.4596C7.47893 16.4596 5.27192 14.8545 3.75382 13.3672C2.98253 12.6116 2.36039 11.8582 1.93123 11.2944C1.7663 11.0777 1.39787 10.5306 1.18354 10.2122C1.11853 10.1156 1.06769 10.0401 1.04102 10.0013C1.06769 9.96247 1.11853 9.88697 1.18354 9.79039C1.39787 9.47205 1.7663 8.92489 1.93123 8.70822C2.36039 8.14438 2.98253 7.39095 3.75382 6.63535C5.27192 5.14813 7.47893 3.54297 9.99935 3.54297C12.5198 3.54297 14.7268 5.14813 16.2448 6.63535C17.0162 7.39095 17.6383 8.14438 18.0674 8.70822C18.2324 8.92489 18.6008 9.47214 18.8152 9.79047C18.8802 9.88697 18.931 9.96247 18.9577 10.0013C18.931 10.0401 18.8802 10.1156 18.8152 10.2121ZM9.99935 12.918C8.38852 12.918 7.08268 11.6121 7.08268 10.0013C7.08268 8.39047 8.38852 7.08464 9.99935 7.08464C11.6102 7.08464 12.916 8.39047 12.916 10.0013C12.916 11.6121 11.6102 12.918 9.99935 12.918Z" fill="white"/>
</svg>
