<svg width="24" height="24" viewBox="0 0 24 24" fill="none" xmlns="http://www.w3.org/2000/svg">
<path d="M11.5625 22.5H12.4375C17.1975 22.5 19.5688 22.5 21.0387 21.03C22.5 19.56 22.5 17.18 22.5 12.4375V11.545C22.5 6.82 22.5 4.44 21.0387 2.97C19.5688 1.5 17.1888 1.5 12.4375 1.5H11.5625C6.8025 1.5 4.43125 1.5 2.96125 2.97C1.5 4.44 1.5 6.82 1.5 11.5625V12.455C1.5 17.18 1.5 19.56 2.97 21.03C4.44 22.5 6.82 22.5 11.5625 22.5Z" fill="#0077FF"/>
<path d="M12.6029 16.5C7.99048 16.5 5.35962 13.4032 5.25 8.25H7.56043C7.63632 12.0323 9.33963 13.6344 10.6888 13.9647V8.25H12.8643V11.512C14.1966 11.3716 15.5963 9.88514 16.0686 8.25H18.2441C18.0661 9.09803 17.7114 9.90097 17.2022 10.6086C16.6929 11.3163 16.04 11.9134 15.2844 12.3626C16.1279 12.7731 16.8729 13.3541 17.4703 14.0673C18.0677 14.7805 18.5038 15.6096 18.75 16.5H16.3552C16.1343 15.7266 15.6851 15.0343 15.0641 14.5099C14.4431 13.9854 13.6779 13.6521 12.8643 13.5518V16.5H12.6029Z" fill="white"/>
</svg>
