<svg width="18" height="14" viewBox="0 0 18 14" fill="none" xmlns="http://www.w3.org/2000/svg">
<path fill-rule="evenodd" clip-rule="evenodd" d="M12.2063 6.53598C12.2063 5.53835 11.8723 4.62124 11.3096 3.88687C11.0167 3.50456 11.0891 2.95718 11.4715 2.66426C11.8538 2.37133 12.4011 2.44378 12.6941 2.82608C13.4818 3.85422 13.9504 5.14165 13.9504 6.53598C13.9504 7.98918 13.4414 9.32596 12.5929 10.3743C12.2899 10.7486 11.7407 10.8065 11.3664 10.5034C10.9921 10.2004 10.9342 9.65124 11.2372 9.27695C11.8436 8.52776 12.2063 7.57539 12.2063 6.53598Z" fill="#FF0B0B"/>
<path fill-rule="evenodd" clip-rule="evenodd" d="M5.23044 6.5375C5.23044 5.53856 5.56529 4.62035 6.12932 3.88549C6.42257 3.50343 6.35057 2.95599 5.96851 2.66275C5.58644 2.3695 5.03901 2.4415 4.74576 2.82355C3.95611 3.85236 3.48633 5.14134 3.48633 6.5375C3.48633 7.98957 3.99445 9.32538 4.84183 10.3733C5.14466 10.7479 5.69375 10.806 6.06827 10.5031C6.44277 10.2003 6.50088 9.65118 6.19805 9.27672C5.59251 8.5278 5.23044 7.57612 5.23044 6.5375Z" fill="#FF0B0B"/>
<path fill-rule="evenodd" clip-rule="evenodd" d="M6.97852 6.53511C6.97852 7.49839 7.75936 8.27923 8.72263 8.27923C9.68591 8.27923 10.4667 7.49839 10.4667 6.53511C10.4667 5.57193 9.68591 4.79102 8.72263 4.79102C7.75936 4.79102 6.97852 5.57193 6.97852 6.53511Z" fill="#FF8B8B"/>
<path fill-rule="evenodd" clip-rule="evenodd" d="M15.6977 6.5361C15.6977 4.58962 14.9903 2.8106 13.8174 1.43878C13.5044 1.07271 13.5474 0.522237 13.9135 0.209255C14.2796 -0.103727 14.83 -0.0606995 15.143 0.305373C16.5758 1.98114 17.4418 4.15859 17.4418 6.5361C17.4418 8.96827 16.5355 11.191 15.0434 12.8815C14.7248 13.2426 14.1736 13.2769 13.8126 12.9582C13.4515 12.6395 13.4171 12.0884 13.7359 11.7273C14.9574 10.3432 15.6977 8.52718 15.6977 6.5361Z" fill="#FF8B8B"/>
<path fill-rule="evenodd" clip-rule="evenodd" d="M1.74412 6.53775C1.74412 4.59141 2.45148 2.81249 3.62423 1.4407C3.93719 1.07461 3.89413 0.524146 3.52805 0.211182C3.16198 -0.101782 2.6115 -0.0587293 2.29854 0.307352C0.865945 1.98307 0 4.1604 0 6.53775C0 8.9667 0.90388 11.1866 2.39236 12.8763C2.71072 13.2377 3.26178 13.2726 3.62317 12.9542C3.98456 12.6358 4.01945 12.0847 3.70108 11.7234C2.4824 10.34 1.74412 8.52613 1.74412 6.53775Z" fill="#FF8B8B"/>
</svg>
