<svg width="10" height="7" viewBox="0 0 10 7" fill="none" xmlns="http://www.w3.org/2000/svg">
<path fill-rule="evenodd" clip-rule="evenodd" d="M6.48494 3.47175C6.48494 2.94176 6.3075 2.45455 6.00859 2.06441C5.85298 1.86131 5.89147 1.57051 6.09458 1.4149C6.29768 1.25928 6.58843 1.29777 6.7441 1.50087C7.16258 2.04707 7.4115 2.73101 7.4115 3.47175C7.4115 4.24376 7.14113 4.95393 6.69036 5.51084C6.52937 5.70972 6.23764 5.74044 6.03875 5.57945C5.83991 5.41846 5.80915 5.12673 5.97014 4.92789C6.2923 4.52989 6.48494 4.02394 6.48494 3.47175Z" fill="#FF0B0B"/>
<path fill-rule="evenodd" clip-rule="evenodd" d="M2.77886 3.47262C2.77886 2.94193 2.95674 2.45413 3.25638 2.06374C3.41217 1.86077 3.37392 1.56994 3.17095 1.41416C2.96798 1.25837 2.67716 1.29662 2.52137 1.49959C2.10187 2.04614 1.85229 2.73091 1.85229 3.47262C1.85229 4.24403 2.12223 4.95368 2.5724 5.51041C2.73328 5.70939 3.02499 5.74024 3.22395 5.57934C3.42291 5.41849 3.45377 5.12676 3.29289 4.92783C2.9712 4.52997 2.77886 4.02439 2.77886 3.47262Z" fill="#FF0B0B"/>
<path fill-rule="evenodd" clip-rule="evenodd" d="M3.70776 3.47147C3.70776 3.98321 4.12259 4.39804 4.63433 4.39804C5.14607 4.39804 5.56089 3.98321 5.56089 3.47147C5.56089 2.95978 5.14607 2.54492 4.63433 2.54492C4.12259 2.54492 3.70776 2.95978 3.70776 3.47147Z" fill="#FF8B8B"/>
<path fill-rule="evenodd" clip-rule="evenodd" d="M8.34033 3.4723C8.34033 2.43824 7.96452 1.49313 7.3414 0.764351C7.17513 0.569875 7.19797 0.277438 7.39246 0.111167C7.58694 -0.0551049 7.87937 -0.0322466 8.04564 0.162229C8.80681 1.05248 9.26689 2.20925 9.26689 3.4723C9.26689 4.76439 8.78541 5.9452 7.99273 6.84327C7.82345 7.03512 7.53066 7.05337 7.33886 6.88404C7.14701 6.71471 7.12876 6.42196 7.29809 6.23012C7.94705 5.49485 8.34033 4.53006 8.34033 3.4723Z" fill="#FF8B8B"/>
<path fill-rule="evenodd" clip-rule="evenodd" d="M0.926562 3.47312C0.926562 2.43912 1.30235 1.49407 1.92537 0.765309C2.09163 0.570828 2.06876 0.278391 1.87428 0.112129C1.6798 -0.054133 1.38736 -0.031261 1.2211 0.16322C0.460033 1.05345 0 2.21015 0 3.47312C0 4.7635 0.480186 5.94282 1.27094 6.84048C1.44007 7.03246 1.73282 7.05099 1.92481 6.88185C2.1168 6.71271 2.13533 6.41996 1.9662 6.22797C1.31878 5.49307 0.926562 4.52945 0.926562 3.47312Z" fill="#FF8B8B"/>
</svg>
