<svg width="18" height="18" viewBox="0 0 18 18" fill="none" xmlns="http://www.w3.org/2000/svg">
<path d="M0.9375 9C0.9375 10.5533 2.1967 11.8125 3.75 11.8125C5.04357 11.8125 6.13318 10.9392 6.46139 9.75H6.76662C7.11841 9.75002 7.34134 9.75076 7.51122 9.76429C7.67433 9.77727 7.72727 9.79862 7.74769 9.8085C7.91643 9.89004 8.08457 10.0651 8.17904 10.3312C8.20223 10.3965 8.2246 10.4991 8.23701 10.7113C8.2497 10.9283 8.25 11.2085 8.25 11.625V14.25C8.25 14.6642 8.58579 15 9 15H11.5386C11.8668 16.1892 12.9564 17.0625 14.25 17.0625C15.8033 17.0625 17.0625 15.8033 17.0625 14.25C17.0625 12.6967 15.8033 11.4375 14.25 11.4375C12.9564 11.4375 11.8668 12.3108 11.5386 13.5H9.75V11.6032C9.75001 11.214 9.75001 10.8898 9.73445 10.6237C9.71831 10.3478 9.68359 10.0857 9.5926 9.82937C9.48392 9.52328 9.32012 9.24002 9.10886 9C9.32012 8.75998 9.48392 8.47672 9.5926 8.17063C9.68359 7.91434 9.71831 7.65219 9.73445 7.37631C9.75001 7.11022 9.75001 6.78596 9.75 6.39675V4.5H11.5386C11.8668 5.68919 12.9564 6.5625 14.25 6.5625C15.8033 6.5625 17.0625 5.3033 17.0625 3.75C17.0625 2.1967 15.8033 0.9375 14.25 0.9375C12.9564 0.9375 11.8668 1.8108 11.5386 3H9C8.58579 3 8.25 3.33579 8.25 3.75V6.375C8.25 6.7915 8.2497 7.07167 8.23701 7.28874C8.2246 7.50095 8.20223 7.60345 8.17904 7.66876C8.08457 7.93487 7.91643 8.10996 7.74769 8.19151C7.72727 8.20138 7.67434 8.22273 7.51122 8.23571C7.34347 8.24907 7.12398 8.24996 6.77978 8.25L6.46139 8.25C6.13318 7.0608 5.04357 6.1875 3.75 6.1875C2.1967 6.1875 0.9375 7.4467 0.9375 9Z" fill="white"/>
</svg>
