<svg width="32" height="32" viewBox="0 0 32 32" fill="none" xmlns="http://www.w3.org/2000/svg">
<path d="M1.66797 16.0007C1.66797 18.7621 3.90654 21.0007 6.66797 21.0007C8.96766 21.0007 10.9047 19.4481 11.4882 17.334H12.0309C12.6562 17.334 13.0526 17.3353 13.3546 17.3594C13.6446 17.3825 13.7387 17.4204 13.775 17.438C14.075 17.5829 14.3739 17.8942 14.5418 18.3673C14.583 18.4834 14.6228 18.6656 14.6449 19.0429C14.6674 19.4288 14.668 19.9269 14.668 20.6673V25.334C14.668 26.0704 15.2649 26.6673 16.0013 26.6673H20.5144C21.0979 28.7814 23.0349 30.334 25.3346 30.334C28.0961 30.334 30.3346 28.0954 30.3346 25.334C30.3346 22.5726 28.0961 20.334 25.3346 20.334C23.0349 20.334 21.0979 21.8865 20.5144 24.0007H17.3346V20.6286C17.3346 19.9367 17.3347 19.3603 17.307 18.8872C17.2783 18.3968 17.2166 17.9307 17.0548 17.4751C16.8616 16.9309 16.5704 16.4274 16.1948 16.0007C16.5704 15.5739 16.8616 15.0704 17.0548 14.5262C17.2166 14.0706 17.2783 13.6046 17.307 13.1141C17.3347 12.641 17.3346 12.0646 17.3346 11.3727V8.00065H20.5144C21.0979 10.1148 23.0349 11.6673 25.3346 11.6673C28.0961 11.6673 30.3346 9.42874 30.3346 6.66732C30.3346 3.9059 28.0961 1.66732 25.3346 1.66732C23.0349 1.66732 21.0979 3.21986 20.5144 5.33399H16.0013C15.2649 5.33399 14.668 5.93094 14.668 6.66732V11.334C14.668 12.0744 14.6674 12.5725 14.6449 12.9584C14.6228 13.3357 14.583 13.5179 14.5418 13.634C14.3739 14.1071 14.075 14.4184 13.775 14.5633C13.7387 14.5809 13.6446 14.6188 13.3546 14.6419C13.0564 14.6657 12.6662 14.6672 12.0542 14.6673L11.4882 14.6673C10.9047 12.5532 8.96766 11.0007 6.66797 11.0007C3.90654 11.0007 1.66797 13.2392 1.66797 16.0007Z" fill="white"/>
</svg>
